<?xml version="1.0" encoding="UTF-8" standalone="no"?>
<svg
   clip-rule="evenodd"
   fill-rule="evenodd"
   stroke-linejoin="round"
   stroke-miterlimit="1.41421"
   viewBox="0 0 256 256"
   version="1.1"
   id="svg99"
   sodipodi:docname="ledger-wallet.svg"
   width="256"
   height="256"
   inkscape:export-filename="../SDA_3/abstrucked/_Dev/Frabric/governance/src/assets/icons/ledger-wallet.png"
   inkscape:export-xdpi="96"
   inkscape:export-ydpi="96"
   inkscape:version="1.2.1 (9c6d41e410, 2022-07-14, custom)"
   xmlns:inkscape="http://www.inkscape.org/namespaces/inkscape"
   xmlns:sodipodi="http://sodipodi.sourceforge.net/DTD/sodipodi-0.dtd"
   xmlns="http://www.w3.org/2000/svg"
   xmlns:svg="http://www.w3.org/2000/svg">
  <defs
     id="defs103" />
  <sodipodi:namedview
     id="namedview101"
     pagecolor="#ffffff"
     bordercolor="#000000"
     borderopacity="0.25"
     inkscape:showpageshadow="2"
     inkscape:pageopacity="0.0"
     inkscape:pagecheckerboard="0"
     inkscape:deskcolor="#d1d1d1"
     showgrid="false"
     inkscape:zoom="1.51375"
     inkscape:cx="281.75062"
     inkscape:cy="197.1924"
     inkscape:window-width="3440"
     inkscape:window-height="1440"
     inkscape:window-x="0"
     inkscape:window-y="-20"
     inkscape:window-maximized="1"
     inkscape:current-layer="g97" />
  <g
     fill="#142533"
     fill-rule="nonzero"
     transform="matrix(4.064396,0,0,4.064396,150.76057,144.17188)"
     id="g97"
     style="display:inline">
    <g
       id="g1098"
       transform="translate(-57.07458,-2.3500645)"
       style="fill:#ffffff">
      <g
         id="g269"
         transform="matrix(2.2125279,0,0,2.2125279,29.426751,-33.121843)"
         style="fill:#ffffff">
        <path
           d="M 16.7,0 H 7.59 v 12.29 h 12.3 V 3.18 C 19.89,1.435 18.454,0 16.71,0 16.707,0 16.703,0 16.7,0 Z"
           id="path73"
           style="fill:#ffffff" />
        <path
           d="M 4.75,0 H 3.18 C 1.436,0 0,1.436 0,3.18 v 1.57 h 4.75 z"
           id="path75"
           style="fill:#ffffff" />
        <path
           d="m 0,7.59 h 4.75 v 4.75 H 0 Z"
           id="path77"
           style="fill:#ffffff" />
        <path
           d="m 15.18,19.89 h 1.57 c 1.745,0 3.18,-1.436 3.18,-3.18 0,-0.003 0,-0.007 0,-0.01 v -1.52 h -4.75 z"
           id="path79"
           style="fill:#ffffff" />
        <path
           d="m 7.59,15.18 h 4.75 v 4.75 H 7.59 Z"
           id="path81"
           style="fill:#ffffff" />
        <path
           d="m 0,15.18 v 1.57 c 0,1.744 1.436,3.18 3.18,3.18 h 1.57 v -4.75 z"
           id="path83"
           style="fill:#ffffff" />
      </g>
      <g
         id="g277"
         transform="matrix(0.66289437,0,0,0.66289437,9.4272016,14.100517)"
         style="fill:#ffffff">
        <path
           d="m 32.03,1.27 h -1.86 v 17.39 h 9.85 V 17 h -7.99 z"
           id="path85"
           style="fill:#ffffff" />
        <path
           d="m 46,5.88 c -3.62,0 -6.17,2.69 -6.17,6.56 v 0.44 c 0.122,3.381 2.927,6.101 6.31,6.12 h 0.24 c 1.694,-0.003 3.332,-0.609 4.62,-1.71 v -0.05 l -0.84,-1.37 -0.09,0.05 c -1,0.932 -2.313,1.457 -3.68,1.47 -0.034,10e-4 -0.068,10e-4 -0.102,10e-4 -2.524,0 -4.6,-2.076 -4.6,-4.6 0,-0.05 0,-0.101 0.002,-0.151 h 9.4 v -0.1 -0.88 C 51.18,8.13 49.13,5.88 46,5.88 Z m -4.21,5.19 c 0.248,-2.068 2.027,-3.64 4.11,-3.63 1.57,0 3.29,0.94 3.43,3.63 z"
           id="path87"
           style="fill:#ffffff" />
        <path
           d="M 62,7.35 V 8 C 61.205,6.676 59.774,5.86 58.23,5.85 H 58 c -3.33,0 -5.63,2.64 -5.63,6.51 0,3.87 2.2,6.57 5.48,6.57 1.7,0.081 3.31,-0.792 4.17,-2.26 v 1.91 h 1.76 V 1.27 H 62 Z m -3.82,9.94 c -2.3,0 -3.82,-2 -3.82,-4.9 0,-2.9 1.61,-4.85 3.87,-4.85 1.87,0 3.77,1.52 3.77,4.85 0,3.61 -2,4.9 -3.86,4.9 z"
           id="path89"
           style="fill:#ffffff" />
        <path
           d="m 74.55,7.59 v 0.1 c -0.35,-0.59 -1.42,-1.86 -4,-1.86 -3.28,0 -5.44,2.5 -5.44,6.32 0,3.82 2.26,6.41 5.59,6.41 1.561,0.116 3.061,-0.659 3.87,-2 v 1.72 c 0,2.4 -1.52,3.77 -4.22,3.77 -1.164,0.007 -2.312,-0.263 -3.35,-0.79 l -0.09,-0.05 -0.69,1.52 0.1,0.05 c 1.259,0.638 2.648,0.981 4.06,1 2.89,0 6,-1.47 6,-5.54 v -12 H 74.55 Z M 70.92,17 c -2.4,0 -4,-1.86 -4,-4.75 0,-2.89 1.37,-4.61 3.72,-4.61 2.59,0 3.82,1.52 3.82,4.61 0,3.09 -1.19,4.75 -3.54,4.75 z"
           id="path91"
           style="fill:#ffffff" />
        <path
           d="m 83.76,5.88 c -3.63,0 -6.13,2.69 -6.13,6.51 v 0.44 c 0.107,3.419 2.95,6.172 6.37,6.17 h 0.25 c 1.688,-0.01 3.319,-0.62 4.6,-1.72 L 88,15.82 h -0.1 c -0.996,0.932 -2.306,1.457 -3.67,1.47 -0.034,0.001 -0.068,0.001 -0.102,0.001 -2.529,0 -4.61,-2.081 -4.61,-4.61 0,-0.047 0.001,-0.094 0.002,-0.141 H 89 v -0.1 -0.88 C 89,8.13 86.94,5.88 83.76,5.88 Z m -4.17,5.19 C 79.842,9 81.625,7.43 83.71,7.44 c 1.56,0 3.28,0.94 3.42,3.63 z"
           id="path93"
           style="fill:#ffffff" />
        <path
           d="m 96.64,6.12 c -0.25,0 -0.44,0 -0.69,-0.1 -1.766,0.051 -3.32,1.211 -3.87,2.89 V 6.12 h -1.81 v 12.49 h 1.86 V 13.37 C 92.136,12.565 92.268,11.765 92.52,11 93.11,9.09 94.43,7.87 96,7.87 c 0.196,-0.02 0.394,-0.02 0.59,0 h 0.1 V 6.12 Z"
           id="path95"
           style="fill:#ffffff" />
      </g>
    </g>
    <rect
       style="opacity:0.483325;fill:#808080;stroke-width:0.341925"
       id="rect1444"
       width="62.985989"
       height="62.985989"
       x="48.924484"
       y="-44.547691" />
  </g>
</svg>
