<?xml version="1.0" encoding="UTF-8" standalone="no"?>
<svg
   width="319.89865"
   height="315.909"
   viewBox="0 0 319.89865 315.909"
   fill="none"
   version="1.1"
   id="svg282"
   sodipodi:docname="envelope.svg"
   inkscape:version="1.2.1 (9c6d41e410, 2022-07-14, custom)"
   xmlns:inkscape="http://www.inkscape.org/namespaces/inkscape"
   xmlns:sodipodi="http://sodipodi.sourceforge.net/DTD/sodipodi-0.dtd"
   xmlns="http://www.w3.org/2000/svg"
   xmlns:svg="http://www.w3.org/2000/svg">
  <defs
     id="defs286" />
  <sodipodi:namedview
     id="namedview284"
     pagecolor="#ffffff"
     bordercolor="#000000"
     borderopacity="0.25"
     inkscape:showpageshadow="2"
     inkscape:pageopacity="0.0"
     inkscape:pagecheckerboard="0"
     inkscape:deskcolor="#d1d1d1"
     showgrid="false"
     inkscape:zoom="2.3883721"
     inkscape:cx="250.1704"
     inkscape:cy="94.834469"
     inkscape:window-width="3440"
     inkscape:window-height="1420"
     inkscape:window-x="0"
     inkscape:window-y="20"
     inkscape:window-maximized="1"
     inkscape:current-layer="svg282" />
  <path
     d="m 319.89867,149.016 c -0.058,-1.03 -0.384,-2.032 -0.951,-2.925 -0.567,-0.893 -1.359,-1.65 -2.31,-2.211 l -160.777,-84.453 c -1.011,-0.467 -2.128,-0.711 -3.261,-0.711 -1.134,0 -2.251,0.244 -3.262,0.711 l -3.675,1.929 c -0.947,0.563 -1.735,1.322 -2.299,2.214 -0.565,0.893 -0.89,1.893 -0.95,2.921 v 116.272 c 0.063,1.028 0.389,2.027 0.953,2.919 0.565,0.892 1.351,1.651 2.296,2.217 l 160.789,84.51 c 1.01,0.462 2.125,0.702 3.255,0.702 1.131,0 2.246,-0.24 3.256,-0.702 l 3.675,-1.929 c 0.947,-0.564 1.736,-1.322 2.302,-2.214 0.567,-0.892 0.895,-1.893 0.959,-2.921 z"
     fill="#5a50d8"
     id="path170" />
  <g
     opacity="0.7"
     id="g174"
     transform="translate(-3.3367e-4,-113.337)">
    <path
       opacity="0.7"
       d="m 319.899,262.353 c -0.058,-1.03 -0.384,-2.032 -0.951,-2.925 -0.567,-0.893 -1.359,-1.65 -2.31,-2.211 L 155.861,172.764 c -1.011,-0.467 -2.128,-0.711 -3.261,-0.711 -1.134,0 -2.251,0.244 -3.262,0.711 l -3.675,1.929 c -0.947,0.563 -1.735,1.322 -2.299,2.214 -0.565,0.893 -0.89,1.893 -0.95,2.921 V 296.1 c 0.063,1.028 0.389,2.027 0.953,2.919 0.565,0.892 1.351,1.651 2.296,2.217 l 160.789,84.51 c 1.01,0.462 2.125,0.702 3.255,0.702 1.131,0 2.246,-0.24 3.256,-0.702 l 3.675,-1.929 c 0.947,-0.564 1.736,-1.322 2.302,-2.214 0.567,-0.892 0.895,-1.893 0.959,-2.921 z"
       fill="#ffffff"
       id="path172" />
  </g>
  <path
     d="m 318.94767,146.094 -9.245,4.851 -166.334,-87.387 c 0.552,-0.899 1.341,-1.66 2.296,-2.214 l 3.688,-1.917 c 1.004,-0.472 2.118,-0.719 3.249,-0.719 1.13,0 2.244,0.247 3.249,0.719 l 160.789,84.453 c 0.968,0.544 1.763,1.307 2.308,2.214 z"
     fill="#5a50d8"
     id="path176" />
  <path
     opacity="0.8"
     d="m 318.94767,146.094 -9.245,4.851 -166.334,-87.387 c 0.552,-0.899 1.341,-1.66 2.296,-2.214 l 3.688,-1.917 c 1.004,-0.472 2.118,-0.719 3.249,-0.719 1.13,0 2.244,0.247 3.249,0.719 l 160.789,84.453 c 0.968,0.544 1.763,1.307 2.308,2.214 z"
     fill="#ffffff"
     id="path178" />
  <path
     opacity="0.1"
     d="m 319.89867,149.005 v 116.271 c -0.058,1.03 -0.384,2.033 -0.951,2.925 -0.567,0.893 -1.359,1.651 -2.31,2.211 l -3.675,1.94 c -0.285,0.144 -0.583,0.267 -0.891,0.365 -0.437,0.13 -0.886,0.222 -1.342,0.274 -0.857,0.099 -1.725,0.072 -2.572,-0.08 l -0.64,-0.148 -0.401,-0.126 c 0.253,0.092 0.525,0.135 0.797,0.125 0.272,-0.01 0.539,-0.072 0.784,-0.182 0.349,-0.206 0.628,-0.497 0.806,-0.839 0.177,-0.343 0.245,-0.724 0.197,-1.101 V 154.369 c 0.034,-0.528 -0.11,-1.052 -0.412,-1.503 -0.303,-0.451 -0.75,-0.806 -1.281,-1.02 l 1.693,-0.901 9.245,-4.851 c 0.585,0.881 0.913,1.882 0.953,2.911 z"
     fill="#5a50d8"
     id="path180" />
  <path
     opacity="0.05"
     d="m 319.89867,149.005 v 116.271 c -0.058,1.03 -0.384,2.033 -0.951,2.925 -0.567,0.893 -1.359,1.651 -2.31,2.211 l -3.675,1.94 c -0.285,0.144 -0.583,0.267 -0.891,0.365 -0.437,0.13 -0.886,0.222 -1.342,0.274 -0.857,0.099 -1.725,0.072 -2.572,-0.08 l -0.64,-0.148 -0.401,-0.126 c 0.253,0.092 0.525,0.135 0.797,0.125 0.272,-0.01 0.539,-0.072 0.784,-0.182 0.349,-0.206 0.628,-0.497 0.806,-0.839 0.177,-0.343 0.245,-0.724 0.197,-1.101 V 154.369 c 0.034,-0.528 -0.11,-1.052 -0.412,-1.503 -0.303,-0.451 -0.75,-0.806 -1.281,-1.02 l 1.693,-0.901 9.245,-4.851 c 0.585,0.881 0.913,1.882 0.953,2.911 z"
     fill="#000000"
     id="path182" />
  <path
     opacity="0.2"
     d="m 309.70067,150.945 -77.208,26.249 c -2.672,0.908 -5.604,0.961 -8.313,0.15 -2.709,-0.811 -5.033,-2.438 -6.59,-4.612 l -12.393,-17.291 -61.83,-91.882 59.358,92.522 -60.311,26.717 c 0.056,1.051 0.406,2.072 1.016,2.967 l 59.484,-29.399 14.4,20.976 c 1.6,2.332 4.07,4.06 6.957,4.867 2.888,0.807 5.999,0.639 8.761,-0.473 l 10.273,-4.12 65.418,94.965 c 0.349,-0.207 0.628,-0.497 0.806,-0.84 0.177,-0.343 0.245,-0.724 0.197,-1.101 v -1.94 l -66.094,-91.209 z"
     fill="#5a50d8"
     id="path184" />
  <path
     opacity="0.05"
     d="m 309.70067,150.945 -77.208,26.249 c -2.672,0.908 -5.604,0.961 -8.313,0.15 -2.709,-0.811 -5.033,-2.438 -6.59,-4.612 l -12.393,-17.291 -61.83,-91.882 59.358,92.522 -60.311,26.717 c 0.056,1.051 0.406,2.072 1.016,2.967 l 59.484,-29.399 14.4,20.976 c 1.6,2.332 4.07,4.06 6.957,4.867 2.888,0.807 5.999,0.639 8.761,-0.473 l 10.273,-4.12 65.418,94.965 c 0.349,-0.207 0.628,-0.497 0.806,-0.84 0.177,-0.343 0.245,-0.724 0.197,-1.101 v -1.94 l -66.094,-91.209 z"
     fill="#000000"
     id="path186" />
  <path
     d="m 279.13067,170.449 c -0.06,-1.028 -0.385,-2.029 -0.949,-2.921 -0.565,-0.892 -1.353,-1.651 -2.3,-2.215 L 115.09267,80.86 c -1.008,-0.467 -2.124,-0.71 -3.255,-0.71 -1.132,0 -2.247,0.243 -3.255,0.71 l -3.676,1.929 c -0.949,0.562 -1.739,1.32 -2.306,2.213 -0.567,0.892 -0.894,1.893 -0.955,2.923 v 116.271 c 0.063,1.029 0.391,2.03 0.958,2.922 0.566,0.892 1.355,1.65 2.303,2.214 l 160.777,84.453 c 1.012,0.462 2.129,0.703 3.262,0.703 1.132,0 2.249,-0.241 3.261,-0.703 l 3.713,-1.974 c 0.944,-0.567 1.729,-1.327 2.293,-2.218 0.564,-0.892 0.891,-1.891 0.956,-2.918 z"
     fill="#5a50d8"
     id="path188" />
  <g
     opacity="0.5"
     id="g192"
     transform="translate(-3.3367e-4,-113.337)">
    <path
       opacity="0.5"
       d="m 279.131,283.786 c -0.06,-1.028 -0.385,-2.029 -0.949,-2.921 -0.565,-0.892 -1.353,-1.651 -2.3,-2.214 L 115.093,194.197 c -1.008,-0.467 -2.124,-0.71 -3.255,-0.71 -1.132,0 -2.247,0.243 -3.255,0.71 l -3.676,1.929 c -0.949,0.562 -1.739,1.32 -2.306,2.213 -0.567,0.892 -0.894,1.894 -0.955,2.923 v 116.271 c 0.063,1.029 0.391,2.03 0.958,2.922 0.566,0.892 1.355,1.65 2.303,2.214 l 160.777,84.453 c 1.012,0.462 2.129,0.703 3.262,0.703 1.132,0 2.249,-0.241 3.261,-0.703 l 3.713,-1.974 c 0.944,-0.567 1.729,-1.326 2.293,-2.218 0.564,-0.892 0.891,-1.891 0.956,-2.918 z"
       fill="#ffffff"
       id="path190" />
  </g>
  <path
     d="m 278.19167,167.527 -9.257,4.851 -166.334,-87.375 c 0.551,-0.9 1.34,-1.661 2.295,-2.214 l 3.688,-1.918 c 1.007,-0.472 2.123,-0.718 3.256,-0.718 1.132,0 2.248,0.246 3.255,0.718 l 160.827,84.442 c 0.953,0.549 1.735,1.311 2.27,2.214 z"
     fill="#5a50d8"
     id="path194" />
  <path
     opacity="0.6"
     d="m 278.19167,167.527 -9.257,4.851 -166.334,-87.375 c 0.551,-0.9 1.34,-1.661 2.295,-2.214 l 3.688,-1.918 c 1.007,-0.472 2.123,-0.718 3.256,-0.718 1.132,0 2.248,0.246 3.255,0.718 l 160.827,84.442 c 0.953,0.549 1.735,1.311 2.27,2.214 z"
     fill="#ffffff"
     id="path196" />
  <path
     opacity="0.1"
     d="m 279.14467,170.438 v 116.271 c -0.061,1.021 -0.385,2.014 -0.945,2.9 -0.56,0.886 -1.34,1.641 -2.279,2.202 l -3.663,1.94 c -0.29,0.144 -0.592,0.266 -0.903,0.365 -0.437,0.131 -0.886,0.223 -1.343,0.274 -0.856,0.099 -1.724,0.072 -2.571,-0.08 l -0.627,-0.16 c -0.135,-0.033 -0.265,-0.079 -0.389,-0.136 0.245,0.097 0.51,0.147 0.778,0.147 0.267,0 0.532,-0.05 0.777,-0.147 0.349,-0.21 0.627,-0.503 0.804,-0.848 0.177,-0.344 0.246,-0.726 0.2,-1.104 v -116.26 c 0.034,-0.528 -0.11,-1.052 -0.413,-1.503 -0.302,-0.45 -0.749,-0.806 -1.281,-1.019 l 1.694,-0.902 9.257,-4.85 c 0.562,0.886 0.873,1.887 0.904,2.91 z"
     fill="#000000"
     id="path198" />
  <path
     opacity="0.4"
     d="m 268.93067,172.378 -77.208,26.249 c -2.672,0.908 -5.604,0.961 -8.313,0.15 -2.709,-0.811 -5.033,-2.438 -6.59,-4.613 l -12.406,-17.278 -61.829,-91.883 59.358,92.522 -60.312,26.717 c 0.057,1.051 0.407,2.072 1.017,2.967 l 59.496,-29.41 14.413,20.976 c 1.599,2.329 4.067,4.055 6.952,4.862 2.884,0.807 5.992,0.641 8.753,-0.468 l 10.261,-4.12 65.405,94.976 c 0.348,-0.21 0.626,-0.503 0.803,-0.847 0.177,-0.345 0.247,-0.727 0.2,-1.105 v -1.94 l -66.094,-91.209 z"
     fill="#5a50d8"
     id="path200" />
  <path
     opacity="0.05"
     d="m 268.93067,172.378 -77.208,26.249 c -2.672,0.908 -5.604,0.961 -8.313,0.15 -2.709,-0.811 -5.033,-2.438 -6.59,-4.613 l -12.406,-17.278 -61.829,-91.883 59.358,92.522 -60.312,26.717 c 0.057,1.051 0.407,2.072 1.017,2.967 l 59.496,-29.41 14.413,20.976 c 1.599,2.329 4.067,4.055 6.952,4.862 2.884,0.807 5.992,0.641 8.753,-0.468 l 10.261,-4.12 65.405,94.976 c 0.348,-0.21 0.626,-0.503 0.803,-0.847 0.177,-0.345 0.247,-0.727 0.2,-1.105 v -1.94 l -66.094,-91.209 z"
     fill="#000000"
     id="path202" />
  <path
     d="m 238.03667,192.818 -167.312304,-87.877 -6.6986,3.515 c -0.9138,0.544 -1.6746,1.276 -2.2214,2.136 -0.5468,0.86 -0.8643,1.825 -0.9271,2.817 v 112.3 c 0.0608,0.992 0.3775,1.958 0.9245,2.818 0.547,0.861 1.3088,1.592 2.224,2.135 l 161.014904,84.567 c 0.973,0.447 2.047,0.679 3.136,0.679 1.09,0 2.164,-0.232 3.137,-0.679 l 3.549,-1.86 c 0.914,-0.544 1.675,-1.276 2.222,-2.136 0.547,-0.86 0.864,-1.825 0.927,-2.817 z"
     fill="#5a50d8"
     id="path204" />
  <path
     opacity="0.2"
     d="m 238.03667,192.818 -167.312304,-87.877 -6.6986,3.515 c -0.9138,0.544 -1.6746,1.276 -2.2214,2.136 -0.5468,0.86 -0.8643,1.825 -0.9271,2.817 v 112.3 c 0.0608,0.992 0.3775,1.958 0.9245,2.818 0.547,0.861 1.3088,1.592 2.224,2.135 l 161.014904,84.567 c 0.973,0.447 2.047,0.679 3.136,0.679 1.09,0 2.164,-0.232 3.137,-0.679 l 3.549,-1.86 c 0.914,-0.544 1.675,-1.276 2.222,-2.136 0.547,-0.86 0.864,-1.825 0.927,-2.817 z"
     fill="#000000"
     id="path206" />
  <path
     d="m 71.640066,95.057 -0.6774,-0.342 2.5966,-1.369 c 0.2186,-0.12 0.4497,-0.219 0.6899,-0.297 L 147.88267,68.215 c 1.013,-0.301 2.105,-0.304 3.12,-0.009 1.015,0.295 1.903,0.873 2.537,1.652 l 82.365,109.436 c 1.288,1.884 2.022,4.037 2.132,6.254 v 7.258 l -2.509,1.359 -164.753204,-89.236 v -7.27 c 0.0134,-0.924 0.3135,-1.826 0.8656,-2.602 z"
     fill="#5a50d8"
     id="path208" />
  <path
     opacity="0.1"
     d="m 150.13067,70.406 c 0.327,0.233 0.615,0.51 0.853,0.822 l 82.376,109.435 c 0.677,0.968 1.193,2.022 1.531,3.127 l 2.508,-1.346 c -0.185,-0.563 -0.407,-1.116 -0.664,-1.655 -0.113,-0.229 -0.226,-0.445 -0.352,-0.662 l -0.062,-0.103 c -0.131,-0.229 -0.277,-0.45 -0.439,-0.662 l -82.365,-109.435 c -0.124,-0.163 -0.262,-0.315 -0.414,-0.457 l -0.439,-0.365 z"
     fill="#000000"
     id="path210" />
  <path
     opacity="0.35"
     d="m 70.987166,94.704 c 0.2227,-0.124 0.4579,-0.227 0.7025,-0.309 L 145.33567,69.562 c 0.81,-0.245 1.675,-0.299 2.513,-0.155 0.839,0.144 1.623,0.48 2.279,0.976 l 2.509,-1.346 c -0.662,-0.492 -1.448,-0.825 -2.287,-0.968 -0.84,-0.144 -1.705,-0.094 -2.518,0.146 L 74.198466,93.037 c -0.2405,0.082 -0.4716,0.185 -0.6899,0.308 z"
     fill="#ffffff"
     id="path212" />
  <path
     d="m 236.34467,179.967 c -0.134,-0.227 -0.28,-0.448 -0.439,-0.662 0.159,0.214 0.305,0.435 0.439,0.662 z"
     fill="#5a50d8"
     id="path214" />
  <path
     d="m 153.12467,69.402 -0.439,-0.365 z"
     fill="#5a50d8"
     id="path216" />
  <path
     d="m 237.44867,182.421 c -0.185,-0.563 -0.407,-1.116 -0.665,-1.655 0.258,0.539 0.48,1.092 0.665,1.655 z"
     fill="#5a50d8"
     id="path218" />
  <path
     d="m 236.75767,180.721 c -0.113,-0.229 -0.226,-0.446 -0.351,-0.662 0.125,0.216 0.238,0.433 0.351,0.662 z"
     fill="#5a50d8"
     id="path220" />
  <path
     opacity="0.2"
     d="m 236.40567,180.058 c -0.016,-0.036 -0.037,-0.071 -0.062,-0.102 0.025,0.031 0.046,0.066 0.062,0.102 z"
     fill="#000000"
     id="path222" />
  <path
     opacity="0.2"
     d="m 153.54267,69.858 c -0.127,-0.16 -0.266,-0.312 -0.414,-0.456 0.154,0.139 0.293,0.292 0.414,0.456 z"
     fill="#000000"
     id="path224" />
  <path
     d="m 150.98267,71.205 82.377,109.435 c 1.278,1.888 2.008,4.04 2.119,6.255 v 7.269 L 68.166766,106.287 v -7.258 c 0.0595,-0.985 0.4213,-1.935 1.0444,-2.742 0.6231,-0.807 1.4825,-1.438 2.4804,-1.823 L 145.33767,69.573 c 1.01,-0.308 2.101,-0.316 3.115,-0.023 1.015,0.294 1.901,0.873 2.53,1.655 z"
     fill="#5a50d8"
     id="path226" />
  <path
     opacity="0.05"
     d="m 68.166566,99.006 c 0.0335,-0.91 0.3416,-1.795 0.8906,-2.556 l 165.832504,87.318 c 0.352,1.004 0.546,2.05 0.577,3.104 v 7.27 L 68.153966,106.265 Z"
     fill="#000000"
     id="path228" />
  <path
     d="m 75.314966,68.124 c -0.0335,-0.305 0.0206,-0.613 0.1569,-0.893 0.1363,-0.28 0.3503,-0.523 0.6209,-0.705 l 5.1179,-2.682 c 0.3092,-0.127 0.6496,-0.176 0.9867,-0.144 0.3371,0.032 0.6589,0.145 0.9326,0.327 l 137.231704,72.116 c 0.792,0.468 1.452,1.099 1.925,1.843 0.473,0.744 0.746,1.579 0.797,2.437 v 149.505 c 0.037,0.306 -0.016,0.616 -0.155,0.897 -0.139,0.281 -0.358,0.523 -0.635,0.701 l -5.093,2.682 c -0.309,0.125 -0.648,0.176 -0.985,0.146 -0.336,-0.03 -0.658,-0.14 -0.934,-0.318 L 78.024466,221.966 c -0.7884,-0.471 -1.4443,-1.103 -1.9149,-1.847 -0.4706,-0.743 -0.7428,-1.577 -0.7946,-2.433 z"
     fill="#f0f0f0"
     id="path230" />
  <path
     d="M 215.27167,294.093 78.027166,221.966 c -0.7884,-0.471 -1.4443,-1.103 -1.9149,-1.847 -0.4706,-0.743 -0.7428,-1.577 -0.7946,-2.433 V 68.124 c 0,-1.575 1.2544,-2.214 2.7095,-1.427 l 137.244504,72.116 c 0.788,0.471 1.444,1.103 1.915,1.847 0.471,0.743 0.743,1.577 0.794,2.433 v 149.505 c 0,1.609 -1.216,2.249 -2.709,1.495 z"
     fill="#fafafa"
     id="path232" />
  <path
     d="m 127.31067,152.577 c 0.131,1.689 0.477,3.359 1.029,4.976 0.494,1.453 1.159,2.853 1.982,4.177 0.712,1.158 1.58,2.232 2.584,3.195 0.83,0.805 1.801,1.48 2.873,1.998 1.166,0.697 2.563,1.003 3.951,0.867 0.807,-0.151 1.531,-0.555 2.045,-1.141 0.301,0.593 0.614,1.187 0.94,1.78 0.352,0.634 0.772,1.234 1.255,1.792 0.542,0.635 1.16,1.213 1.844,1.723 0.828,0.626 1.733,1.162 2.697,1.598 1.027,0.552 2.23,0.77 3.412,0.616 1.037,-0.213 1.94,-0.791 2.509,-1.609 0.778,-1.1 1.295,-2.337 1.517,-3.629 0.332,-1.802 0.446,-3.631 0.339,-5.456 -0.084,-2.01 -0.356,-4.011 -0.815,-5.98 -0.417,-1.771 -1.018,-3.502 -1.794,-5.17 -0.683,-1.461 -1.587,-2.828 -2.685,-4.063 -0.945,-1.084 -2.128,-1.978 -3.474,-2.624 -0.447,-0.287 -0.953,-0.488 -1.488,-0.592 -0.534,-0.104 -1.087,-0.109 -1.623,-0.013 -0.686,0.279 -1.25,0.756 -1.606,1.358 v -0.616 c -0.028,-0.521 -0.187,-1.028 -0.464,-1.484 -0.218,-0.421 -0.567,-0.774 -1.003,-1.016 l -2.685,-1.244 c -0.146,-0.088 -0.321,-0.127 -0.495,-0.11 -0.174,0.017 -0.336,0.088 -0.458,0.201 -0.144,0.158 -0.251,0.34 -0.313,0.537 -0.063,0.196 -0.08,0.402 -0.051,0.605 l 0.602,14.505 c 0.05,1.096 -0.175,1.815 -0.677,2.157 -0.264,0.166 -0.577,0.254 -0.897,0.254 -0.32,0 -0.633,-0.088 -0.897,-0.254 -0.788,-0.405 -1.422,-1.018 -1.819,-1.757 -0.604,-1.094 -0.942,-2.293 -0.991,-3.515 -0.125,-1.267 -0.213,-2.568 -0.276,-3.915 -0.063,-1.347 -0.063,-2.591 0,-3.732 0.032,-2.048 0.369,-4.083 1.004,-6.049 0.394,-1.385 1.275,-2.616 2.508,-3.503 1.234,-0.753 2.737,-1.05 4.203,-0.833 2.147,0.305 4.219,0.95 6.121,1.905 2.005,0.943 3.834,2.168 5.419,3.63 1.627,1.518 3.042,3.212 4.215,5.044 1.217,1.933 2.201,3.981 2.935,6.106 0.77,2.193 1.312,4.448 1.619,6.733 0.087,0.628 0.163,1.427 0.225,2.42 0.063,0.993 0.113,2.02 0.163,3.093 0.051,1.072 0.088,2.111 0.113,3.115 0.025,1.005 0,1.792 0,2.397 -0.056,1.842 -0.419,3.666 -1.078,5.409 -0.476,1.349 -1.343,2.555 -2.509,3.493 -1.106,0.834 -2.503,1.279 -3.939,1.255 -1.863,-0.057 -3.684,-0.523 -5.306,-1.358 -1.273,-0.586 -2.501,-1.249 -3.676,-1.986 -0.967,-0.609 -1.885,-1.28 -2.747,-2.008 -0.718,-0.627 -1.396,-1.29 -2.032,-1.986 -0.564,-0.651 -1.079,-1.278 -1.543,-1.895 -0.464,-0.616 -0.702,-0.947 -0.941,-1.209 -0.243,-0.284 -0.557,-0.51 -0.915,-0.662 l -3.764,-1.781 c -0.141,-0.096 -0.312,-0.148 -0.489,-0.148 -0.176,0 -0.348,0.052 -0.489,0.148 -0.276,0.206 -0.389,0.605 -0.326,1.221 0.042,0.403 0.179,0.792 0.401,1.142 0.765,1.289 1.631,2.659 2.584,4.085 0.998,1.484 2.131,2.889 3.387,4.2 1.417,1.458 2.965,2.806 4.629,4.029 1.943,1.415 4.045,2.639 6.272,3.652 2.378,1.247 5.07,1.912 7.815,1.929 2.06,-0.055 4.028,-0.785 5.544,-2.055 1.599,-1.441 2.762,-3.233 3.375,-5.204 0.813,-2.431 1.236,-4.957 1.254,-7.498 0,-0.616 0,-1.461 0,-2.533 0,-1.062 -0.063,-2.18 -0.113,-3.344 -0.05,-1.164 -0.113,-2.283 -0.175,-3.333 -0.063,-1.05 -0.126,-1.894 -0.189,-2.499 -0.315,-3.026 -0.962,-6.016 -1.931,-8.925 -0.98,-3.014 -2.317,-5.923 -3.989,-8.673 -1.653,-2.731 -3.676,-5.261 -6.022,-7.533 -2.288,-2.245 -4.993,-4.107 -7.99,-5.501 -2.704,-1.418 -5.729,-2.253 -8.844,-2.442 -2.126,-0.078 -4.204,0.588 -5.807,1.86 -1.608,1.446 -2.719,3.286 -3.199,5.296 -0.701,2.558 -1.072,5.181 -1.104,7.817 0,1.142 0,2.523 0.088,4.098 0.088,1.574 0.062,3.149 0.175,4.462 z m 23.558,8.354 c 0.219,1.615 -0.041,3.254 -0.753,4.748 -0.589,0.935 -1.492,1.141 -2.697,0.559 -1.37,-0.69 -2.418,-1.809 -2.947,-3.15 -0.758,-1.825 -1.157,-3.756 -1.18,-5.706 -0.209,-1.629 0.041,-3.278 0.728,-4.794 0.577,-0.958 1.505,-1.141 2.772,-0.548 1.346,0.709 2.366,1.835 2.873,3.173 0.756,1.814 1.163,3.733 1.204,5.672 z"
     fill="#5a50d8"
     id="path234" />
  <path
     d="m 217.99167,292.632 c 0.025,0.279 -0.02,0.559 -0.131,0.82 -0.11,0.261 -0.284,0.496 -0.509,0.687 l 4.93,-2.579 c 0.279,-0.177 0.501,-0.418 0.642,-0.699 0.141,-0.281 0.197,-0.592 0.161,-0.899 V 140.457 c -0.031,-0.86 -0.308,-1.698 -0.803,-2.431 l -5.093,2.67 c 0.496,0.737 0.773,1.579 0.803,2.443 z"
     fill="#e0e0e0"
     id="path236" />
  <path
     d="m 65.118966,227.193 c 0.0499,0.081 0.1087,0.157 0.1756,0.228 l 69.732104,-20.064 c 2.648,-1.063 5.628,-1.221 8.393,-0.445 2.765,0.776 5.13,2.433 6.66,4.668 l 74.549,100.773 2.76,1.45 c 0.307,0.195 0.663,0.317 1.036,0.355 0.372,0.038 0.749,-0.01 1.096,-0.138 l -76.656,-103.855 c -1.535,-2.23 -3.899,-3.884 -6.662,-4.661 -2.763,-0.777 -5.741,-0.625 -8.391,0.427 z"
     fill="#5a50d8"
     id="path238" />
  <path
     opacity="0.4"
     d="m 156.95367,221.418 -0.175,-0.137 67.85,91.072 2.76,1.45 c 0.309,0.192 0.665,0.313 1.037,0.35 0.371,0.038 0.748,-0.008 1.095,-0.133 l -69.882,-94.109 z"
     fill="#ffffff"
     id="path240" />
  <path
     opacity="0.4"
     d="m 65.119066,227.192 c 0.0499,0.082 0.1087,0.158 0.1756,0.229 l 69.732004,-20.064 c 2.647,-1.065 5.628,-1.225 8.394,-0.449 2.766,0.776 5.131,2.435 6.659,4.672 l 2.76,-1.461 c -1.537,-2.227 -3.904,-3.877 -6.668,-4.648 -2.763,-0.771 -5.74,-0.612 -8.385,0.448 z"
     fill="#ffffff"
     id="path242" />
  <path
     d="m 60.939566,112.69 c 0.1505,-0.822 0.6272,-1.05 1.2544,-0.662 0.3101,0.21 0.5811,0.465 0.8028,0.753 l 0.3513,0.445 68.803604,95.159 10.274,13.021 c 0.661,0.759 1.538,1.34 2.534,1.68 0.997,0.339 2.077,0.426 3.123,0.249 l 8.869,-1.917 67.738,-22.666 c 0.455,-0.084 0.924,-0.084 1.38,0 0.176,0.033 0.349,0.083 0.514,0.149 l -2.509,-1.347 -64.903,21.684 -8.542,2.773 c -1.047,0.179 -2.127,0.094 -3.125,-0.246 -0.997,-0.34 -1.873,-0.922 -2.533,-1.682 l -10.273,-13.011 -69.142904,-95.603 c -0.2108,-0.261 -0.4749,-0.482 -0.7777,-0.651 l 5.9835,-3.138 -2.5088,-1.313 -4.1396,2.169 c -0.8062,0.465 -1.5021,1.072 -2.0471,1.786 -0.545,0.713 -0.9279,1.518 -1.1265,2.368 z"
     fill="#5a50d8"
     id="path244" />
  <path
     opacity="0.4"
     d="m 132.15267,208.385 10.273,13.021 c 0.662,0.759 1.538,1.34 2.534,1.68 0.997,0.339 2.077,0.426 3.124,0.249 l 8.868,-1.917 -0.175,-0.137 -0.427,-0.616 -5.808,1.255 c -1.047,0.179 -2.127,0.094 -3.124,-0.246 -0.998,-0.34 -1.874,-0.922 -2.533,-1.683 l -10.173,-12.873 z"
     fill="#ffffff"
     id="path246" />
  <path
     opacity="0.1"
     d="m 64.026866,108.433 4.1396,-2.168 2.5088,1.312 -5.9836,3.139 c 0.3049,0.166 0.5695,0.388 0.7778,0.65 l 69.143204,95.604 0.1,0.125 -2.509,1.267 -68.804004,-95.17 -0.3512,-0.445 c -0.2217,-0.288 -0.4928,-0.543 -0.8028,-0.753 -0.6147,-0.388 -1.0914,-0.16 -1.2544,0.662 0.1727,-0.852 0.5301,-1.664 1.0512,-2.389 0.5212,-0.725 1.1958,-1.349 1.9844,-1.834 z"
     fill="#000000"
     id="path248" />
  <path
     d="m 223.23467,200.567 14.764,-7.749 v 115.598 c -0.063,0.992 -0.38,1.957 -0.927,2.817 -0.547,0.86 -1.308,1.592 -2.222,2.136 l -3.55,1.861 c -0.972,0.446 -2.046,0.679 -3.136,0.679 -1.089,0 -2.163,-0.233 -3.136,-0.679 l -1.768,-0.925 z"
     fill="#5a50d8"
     id="path250" />
  <path
     opacity="0.15"
     d="m 223.23467,200.567 14.764,-7.749 v 115.598 c -0.063,0.992 -0.38,1.957 -0.927,2.817 -0.547,0.86 -1.308,1.592 -2.222,2.136 l -3.55,1.861 c -0.972,0.446 -2.046,0.679 -3.136,0.679 -1.089,0 -2.163,-0.233 -3.136,-0.679 l -1.768,-0.925 z"
     fill="#000000"
     id="path252" />
  <path
     d="m 60.879666,113.409 v 112.289 c 0.0395,1.027 0.377,2.027 0.9784,2.898 0.4677,0.735 1.0951,1.376 1.844,1.883 l 0.1254,0.058 c 0.0639,0.045 0.1309,0.087 0.2007,0.125 L 225.04367,315.23 c 0.307,0.199 0.665,0.324 1.04,0.364 0.375,0.04 0.755,-0.007 1.105,-0.136 0.267,-0.142 0.492,-0.341 0.656,-0.579 0.164,-0.239 0.262,-0.51 0.285,-0.791 0.013,-0.171 0.013,-0.342 0,-0.513 v -112.3 c 0.028,-0.403 -0.052,-0.805 -0.233,-1.173 -0.181,-0.367 -0.457,-0.69 -0.805,-0.939 -0.348,-0.249 -0.757,-0.418 -1.193,-0.491 -0.435,-0.074 -0.884,-0.05 -1.307,0.069 l -67.738,22.665 -8.868,1.918 c -1.047,0.176 -2.127,0.09 -3.123,-0.25 -0.997,-0.34 -1.873,-0.92 -2.535,-1.679 l -10.273,-13.022 -68.804204,-95.158 -0.3513,-0.445 c -1.0662,-1.461 -2.0195,-1.187 -2.0195,0.639 z"
     fill="#5a50d8"
     id="path254" />
  <path
     d="m 64.025166,230.662 -0.2133,-0.126 -0.1128,-0.068 c -0.7515,-0.5 -1.3796,-1.138 -1.844,-1.872 -0.593,-0.857 -0.9303,-1.841 -0.9785,-2.853 l 71.263104,-17.347 -47.667704,32.971 z"
     fill="#5a50d8"
     id="path256" />
  <path
     opacity="0.2"
     d="m 64.025166,230.662 -0.2133,-0.126 -0.1128,-0.068 c -0.7515,-0.5 -1.3796,-1.138 -1.844,-1.872 -0.593,-0.857 -0.9303,-1.841 -0.9785,-2.853 l 71.263104,-17.347 -47.667704,32.971 z"
     fill="#000000"
     id="path258" />
  <path
     d="m 228.19167,313.575 c 0.046,0.365 -0.021,0.735 -0.194,1.068 -0.173,0.333 -0.445,0.615 -0.784,0.815 -0.349,0.131 -0.729,0.181 -1.104,0.143 -0.375,-0.038 -0.733,-0.162 -1.041,-0.36 v 0 l -55.458,-29.137 -12.669,-64.698 71.25,90.297 z"
     fill="#5a50d8"
     id="path260" />
  <path
     opacity="0.15"
     d="m 150.11767,211.511 77.096,103.947 c 0.339,-0.2 0.611,-0.482 0.784,-0.815 0.173,-0.333 0.24,-0.703 0.194,-1.069 v -1.86 l -75.264,-101.572 z"
     fill="#000000"
     id="path262" />
  <path
     d="m 61.856666,228.596 c 0.4645,0.734 1.0926,1.372 1.844,1.872 l 0.1129,0.069 161.228104,84.692 c 0.309,0.199 0.667,0.322 1.042,0.36 0.375,0.038 0.755,-0.011 1.104,-0.143 l -77.109,-103.957 c -1.544,-2.246 -3.925,-3.91 -6.709,-4.688 -2.783,-0.777 -5.781,-0.616 -8.444,0.454 z"
     fill="#5a50d8"
     id="path264" />
  <path
     opacity="0.15"
     d="m 237.44767,182.421 -2.509,1.347 c 0.355,1.012 0.554,2.064 0.589,3.127 v 7.258 l 2.509,-1.347 v -7.269 c -0.037,-1.059 -0.235,-2.107 -0.589,-3.116 z"
     fill="#000000"
     id="path266" />
  <path
     d="m 223.98867,197.508 2.559,1.347 2.584,-1.358 6.36,-3.332 -2.471,-1.336 z"
     fill="#5a50d8"
     id="path268" />
  <path
     opacity="0.1"
     d="m 223.87567,197.554 9.144,-4.725 2.509,1.336 -6.36,3.332 -2.584,1.358 -0.489,-0.137 c -0.455,-0.084 -0.924,-0.084 -1.38,0 l -5.243,1.792 -59.095,19.801 -0.928,-1.244 z"
     fill="#000000"
     id="path270" />
  <path
     d="M 63.924466,98.684 19.556166,72.835 0,78.541 Z"
     fill="#5a50d8"
     id="path272" />
  <path
     d="m 63.924466,98.685 -38.3471,-29.102 8.5174,-8.948 z"
     fill="#5a50d8"
     id="path274" />
  <path
     d="m 25.577366,69.583 v 6.756 l 38.3471,22.346 z"
     fill="#5a50d8"
     id="path276" />
  <path
     opacity="0.25"
     d="m 25.577366,69.583 v 6.756 l 38.3471,22.346 z"
     fill="#000000"
     id="path278" />
  <path
     d="m 19.177866,69.023 c 0.1891,0 0.3739,-0.051 0.5301,-0.148 0.1563,-0.097 0.2768,-0.235 0.3459,-0.395 0.069,-0.16 0.0834,-0.336 0.0413,-0.503 -0.0421,-0.168 -0.1389,-0.32 -0.2775,-0.437 -1.3146,-1.106 -2.5271,-2.309 -3.6253,-3.595 -0.0722,-0.096 -0.1651,-0.177 -0.273,-0.239 -0.1078,-0.062 -0.2284,-0.104 -0.3544,-0.122 -0.126,-0.018 -0.2547,-0.013 -0.3784,0.016 -0.1237,0.028 -0.2397,0.079 -0.341,0.15 -0.1014,0.07 -0.1859,0.159 -0.2484,0.26 -0.0626,0.101 -0.1019,0.213 -0.1156,0.328 -0.0136,0.115 -0.0013,0.232 0.0362,0.343 0.0374,0.111 0.0993,0.214 0.1819,0.302 1.1625,1.364 2.4464,2.639 3.8384,3.812 0.176,0.144 0.4032,0.225 0.6398,0.228 z m -7.0623,-8.525 c 0.1483,0.002 0.2949,-0.029 0.4265,-0.091 0.1101,-0.05 0.2082,-0.119 0.2888,-0.203 0.0805,-0.085 0.1418,-0.183 0.1803,-0.289 0.0385,-0.106 0.0534,-0.218 0.044,-0.33 -0.0095,-0.111 -0.0432,-0.22 -0.0991,-0.319 -1.0954,-1.987 -1.9372,-4.082 -2.5088,-6.243 -0.0583,-0.221 -0.2106,-0.412 -0.4235,-0.531 -0.2128597,-0.119 -0.4689097,-0.155 -0.7117697,-0.103 -0.24286,0.053 -0.45266,0.192 -0.58322,0.386 -0.13056,0.193 -0.17119,0.426 -0.11297,0.647 0.59148,2.289 1.4755597,4.507 2.6342597,6.608 0.0807,0.145 0.2049,0.266 0.3582,0.348 0.1532,0.083 0.3291,0.125 0.5073,0.12 z M 8.6785163,48.435 c 0.12358,-0.004 0.24498,-0.031 0.35728,-0.078 0.1123,-0.047 0.21329,-0.114 0.29718,-0.197 0.08388,-0.082 0.14903,-0.179 0.19171,-0.285 0.04268,-0.106 0.06204,-0.218 0.057,-0.33 0,-0.468 0,-0.925 0,-1.381 8.9e-4,-1.763 0.16451,-3.523 0.4891797,-5.261 0.0217,-0.111 0.0191,-0.225 -0.0077,-0.335 -0.0268,-0.11 -0.07719,-0.214 -0.1482797,-0.306 -0.07109,-0.093 -0.16148,-0.171 -0.26601,-0.232 -0.10454,-0.06 -0.22116,-0.101 -0.34316,-0.12 -0.24764,-0.037 -0.50108,0.017 -0.70537,0.15 -0.20429,0.132 -0.34296,0.333 -0.38595,0.557 -0.33931,1.833 -0.51133,3.688 -0.51431,5.547 0,0.479 0,0.97 0,1.449 0.00484,0.113 0.03401,0.223 0.08582,0.325 0.05181,0.103 0.12526,0.194 0.21614,0.271 0.09088,0.076 0.19737,0.135 0.31345,0.174 0.11607,0.039 0.23945,0.057 0.36302,0.052 z M 10.698066,36.098 c 0.1967,0 0.3885,-0.056 0.5482,-0.161 0.1598,-0.104 0.2795,-0.252 0.3425,-0.421 0.811,-2.104 1.8313,-4.136 3.0482,-6.072 0.1085,-0.195 0.1326,-0.421 0.0677,-0.632 -0.065,-0.211 -0.2145,-0.393 -0.419,-0.509 -0.2146,-0.101 -0.4636,-0.125 -0.6965,-0.065 -0.2329,0.059 -0.4323,0.197 -0.5579,0.385 -1.2717,2.029 -2.3341,4.161 -3.1736097,6.368 -0.04962,0.109 -0.07396,0.226 -0.07147,0.344 0.00249,0.118 0.03172,0.234 0.0859,0.341 0.05419,0.107 0.1321797,0.203 0.2289797,0.282 0.0968,0.078 0.2104,0.138 0.3336,0.174 0.0931,-0.002 0.1857,-0.013 0.276,-0.034 z m 6.5982,-10.968 c 0.1429,0 0.2838,-0.03 0.412,-0.087 0.1283,-0.058 0.2405,-0.141 0.3281,-0.244 1.505,-1.771 3.1573,-3.434 4.9424,-4.975 0.1147,-0.068 0.2118,-0.158 0.2845,-0.263 0.0727,-0.106 0.1193,-0.224 0.1365,-0.348 0.0173,-0.123 0.0047,-0.248 -0.0367,-0.367 -0.0415,-0.118 -0.1109,-0.227 -0.2033,-0.319 -0.0925,-0.092 -0.2058,-0.164 -0.332,-0.212 -0.1263,-0.047 -0.2625,-0.07 -0.3992,-0.065 -0.1366,0.005 -0.2704,0.037 -0.392,0.094 -0.1217,0.057 -0.2282,0.137 -0.3123,0.236 -1.8552,1.602 -3.5745,3.331 -5.143,5.17 -0.1322,0.176 -0.1874,0.39 -0.1549,0.601 0.0325,0.211 0.1503,0.404 0.3305,0.54 0.149,0.134 0.3435,0.219 0.552,0.239 z m 9.822,-8.764 c 0.2037,0 0.402,-0.06 0.5645,-0.172 1.9763,-1.35 4.0415,-2.588 6.1842,-3.709 0.2046,-0.116 0.3533,-0.298 0.4161,-0.51 0.0629,-0.211 0.0352,-0.437 -0.0774,-0.631 -0.1232,-0.19 -0.3236,-0.329 -0.5581,-0.387 -0.2345,-0.058 -0.4845,-0.029 -0.6963,0.079 -2.2082,1.154 -4.3363,2.431 -6.3724,3.823 -0.158,0.108 -0.2746,0.258 -0.3335,0.43 -0.0589,0.171 -0.057,0.355 0.0055,0.526 0.0624,0.17 0.1822,0.318 0.3424,0.423 0.1602,0.105 0.3526,0.162 0.5501,0.162 z m 98.583404,-3.31 c 0.208,0.001 0.411,-0.06 0.576,-0.174 0.166,-0.114 0.285,-0.275 0.34,-0.458 0.054,-0.182 0.04,-0.376 -0.039,-0.551 -0.079,-0.175 -0.22,-0.321 -0.4,-0.415 -2.183,-1.141 -4.441,-2.214 -6.736,-3.207 -0.112,-0.048 -0.234,-0.076 -0.357,-0.081 -0.124,-0.005 -0.248,0.011 -0.364,0.05 -0.117,0.038 -0.224,0.096 -0.315,0.172 -0.092,0.076 -0.166,0.168 -0.219,0.27 -0.054,0.102 -0.086,0.212 -0.093,0.325 -0.007,0.113 0.011,0.226 0.054,0.333 0.042,0.106 0.107,0.204 0.191,0.287 0.085,0.083 0.187,0.15 0.3,0.196 2.245,0.97 4.466,2.02 6.598,3.139 0.145,0.076 0.309,0.116 0.477,0.114 z M 38.947266,9.986 c 0.1388,0.002 0.2763,-0.025 0.4014,-0.08 2.2329,-0.981 4.5284,-1.883 6.8365,-2.693 0.1199,-0.04 0.2296,-0.102 0.3223,-0.182 0.0927,-0.08 0.1666,-0.177 0.2171,-0.283 0.0504,-0.107 0.0765,-0.222 0.0765,-0.339 0,-0.116 -0.026,-0.231 -0.0765,-0.338 -0.0441,-0.109 -0.1122,-0.208 -0.2001,-0.293 -0.0879,-0.084 -0.1938,-0.151 -0.3111,-0.197 -0.1174,-0.046 -0.2438,-0.07 -0.3716,-0.07 -0.1278,0 -0.2542,0.024 -0.3716,0.07 -2.3457,0.821 -4.6915,1.746 -6.9745,2.75 -0.1885,0.086 -0.3396,0.228 -0.4291,0.402 -0.0896,0.173 -0.1123,0.37 -0.0646,0.557 0.0478,0.187 0.1633,0.353 0.3279,0.474 0.1646,0.12 0.3688,0.186 0.5798,0.188 z M 113.29567,7.703 c 0.189,-0.003 0.374,-0.056 0.53,-0.153 0.156,-0.098 0.277,-0.235 0.348,-0.394 0.051,-0.107 0.077,-0.222 0.077,-0.338 0,-0.117 -0.026,-0.232 -0.077,-0.339 -0.05,-0.106 -0.124,-0.203 -0.217,-0.283 -0.093,-0.08 -0.202,-0.142 -0.322,-0.182 -2.346,-0.833 -4.767,-1.597 -7.188,-2.282 -0.239,-0.065 -0.498,-0.041 -0.718,0.067 -0.219,0.108 -0.383,0.291 -0.455,0.509 -0.071,0.218 -0.045,0.453 0.074,0.653 0.119,0.2 0.32,0.349 0.56,0.414 2.371,0.639 4.741,1.393 7.037,2.203 0.112,0.04 0.231,0.06 0.351,0.057 z M 51.829966,5.421 c 0.0912,0.016 0.1849,0.016 0.276,0 2.3583,-0.651 4.7793,-1.221 7.2003,-1.701 0.1244,-0.027 0.2417,-0.076 0.3452,-0.144 0.1036,-0.068 0.1914,-0.154 0.2584,-0.253 0.1352,-0.2 0.1776,-0.441 0.1177,-0.67 -0.0599,-0.228 -0.2171,-0.426 -0.4371,-0.549 -0.2199,-0.123 -0.4846,-0.161 -0.7358,-0.107 -2.5088,0.491 -4.9423,1.073 -7.3508,1.746 -0.1188,0.033 -0.2295,0.086 -0.3254,0.158 -0.096,0.072 -0.1754,0.16 -0.2337,0.26 -0.0583,0.1 -0.0944,0.209 -0.106,0.321 -0.0117,0.113 0.0012,0.226 0.0379,0.334 0.061,0.175 0.1812,0.327 0.3435,0.436 0.1623,0.109 0.3582,0.168 0.5597,0.169 z M 100.12467,3.926 c 0.212,0 0.418,-0.066 0.585,-0.186 0.166,-0.12 0.283,-0.288 0.331,-0.476 0.052,-0.222 0.007,-0.455 -0.127,-0.647 -0.134,-0.192 -0.345,-0.328 -0.588,-0.38 -2.446504,-0.514 -4.955304,-0.947 -7.464104,-1.278 -0.1261,-0.026 -0.2565,-0.027 -0.3833,-0.005 -0.1268,0.022 -0.2471,0.068 -0.3535,0.135 -0.1064,0.067 -0.1966,0.152 -0.2649,0.252 -0.0684,0.1 -0.1135,0.211 -0.1325,0.327 -0.019,0.117 -0.0115,0.235 0.0221,0.349 0.0335,0.113 0.0924,0.219 0.1729,0.311 0.0805,0.092 0.1809,0.167 0.295,0.223 0.1141,0.055 0.2395,0.088 0.3683,0.097 2.5088,0.331 4.9172,0.753 7.3257,1.266 z M 65.227066,2.613 h 0.138 c 2.4461,-0.331 4.9423,-0.57 7.4135,-0.719 0.131,0.004 0.2612,-0.018 0.3824,-0.063 0.1213,-0.045 0.2308,-0.113 0.3215,-0.199 0.0908,-0.086 0.1609,-0.188 0.2057,-0.3 0.0448,-0.112 0.0634,-0.232 0.0546,-0.351 -0.0087,-0.118 -0.0447,-0.234 -0.1056,-0.34 -0.0608,-0.106 -0.1453,-0.198 -0.2478,-0.272 -0.1026,-0.075 -0.2211,-0.128 -0.3479,-0.159 -0.1267,-0.03 -0.259,-0.035 -0.3883,-0.016 -2.5088,0.148 -5.0176,0.388 -7.5265,0.719 -0.2319,0.035 -0.4412,0.147 -0.5866,0.315 -0.1454,0.168 -0.2165,0.379 -0.1992,0.593 0.0173,0.213 0.1217,0.412 0.2927,0.559 0.171,0.147 0.3961,0.23 0.6311,0.233 z m 21.2245,-0.616 c 0.2495,0.009 0.4928,-0.072 0.6763,-0.226 0.1835,-0.154 0.2922,-0.369 0.3021,-0.596 0.01,-0.227 -0.0795,-0.448 -0.2489,-0.615 -0.1694,-0.167 -0.4047,-0.266 -0.6542,-0.275 C 84.018066,0.103 81.446466,0 78.925166,0 c -0.2495,0 -0.4888,0.09 -0.6653,0.251 -0.1764,0.16 -0.2755,0.378 -0.2755,0.605 0,0.227 0.0991,0.445 0.2755,0.605 0.1765,0.161 0.4158,0.251 0.6653,0.251 2.5088,0 5.0176,0.102 7.4512,0.285 z"
     fill="#5a50d8"
     id="path280" />
</svg>
