<svg width="545" height="430" viewBox="0 0 545 430" fill="none" xmlns="http://www.w3.org/2000/svg">
<path d="M319.899 262.353C319.841 261.323 319.515 260.321 318.948 259.428C318.381 258.535 317.589 257.778 316.638 257.217L155.861 172.764C154.85 172.297 153.733 172.053 152.6 172.053C151.466 172.053 150.349 172.297 149.338 172.764L145.663 174.693C144.716 175.256 143.928 176.015 143.364 176.907C142.799 177.8 142.474 178.8 142.414 179.828V296.1C142.477 297.128 142.803 298.127 143.367 299.019C143.932 299.911 144.718 300.67 145.663 301.236L306.452 385.746C307.462 386.208 308.577 386.448 309.707 386.448C310.838 386.448 311.953 386.208 312.963 385.746L316.638 383.817C317.585 383.253 318.374 382.495 318.94 381.603C319.507 380.711 319.835 379.71 319.899 378.682V262.353Z" fill="#5A50D8"/>
<g opacity="0.7">
<path opacity="0.7" d="M319.899 262.353C319.841 261.323 319.515 260.321 318.948 259.428C318.381 258.535 317.589 257.778 316.638 257.217L155.861 172.764C154.85 172.297 153.733 172.053 152.6 172.053C151.466 172.053 150.349 172.297 149.338 172.764L145.663 174.693C144.716 175.256 143.928 176.015 143.364 176.907C142.799 177.8 142.474 178.8 142.414 179.828V296.1C142.477 297.128 142.803 298.127 143.367 299.019C143.932 299.911 144.718 300.67 145.663 301.236L306.452 385.746C307.462 386.208 308.577 386.448 309.707 386.448C310.838 386.448 311.953 386.208 312.963 385.746L316.638 383.817C317.585 383.253 318.374 382.495 318.94 381.603C319.507 380.711 319.835 379.71 319.899 378.682V262.353Z" fill="white"/>
</g>
<path d="M318.948 259.431L309.703 264.282L143.369 176.895C143.921 175.996 144.71 175.235 145.665 174.681L149.353 172.764C150.357 172.292 151.471 172.045 152.602 172.045C153.732 172.045 154.846 172.292 155.851 172.764L316.64 257.217C317.608 257.761 318.403 258.524 318.948 259.431Z" fill="#5A50D8"/>
<path opacity="0.8" d="M318.948 259.431L309.703 264.282L143.369 176.895C143.921 175.996 144.71 175.235 145.665 174.681L149.353 172.764C150.357 172.292 151.471 172.045 152.602 172.045C153.732 172.045 154.846 172.292 155.851 172.764L316.64 257.217C317.608 257.761 318.403 258.524 318.948 259.431Z" fill="white"/>
<path opacity="0.1" d="M319.899 262.342V378.613C319.841 379.643 319.515 380.646 318.948 381.538C318.381 382.431 317.589 383.189 316.638 383.749L312.963 385.689C312.678 385.833 312.38 385.956 312.072 386.054C311.635 386.184 311.186 386.276 310.73 386.328C309.873 386.427 309.005 386.4 308.158 386.248L307.518 386.1L307.117 385.974C307.37 386.066 307.642 386.109 307.914 386.099C308.186 386.089 308.453 386.027 308.698 385.917C309.047 385.711 309.326 385.42 309.504 385.078C309.681 384.735 309.749 384.354 309.701 383.977V267.706C309.735 267.178 309.591 266.654 309.289 266.203C308.986 265.752 308.539 265.397 308.008 265.183L309.701 264.282L318.946 259.431C319.531 260.312 319.859 261.313 319.899 262.342V262.342Z" fill="#5A50D8"/>
<path opacity="0.05" d="M319.899 262.342V378.613C319.841 379.643 319.515 380.646 318.948 381.538C318.381 382.431 317.589 383.189 316.638 383.749L312.963 385.689C312.678 385.833 312.38 385.956 312.072 386.054C311.635 386.184 311.186 386.276 310.73 386.328C309.873 386.427 309.005 386.4 308.158 386.248L307.518 386.1L307.117 385.974C307.37 386.066 307.642 386.109 307.914 386.099C308.186 386.089 308.453 386.027 308.698 385.917C309.047 385.711 309.326 385.42 309.504 385.078C309.681 384.735 309.749 384.354 309.701 383.977V267.706C309.735 267.178 309.591 266.654 309.289 266.203C308.986 265.752 308.539 265.397 308.008 265.183L309.701 264.282L318.946 259.431C319.531 260.312 319.859 261.313 319.899 262.342V262.342Z" fill="black"/>
<path opacity="0.2" d="M309.701 264.282L232.493 290.531C229.821 291.439 226.889 291.492 224.18 290.681C221.471 289.87 219.147 288.243 217.59 286.069L205.197 268.778L143.367 176.896L202.725 269.418L142.414 296.135C142.47 297.186 142.82 298.207 143.43 299.102L202.914 269.703L217.314 290.679C218.914 293.011 221.384 294.739 224.271 295.546C227.159 296.353 230.27 296.185 233.032 295.073L243.305 290.953L308.723 385.918C309.072 385.711 309.351 385.421 309.529 385.078C309.706 384.735 309.774 384.354 309.726 383.977V382.037L243.632 290.828L309.701 264.282Z" fill="#5A50D8"/>
<path opacity="0.05" d="M309.701 264.282L232.493 290.531C229.821 291.439 226.889 291.492 224.18 290.681C221.471 289.87 219.147 288.243 217.59 286.069L205.197 268.778L143.367 176.896L202.725 269.418L142.414 296.135C142.47 297.186 142.82 298.207 143.43 299.102L202.914 269.703L217.314 290.679C218.914 293.011 221.384 294.739 224.271 295.546C227.159 296.353 230.27 296.185 233.032 295.073L243.305 290.953L308.723 385.918C309.072 385.711 309.351 385.421 309.529 385.078C309.706 384.735 309.774 384.354 309.726 383.977V382.037L243.632 290.828L309.701 264.282Z" fill="black"/>
<path d="M279.131 283.786C279.071 282.758 278.746 281.757 278.182 280.865C277.617 279.973 276.829 279.214 275.882 278.65L115.093 194.197C114.085 193.73 112.969 193.487 111.838 193.487C110.706 193.487 109.591 193.73 108.583 194.197L104.907 196.126C103.958 196.688 103.168 197.446 102.601 198.339C102.034 199.231 101.707 200.232 101.646 201.262V317.533C101.709 318.562 102.037 319.563 102.604 320.455C103.17 321.347 103.959 322.105 104.907 322.669L265.684 407.122C266.696 407.584 267.813 407.825 268.946 407.825C270.078 407.825 271.195 407.584 272.207 407.122L275.92 405.148C276.864 404.581 277.649 403.821 278.213 402.93C278.777 402.038 279.104 401.039 279.169 400.012L279.131 283.786Z" fill="#5A50D8"/>
<g opacity="0.5">
<path opacity="0.5" d="M279.131 283.786C279.071 282.758 278.746 281.757 278.182 280.865C277.617 279.973 276.829 279.214 275.882 278.651L115.093 194.197C114.085 193.73 112.969 193.487 111.838 193.487C110.706 193.487 109.591 193.73 108.583 194.197L104.907 196.126C103.958 196.688 103.168 197.446 102.601 198.339C102.034 199.231 101.707 200.233 101.646 201.262V317.533C101.709 318.562 102.037 319.563 102.604 320.455C103.17 321.347 103.959 322.105 104.907 322.669L265.684 407.122C266.696 407.584 267.813 407.825 268.946 407.825C270.078 407.825 271.195 407.584 272.207 407.122L275.92 405.148C276.864 404.581 277.649 403.822 278.213 402.93C278.777 402.038 279.104 401.039 279.169 400.012L279.131 283.786Z" fill="white"/>
</g>
<path d="M278.192 280.864L268.935 285.715L102.601 198.34C103.152 197.44 103.941 196.679 104.896 196.126L108.584 194.208C109.591 193.736 110.707 193.49 111.84 193.49C112.972 193.49 114.088 193.736 115.095 194.208L275.922 278.65C276.875 279.199 277.657 279.961 278.192 280.864V280.864Z" fill="#5A50D8"/>
<path opacity="0.6" d="M278.192 280.864L268.935 285.715L102.601 198.34C103.152 197.44 103.941 196.679 104.896 196.126L108.584 194.208C109.591 193.736 110.707 193.49 111.84 193.49C112.972 193.49 114.088 193.736 115.095 194.208L275.922 278.65C276.875 279.199 277.657 279.961 278.192 280.864V280.864Z" fill="white"/>
<path opacity="0.1" d="M279.145 283.775V400.046C279.084 401.067 278.76 402.06 278.2 402.946C277.64 403.832 276.86 404.587 275.921 405.148L272.258 407.088C271.968 407.232 271.666 407.354 271.355 407.453C270.918 407.584 270.469 407.676 270.012 407.727C269.156 407.826 268.288 407.799 267.441 407.647L266.814 407.487C266.679 407.454 266.549 407.408 266.425 407.351C266.67 407.448 266.935 407.498 267.203 407.498C267.47 407.498 267.735 407.448 267.98 407.351C268.329 407.141 268.607 406.848 268.784 406.503C268.961 406.159 269.03 405.777 268.984 405.399V289.139C269.018 288.611 268.874 288.087 268.571 287.636C268.269 287.186 267.822 286.83 267.29 286.617L268.984 285.715L278.241 280.865C278.803 281.751 279.114 282.752 279.145 283.775V283.775Z" fill="black"/>
<path opacity="0.4" d="M268.931 285.715L191.723 311.964C189.051 312.872 186.119 312.925 183.41 312.114C180.701 311.303 178.377 309.676 176.82 307.501L164.414 290.223L102.585 198.34L161.943 290.862L101.631 317.579C101.688 318.63 102.038 319.651 102.648 320.546L162.144 291.136L176.557 312.112C178.156 314.441 180.624 316.167 183.509 316.974C186.393 317.781 189.501 317.615 192.262 316.506L202.523 312.386L267.928 407.362C268.276 407.152 268.554 406.859 268.731 406.515C268.908 406.17 268.978 405.788 268.931 405.41V403.47L202.837 312.261L268.931 285.715Z" fill="#5A50D8"/>
<path opacity="0.05" d="M268.931 285.715L191.723 311.964C189.051 312.872 186.119 312.925 183.41 312.114C180.701 311.303 178.377 309.676 176.82 307.501L164.414 290.223L102.585 198.34L161.943 290.862L101.631 317.579C101.688 318.63 102.038 319.651 102.648 320.546L162.144 291.136L176.557 312.112C178.156 314.441 180.624 316.167 183.509 316.974C186.393 317.781 189.501 317.615 192.262 316.506L202.523 312.386L267.928 407.362C268.276 407.152 268.554 406.859 268.731 406.515C268.908 406.17 268.978 405.788 268.931 405.41V403.47L202.837 312.261L268.931 285.715Z" fill="black"/>
<path d="M238.037 306.155L70.7247 218.278L64.0261 221.793C63.1123 222.337 62.3515 223.069 61.8047 223.929C61.2579 224.789 60.9404 225.754 60.8776 226.746V339.046C60.9384 340.038 61.2551 341.004 61.8021 341.864C62.3491 342.725 63.1109 343.456 64.0261 343.999L225.041 428.566C226.014 429.013 227.088 429.245 228.177 429.245C229.267 429.245 230.341 429.013 231.314 428.566L234.863 426.706C235.777 426.162 236.538 425.43 237.085 424.57C237.632 423.71 237.949 422.745 238.012 421.753L238.037 306.155Z" fill="#5A50D8"/>
<path opacity="0.2" d="M238.037 306.155L70.7247 218.278L64.0261 221.793C63.1123 222.337 62.3515 223.069 61.8047 223.929C61.2579 224.789 60.9404 225.754 60.8776 226.746V339.046C60.9384 340.038 61.2551 341.004 61.8021 341.864C62.3491 342.725 63.1109 343.456 64.0261 343.999L225.041 428.566C226.014 429.013 227.088 429.245 228.177 429.245C229.267 429.245 230.341 429.013 231.314 428.566L234.863 426.706C235.777 426.162 236.538 425.43 237.085 424.57C237.632 423.71 237.949 422.745 238.012 421.753L238.037 306.155Z" fill="black"/>
<path d="M71.6404 208.394L70.963 208.052L73.5596 206.683C73.7782 206.563 74.0093 206.464 74.2495 206.386L147.883 181.552C148.896 181.251 149.988 181.248 151.003 181.543C152.018 181.838 152.906 182.416 153.54 183.195L235.905 292.631C237.193 294.515 237.927 296.668 238.037 298.885V306.143L235.528 307.502L70.7748 218.266V210.996C70.7882 210.072 71.0883 209.17 71.6404 208.394V208.394Z" fill="#5A50D8"/>
<path opacity="0.1" d="M150.131 183.743C150.458 183.976 150.746 184.253 150.984 184.565L233.36 294C234.037 294.968 234.553 296.022 234.891 297.127L237.399 295.781C237.214 295.218 236.992 294.665 236.735 294.126C236.622 293.897 236.509 293.681 236.383 293.464L236.321 293.361C236.19 293.132 236.044 292.911 235.882 292.699L153.517 183.264C153.393 183.101 153.255 182.949 153.103 182.807L152.664 182.442L150.131 183.743Z" fill="black"/>
<path opacity="0.35" d="M70.9875 208.041C71.2102 207.917 71.4454 207.814 71.69 207.732L145.336 182.899C146.146 182.654 147.011 182.6 147.849 182.744C148.688 182.888 149.472 183.224 150.128 183.72L152.637 182.374C151.975 181.882 151.189 181.549 150.35 181.406C149.51 181.262 148.645 181.312 147.832 181.552L74.1988 206.374C73.9583 206.456 73.7272 206.559 73.5089 206.682L70.9875 208.041Z" fill="white"/>
<path d="M236.345 293.304C236.211 293.077 236.065 292.856 235.906 292.642C236.065 292.856 236.211 293.077 236.345 293.304V293.304Z" fill="#5A50D8"/>
<path d="M153.125 182.739L152.686 182.374L153.125 182.739Z" fill="#5A50D8"/>
<path d="M237.449 295.758C237.264 295.195 237.042 294.642 236.784 294.103C237.042 294.642 237.264 295.195 237.449 295.758V295.758Z" fill="#5A50D8"/>
<path d="M236.758 294.058C236.645 293.829 236.532 293.612 236.407 293.396C236.532 293.612 236.645 293.829 236.758 294.058Z" fill="#5A50D8"/>
<path opacity="0.2" d="M236.406 293.395C236.39 293.359 236.369 293.324 236.344 293.293C236.369 293.324 236.39 293.359 236.406 293.395V293.395Z" fill="black"/>
<path opacity="0.2" d="M153.543 183.195C153.416 183.035 153.277 182.883 153.129 182.739C153.283 182.878 153.422 183.031 153.543 183.195Z" fill="black"/>
<path d="M150.983 184.542L233.36 293.977C234.638 295.865 235.368 298.017 235.479 300.232V307.501L68.1671 219.624V212.366C68.2266 211.381 68.5884 210.431 69.2115 209.624C69.8346 208.817 70.694 208.186 71.6919 207.801L145.338 182.91C146.348 182.602 147.439 182.594 148.453 182.887C149.468 183.181 150.354 183.76 150.983 184.542Z" fill="#5A50D8"/>
<path opacity="0.05" d="M68.1669 212.343C68.2004 211.433 68.5085 210.548 69.0575 209.787L234.89 297.105C235.242 298.109 235.436 299.155 235.467 300.209V307.479L68.1543 219.602L68.1669 212.343Z" fill="black"/>
<path d="M75.3153 181.461C75.2818 181.156 75.3359 180.848 75.4722 180.568C75.6085 180.288 75.8225 180.045 76.0931 179.863L81.211 177.181C81.5202 177.054 81.8606 177.005 82.1977 177.037C82.5348 177.069 82.8566 177.182 83.1303 177.364L220.362 249.48C221.154 249.948 221.814 250.579 222.287 251.323C222.76 252.067 223.033 252.902 223.084 253.76V403.265C223.121 403.571 223.068 403.881 222.929 404.162C222.79 404.443 222.571 404.685 222.294 404.863L217.201 407.545C216.892 407.67 216.553 407.721 216.216 407.691C215.88 407.661 215.558 407.551 215.282 407.373L78.0248 335.303C77.2364 334.832 76.5805 334.2 76.1099 333.456C75.6393 332.713 75.3671 331.879 75.3153 331.023V181.461Z" fill="#F0F0F0"/>
<path d="M215.272 407.43L78.0275 335.303C77.2391 334.832 76.5832 334.2 76.1126 333.456C75.642 332.713 75.3698 331.879 75.318 331.023V181.461C75.318 179.886 76.5724 179.247 78.0275 180.034L215.272 252.15C216.06 252.621 216.716 253.253 217.187 253.997C217.658 254.74 217.93 255.574 217.981 256.43V405.935C217.981 407.544 216.765 408.184 215.272 407.43Z" fill="#FAFAFA"/>
<path d="M127.311 265.914C127.442 267.603 127.788 269.273 128.34 270.89C128.834 272.343 129.499 273.743 130.322 275.067C131.034 276.225 131.902 277.299 132.906 278.262C133.736 279.067 134.707 279.742 135.779 280.26C136.945 280.957 138.342 281.263 139.73 281.127C140.537 280.976 141.261 280.572 141.775 279.986C142.076 280.579 142.389 281.173 142.715 281.766C143.067 282.4 143.487 283 143.97 283.558C144.512 284.193 145.13 284.771 145.814 285.281C146.642 285.907 147.547 286.443 148.511 286.879C149.538 287.431 150.741 287.649 151.923 287.495C152.96 287.282 153.863 286.704 154.432 285.886C155.21 284.786 155.727 283.549 155.949 282.257C156.281 280.455 156.395 278.626 156.288 276.801C156.204 274.791 155.932 272.79 155.473 270.821C155.056 269.05 154.455 267.319 153.679 265.651C152.996 264.19 152.092 262.823 150.994 261.588C150.049 260.504 148.866 259.61 147.52 258.964C147.073 258.677 146.567 258.476 146.032 258.372C145.498 258.268 144.945 258.263 144.409 258.359C143.723 258.638 143.159 259.115 142.803 259.717V259.101C142.775 258.58 142.616 258.073 142.339 257.617C142.121 257.196 141.772 256.843 141.336 256.601L138.651 255.357C138.505 255.269 138.33 255.23 138.156 255.247C137.982 255.264 137.82 255.335 137.698 255.448C137.554 255.606 137.447 255.788 137.385 255.985C137.322 256.181 137.305 256.387 137.334 256.59L137.936 271.095C137.986 272.191 137.761 272.91 137.259 273.252C136.995 273.418 136.682 273.506 136.362 273.506C136.042 273.506 135.729 273.418 135.465 273.252C134.677 272.847 134.043 272.234 133.646 271.495C133.042 270.401 132.704 269.202 132.655 267.98C132.53 266.713 132.442 265.412 132.379 264.065C132.316 262.718 132.316 261.474 132.379 260.333C132.411 258.285 132.748 256.25 133.383 254.284C133.777 252.899 134.658 251.668 135.891 250.781C137.125 250.028 138.628 249.731 140.094 249.948C142.241 250.253 144.313 250.898 146.215 251.853C148.22 252.796 150.049 254.021 151.634 255.483C153.261 257.001 154.676 258.695 155.849 260.527C157.066 262.46 158.05 264.508 158.784 266.633C159.554 268.826 160.096 271.081 160.403 273.366C160.49 273.994 160.566 274.793 160.628 275.786C160.691 276.779 160.741 277.806 160.791 278.879C160.842 279.951 160.879 280.99 160.904 281.994C160.929 282.999 160.904 283.786 160.904 284.391C160.848 286.233 160.485 288.057 159.826 289.8C159.35 291.149 158.483 292.355 157.317 293.293C156.211 294.127 154.814 294.572 153.378 294.548C151.515 294.491 149.694 294.025 148.072 293.19C146.799 292.604 145.571 291.941 144.396 291.204C143.429 290.595 142.511 289.924 141.649 289.196C140.931 288.569 140.253 287.906 139.617 287.21C139.053 286.559 138.538 285.932 138.074 285.315C137.61 284.699 137.372 284.368 137.133 284.106C136.89 283.822 136.576 283.596 136.218 283.444L132.454 281.663C132.313 281.567 132.142 281.515 131.965 281.515C131.789 281.515 131.617 281.567 131.476 281.663C131.2 281.869 131.087 282.268 131.15 282.884C131.192 283.287 131.329 283.676 131.551 284.026C132.316 285.315 133.182 286.685 134.135 288.111C135.133 289.595 136.266 291 137.522 292.311C138.939 293.769 140.487 295.117 142.151 296.34C144.094 297.755 146.196 298.979 148.423 299.992C150.801 301.239 153.493 301.904 156.238 301.921C158.298 301.866 160.266 301.136 161.782 299.866C163.381 298.425 164.544 296.633 165.157 294.662C165.97 292.231 166.393 289.705 166.411 287.164C166.411 286.548 166.411 285.703 166.411 284.631C166.411 283.569 166.348 282.451 166.298 281.287C166.248 280.123 166.185 279.004 166.123 277.954C166.06 276.904 165.997 276.06 165.934 275.455C165.619 272.429 164.972 269.439 164.003 266.53C163.023 263.516 161.686 260.607 160.014 257.857C158.361 255.126 156.338 252.596 153.992 250.324C151.704 248.079 148.999 246.217 146.002 244.823C143.298 243.405 140.273 242.57 137.158 242.381C135.032 242.303 132.954 242.969 131.351 244.241C129.743 245.687 128.632 247.527 128.152 249.537C127.451 252.095 127.08 254.718 127.048 257.354C127.048 258.496 127.048 259.877 127.136 261.452C127.224 263.026 127.198 264.601 127.311 265.914ZM150.869 274.268C151.088 275.883 150.828 277.522 150.116 279.016C149.527 279.951 148.624 280.157 147.419 279.575C146.049 278.885 145.001 277.766 144.472 276.425C143.714 274.6 143.315 272.669 143.292 270.719C143.083 269.09 143.333 267.441 144.02 265.925C144.597 264.967 145.525 264.784 146.792 265.377C148.138 266.086 149.158 267.212 149.665 268.55C150.421 270.364 150.828 272.283 150.869 274.222V274.268Z" fill="#5A50D8"/>
<path d="M217.992 405.969C218.017 406.248 217.972 406.528 217.861 406.789C217.751 407.05 217.577 407.285 217.352 407.476L222.282 404.897C222.561 404.72 222.783 404.479 222.924 404.198C223.065 403.917 223.121 403.606 223.085 403.299V253.794C223.054 252.934 222.777 252.096 222.282 251.363L217.189 254.033C217.685 254.77 217.962 255.612 217.992 256.476V405.969Z" fill="#E0E0E0"/>
<path d="M65.1193 340.53C65.1692 340.611 65.228 340.687 65.2949 340.758L135.027 320.694C137.675 319.631 140.655 319.473 143.42 320.249C146.185 321.025 148.55 322.682 150.08 324.917L224.629 425.69L227.389 427.14C227.696 427.335 228.052 427.457 228.425 427.495C228.797 427.533 229.174 427.485 229.521 427.357L152.865 323.502C151.33 321.272 148.966 319.618 146.203 318.841C143.44 318.064 140.462 318.216 137.812 319.268L65.1193 340.53Z" fill="#5A50D8"/>
<path opacity="0.4" d="M156.954 334.755L156.779 334.618L224.629 425.69L227.389 427.14C227.698 427.332 228.054 427.453 228.426 427.49C228.797 427.528 229.174 427.482 229.521 427.357L159.639 333.248L156.954 334.755Z" fill="white"/>
<path opacity="0.4" d="M65.1194 340.529C65.1693 340.611 65.2281 340.687 65.295 340.758L135.027 320.694C137.674 319.629 140.655 319.469 143.421 320.245C146.187 321.021 148.552 322.68 150.08 324.917L152.84 323.456C151.303 321.229 148.936 319.579 146.172 318.808C143.409 318.037 140.432 318.196 137.787 319.256L65.1194 340.529Z" fill="white"/>
<path d="M60.9399 226.027C61.0904 225.205 61.5671 224.977 62.1943 225.365C62.5044 225.575 62.7754 225.83 62.9971 226.118L63.3484 226.563L132.152 321.722L142.426 334.743C143.087 335.502 143.964 336.083 144.96 336.423C145.957 336.762 147.037 336.849 148.083 336.672L156.952 334.755L224.69 312.089C225.145 312.005 225.614 312.005 226.07 312.089C226.246 312.122 226.419 312.172 226.584 312.238L224.075 310.891L159.172 332.575L150.63 335.348C149.583 335.527 148.503 335.442 147.505 335.102C146.508 334.762 145.632 334.18 144.972 333.42L134.699 320.409L65.5561 224.806C65.3453 224.545 65.0812 224.324 64.7784 224.155L70.7619 221.017L68.2531 219.704L64.1135 221.873C63.3073 222.338 62.6114 222.945 62.0664 223.659C61.5214 224.372 61.1385 225.177 60.9399 226.027V226.027Z" fill="#5A50D8"/>
<path opacity="0.4" d="M132.153 321.722L142.426 334.743C143.088 335.502 143.964 336.083 144.96 336.423C145.957 336.762 147.037 336.849 148.084 336.672L156.952 334.755L156.777 334.618L156.35 334.002L150.542 335.257C149.495 335.436 148.415 335.351 147.418 335.011C146.42 334.671 145.544 334.089 144.885 333.328L134.712 320.455L132.153 321.722Z" fill="white"/>
<path opacity="0.1" d="M64.0272 221.77L68.1668 219.602L70.6756 220.914L64.692 224.053C64.9969 224.219 65.2615 224.441 65.4698 224.703L134.613 320.307L134.713 320.432L132.204 321.699L63.4 226.529L63.0488 226.084C62.8271 225.796 62.556 225.541 62.246 225.331C61.6313 224.943 61.1546 225.171 60.9916 225.993C61.1643 225.141 61.5217 224.329 62.0428 223.604C62.564 222.879 63.2386 222.255 64.0272 221.77V221.77Z" fill="black"/>
<path d="M223.235 313.904L237.999 306.155V421.753C237.936 422.745 237.619 423.71 237.072 424.57C236.525 425.43 235.764 426.162 234.85 426.706L231.3 428.567C230.328 429.013 229.254 429.246 228.164 429.246C227.075 429.246 226.001 429.013 225.028 428.567L223.26 427.642L223.235 313.904Z" fill="#5A50D8"/>
<path opacity="0.15" d="M223.235 313.904L237.999 306.155V421.753C237.936 422.745 237.619 423.71 237.072 424.57C236.525 425.43 235.764 426.162 234.85 426.706L231.3 428.567C230.328 429.013 229.254 429.246 228.164 429.246C227.075 429.246 226.001 429.013 225.028 428.567L223.26 427.642L223.235 313.904Z" fill="black"/>
<path d="M60.88 226.746V339.035C60.9195 340.062 61.257 341.062 61.8584 341.933C62.3261 342.668 62.9535 343.309 63.7024 343.816L63.8278 343.874C63.8917 343.919 63.9587 343.961 64.0285 343.999L225.044 428.567C225.351 428.766 225.709 428.891 226.084 428.931C226.459 428.971 226.839 428.924 227.189 428.795C227.456 428.653 227.681 428.454 227.845 428.216C228.009 427.977 228.107 427.706 228.13 427.425C228.143 427.254 228.143 427.083 228.13 426.912V314.612C228.158 314.209 228.078 313.807 227.897 313.439C227.716 313.072 227.44 312.749 227.092 312.5C226.744 312.251 226.335 312.082 225.899 312.009C225.464 311.935 225.015 311.959 224.592 312.078L156.854 334.743L147.986 336.661C146.939 336.837 145.859 336.751 144.863 336.411C143.866 336.071 142.99 335.491 142.328 334.732L132.055 321.71L63.2508 226.552L62.8995 226.107C61.8333 224.646 60.88 224.92 60.88 226.746Z" fill="#5A50D8"/>
<path d="M64.0255 343.999L63.8122 343.873L63.6994 343.805C62.9479 343.305 62.3198 342.667 61.8554 341.933C61.2624 341.076 60.9251 340.092 60.8769 339.08L132.14 321.733L84.4723 354.704L64.0255 343.999Z" fill="#5A50D8"/>
<path opacity="0.2" d="M64.0255 343.999L63.8122 343.873L63.6994 343.805C62.9479 343.305 62.3198 342.667 61.8554 341.933C61.2624 341.076 60.9251 340.092 60.8769 339.08L132.14 321.733L84.4723 354.704L64.0255 343.999Z" fill="black"/>
<path d="M228.192 426.912C228.238 427.277 228.171 427.647 227.998 427.98C227.825 428.313 227.553 428.595 227.214 428.795C226.865 428.926 226.485 428.976 226.11 428.938C225.735 428.9 225.377 428.776 225.069 428.578V428.578L169.611 399.441L156.942 334.743L228.192 425.04V426.912Z" fill="#5A50D8"/>
<path opacity="0.15" d="M150.118 324.848L227.214 428.795C227.553 428.595 227.825 428.313 227.998 427.98C228.171 427.647 228.238 427.277 228.192 426.911V425.051L152.928 323.479L150.118 324.848Z" fill="black"/>
<path d="M61.857 341.933C62.3215 342.667 62.9496 343.305 63.701 343.805L63.8139 343.874L225.042 428.566C225.351 428.765 225.709 428.888 226.084 428.926C226.459 428.964 226.839 428.915 227.188 428.783L150.079 324.826C148.535 322.58 146.154 320.916 143.37 320.138C140.587 319.361 137.589 319.522 134.926 320.592L61.857 341.933Z" fill="#5A50D8"/>
<path opacity="0.15" d="M237.448 295.758L234.939 297.105C235.294 298.117 235.493 299.169 235.528 300.232V307.49L238.037 306.143V298.874C238 297.815 237.802 296.767 237.448 295.758Z" fill="black"/>
<path d="M223.989 310.845L226.548 312.192L229.132 310.834L235.492 307.502L233.021 306.166L223.989 310.845Z" fill="#5A50D8"/>
<path opacity="0.1" d="M223.876 310.891L233.02 306.166L235.529 307.502L229.169 310.834L226.585 312.192L226.096 312.055C225.641 311.971 225.172 311.971 224.716 312.055L219.473 313.847L160.378 333.648L159.45 332.404L223.876 310.891Z" fill="black"/>
<path d="M63.9248 212.021L19.5565 186.172L0.00033367 191.878L63.9248 212.021Z" fill="#5A50D8"/>
<path d="M63.9248 212.022L25.5777 182.92L34.0951 173.972L63.9248 212.022Z" fill="#5A50D8"/>
<path d="M25.5777 182.92V189.676L63.9248 212.022L25.5777 182.92Z" fill="#5A50D8"/>
<path opacity="0.25" d="M25.5777 182.92V189.676L63.9248 212.022L25.5777 182.92Z" fill="black"/>
<path d="M19.1782 182.36C19.3673 182.36 19.5521 182.309 19.7083 182.212C19.8646 182.115 19.9851 181.977 20.0542 181.817C20.1232 181.657 20.1376 181.481 20.0955 181.314C20.0534 181.146 19.9566 180.994 19.818 180.877C18.5034 179.771 17.2909 178.568 16.1927 177.282C16.1205 177.186 16.0276 177.105 15.9197 177.043C15.8119 176.981 15.6913 176.939 15.5653 176.921C15.4393 176.903 15.3106 176.908 15.1869 176.937C15.0632 176.965 14.9472 177.016 14.8459 177.087C14.7445 177.157 14.66 177.246 14.5975 177.347C14.5349 177.448 14.4956 177.56 14.4819 177.675C14.4683 177.79 14.4806 177.907 14.5181 178.018C14.5555 178.129 14.6174 178.232 14.7 178.32C15.8625 179.684 17.1464 180.959 18.5384 182.132C18.7144 182.276 18.9416 182.357 19.1782 182.36V182.36ZM12.1159 173.835C12.2642 173.837 12.4108 173.806 12.5424 173.744C12.6525 173.694 12.7506 173.625 12.8312 173.541C12.9117 173.456 12.973 173.358 13.0115 173.252C13.05 173.146 13.0649 173.034 13.0555 172.922C13.046 172.811 13.0123 172.702 12.9564 172.603C11.861 170.616 11.0192 168.521 10.4476 166.36C10.3893 166.139 10.237 165.948 10.0241 165.829C9.81124 165.71 9.55519 165.674 9.31233 165.726C9.06947 165.779 8.85967 165.918 8.72911 166.112C8.59855 166.305 8.55792 166.538 8.61614 166.759C9.20762 169.048 10.0917 171.266 11.2504 173.367C11.3311 173.512 11.4553 173.633 11.6086 173.715C11.7618 173.798 11.9377 173.84 12.1159 173.835V173.835ZM8.67885 161.772C8.80243 161.768 8.92383 161.741 9.03613 161.694C9.14843 161.647 9.24942 161.58 9.33331 161.497C9.41719 161.415 9.48234 161.318 9.52502 161.212C9.5677 161.106 9.58706 160.994 9.58202 160.882C9.58202 160.414 9.58202 159.957 9.58202 159.501C9.58291 157.738 9.74653 155.978 10.0712 154.24C10.0929 154.129 10.0903 154.015 10.0635 153.905C10.0367 153.795 9.98631 153.691 9.91522 153.599C9.84413 153.506 9.75374 153.428 9.64921 153.367C9.54467 153.307 9.42805 153.266 9.30605 153.247C9.05841 153.21 8.80497 153.264 8.60068 153.397C8.39639 153.529 8.25772 153.73 8.21473 153.954C7.87542 155.787 7.7034 157.642 7.70042 159.501C7.70042 159.98 7.70042 160.471 7.70042 160.95C7.70526 161.063 7.73443 161.173 7.78624 161.275C7.83805 161.378 7.9115 161.469 8.00238 161.546C8.09326 161.622 8.19975 161.681 8.31583 161.72C8.4319 161.759 8.55528 161.777 8.67885 161.772ZM10.6984 149.435C10.8951 149.435 11.0869 149.379 11.2466 149.274C11.4064 149.17 11.5261 149.022 11.5891 148.853C12.4001 146.749 13.4204 144.717 14.6373 142.781C14.7458 142.586 14.7699 142.36 14.705 142.149C14.64 141.938 14.4905 141.756 14.286 141.64C14.0714 141.539 13.8224 141.515 13.5895 141.575C13.3566 141.634 13.1572 141.772 13.0316 141.96C11.7599 143.989 10.6975 146.121 9.85799 148.328C9.80837 148.437 9.78403 148.554 9.78652 148.672C9.78901 148.79 9.81824 148.906 9.87242 149.013C9.92661 149.12 10.0046 149.216 10.1014 149.295C10.1982 149.373 10.3118 149.433 10.435 149.469C10.5281 149.467 10.6207 149.456 10.711 149.435H10.6984ZM17.2966 138.467C17.4395 138.467 17.5804 138.437 17.7086 138.38C17.8369 138.322 17.9491 138.239 18.0367 138.136C19.5417 136.365 21.194 134.702 22.9791 133.161C23.0938 133.093 23.1909 133.003 23.2636 132.898C23.3363 132.792 23.3829 132.674 23.4001 132.55C23.4174 132.427 23.4048 132.302 23.3634 132.183C23.3219 132.065 23.2525 131.956 23.1601 131.864C23.0676 131.772 22.9543 131.7 22.8281 131.652C22.7018 131.605 22.5656 131.582 22.4289 131.587C22.2923 131.592 22.1585 131.624 22.0369 131.681C21.9152 131.738 21.8087 131.818 21.7246 131.917C19.8694 133.519 18.1501 135.248 16.5816 137.087C16.4494 137.263 16.3942 137.477 16.4267 137.688C16.4592 137.899 16.577 138.092 16.7572 138.228C16.9062 138.362 17.1007 138.447 17.3092 138.467H17.2966ZM27.1186 129.703C27.3223 129.703 27.5206 129.643 27.6831 129.531C29.6594 128.181 31.7246 126.943 33.8673 125.822C34.0719 125.706 34.2206 125.524 34.2834 125.312C34.3463 125.101 34.3186 124.875 34.206 124.681C34.0828 124.491 33.8824 124.352 33.6479 124.294C33.4134 124.236 33.1634 124.265 32.9516 124.373C30.7434 125.527 28.6153 126.804 26.5792 128.196C26.4212 128.304 26.3046 128.454 26.2457 128.626C26.1868 128.797 26.1887 128.981 26.2512 129.152C26.3136 129.322 26.4334 129.47 26.5936 129.575C26.7538 129.68 26.9462 129.737 27.1437 129.737L27.1186 129.703ZM125.702 126.393C125.91 126.394 126.113 126.333 126.278 126.219C126.444 126.105 126.563 125.944 126.618 125.761C126.672 125.579 126.658 125.385 126.579 125.21C126.5 125.035 126.359 124.889 126.179 124.795C123.996 123.654 121.738 122.581 119.443 121.588C119.331 121.54 119.209 121.512 119.086 121.507C118.962 121.502 118.838 121.518 118.722 121.557C118.605 121.595 118.498 121.653 118.407 121.729C118.315 121.805 118.241 121.897 118.188 121.999C118.134 122.101 118.102 122.211 118.095 122.324C118.088 122.437 118.106 122.55 118.149 122.657C118.191 122.763 118.256 122.861 118.34 122.944C118.425 123.027 118.527 123.094 118.64 123.14C120.885 124.11 123.106 125.16 125.238 126.279C125.383 126.355 125.547 126.395 125.715 126.393H125.702ZM38.9476 123.323C39.0864 123.325 39.2239 123.298 39.349 123.243C41.5819 122.262 43.8774 121.36 46.1855 120.55C46.3054 120.51 46.4151 120.448 46.5078 120.368C46.6005 120.288 46.6744 120.191 46.7249 120.085C46.7753 119.978 46.8014 119.863 46.8014 119.746C46.8014 119.63 46.7754 119.515 46.7249 119.408C46.6808 119.299 46.6127 119.2 46.5248 119.115C46.4369 119.031 46.331 118.964 46.2137 118.918C46.0963 118.872 45.9699 118.848 45.8421 118.848C45.7143 118.848 45.5879 118.872 45.4705 118.918C43.1248 119.739 40.779 120.664 38.496 121.668C38.3075 121.754 38.1564 121.896 38.0669 122.07C37.9773 122.243 37.9546 122.44 38.0023 122.627C38.0501 122.814 38.1656 122.98 38.3302 123.101C38.4948 123.221 38.699 123.287 38.91 123.289L38.9476 123.323ZM113.296 121.04C113.485 121.037 113.67 120.984 113.826 120.887C113.982 120.789 114.103 120.652 114.174 120.493C114.225 120.386 114.251 120.271 114.251 120.155C114.251 120.038 114.225 119.923 114.174 119.816C114.124 119.71 114.05 119.613 113.957 119.533C113.864 119.453 113.755 119.391 113.635 119.351C111.289 118.518 108.868 117.754 106.447 117.069C106.208 117.004 105.949 117.028 105.729 117.136C105.51 117.244 105.346 117.427 105.274 117.645C105.203 117.863 105.229 118.098 105.348 118.298C105.467 118.498 105.668 118.647 105.908 118.712C108.279 119.351 110.649 120.105 112.945 120.915C113.057 120.955 113.176 120.975 113.296 120.972V121.04ZM51.8303 118.758C51.9215 118.774 52.0152 118.774 52.1063 118.758C54.4646 118.107 56.8856 117.537 59.3066 117.057C59.431 117.03 59.5483 116.981 59.6518 116.913C59.7554 116.845 59.8432 116.759 59.9102 116.66C60.0454 116.46 60.0878 116.219 60.0279 115.99C59.968 115.762 59.8108 115.564 59.5908 115.441C59.3709 115.318 59.1062 115.28 58.855 115.334C56.3462 115.825 53.9127 116.407 51.5042 117.08C51.3854 117.113 51.2747 117.166 51.1788 117.238C51.0828 117.31 51.0034 117.398 50.9451 117.498C50.8868 117.598 50.8507 117.707 50.8391 117.819C50.8274 117.932 50.8403 118.045 50.877 118.153C50.938 118.328 51.0582 118.48 51.2205 118.589C51.3828 118.698 51.5787 118.757 51.7802 118.758H51.8303ZM100.125 117.263C100.337 117.263 100.543 117.197 100.71 117.077C100.876 116.957 100.993 116.789 101.041 116.601C101.093 116.379 101.048 116.146 100.914 115.954C100.78 115.762 100.569 115.626 100.326 115.574C97.8795 115.06 95.3707 114.627 92.8619 114.296C92.7358 114.27 92.6054 114.269 92.4786 114.291C92.3518 114.313 92.2315 114.359 92.1251 114.426C92.0187 114.493 91.9285 114.578 91.8602 114.678C91.7918 114.778 91.7467 114.889 91.7277 115.005C91.7087 115.122 91.7162 115.24 91.7498 115.354C91.7833 115.467 91.8422 115.573 91.9227 115.665C92.0032 115.757 92.1036 115.832 92.2177 115.888C92.3318 115.943 92.4572 115.976 92.586 115.985C95.0948 116.316 97.5032 116.738 99.9117 117.251L100.125 117.263ZM65.2274 115.95H65.3654C67.8115 115.619 70.3077 115.38 72.7789 115.231C72.9099 115.235 73.0401 115.213 73.1613 115.168C73.2826 115.123 73.3921 115.055 73.4828 114.969C73.5736 114.883 73.6437 114.781 73.6885 114.669C73.7333 114.557 73.7519 114.437 73.7431 114.318C73.7344 114.2 73.6984 114.084 73.6375 113.978C73.5767 113.872 73.4922 113.78 73.3897 113.706C73.2871 113.631 73.1686 113.578 73.0418 113.547C72.9151 113.517 72.7828 113.512 72.6535 113.531C70.1447 113.679 67.6359 113.919 65.127 114.25C64.8951 114.285 64.6858 114.397 64.5404 114.565C64.395 114.733 64.3239 114.944 64.3412 115.158C64.3585 115.371 64.4629 115.57 64.6339 115.717C64.8049 115.864 65.03 115.947 65.265 115.95H65.2274ZM86.4519 115.334C86.7014 115.343 86.9447 115.262 87.1282 115.108C87.3117 114.954 87.4204 114.739 87.4303 114.512C87.4403 114.285 87.3508 114.064 87.1814 113.897C87.012 113.73 86.7767 113.631 86.5272 113.622C84.0184 113.44 81.4468 113.337 78.9255 113.337C78.676 113.337 78.4367 113.427 78.2602 113.588C78.0838 113.748 77.9847 113.966 77.9847 114.193C77.9847 114.42 78.0838 114.638 78.2602 114.798C78.4367 114.959 78.676 115.049 78.9255 115.049C81.4343 115.049 83.9431 115.151 86.3767 115.334H86.4519Z" fill="#5A50D8"/>
</svg>
