<svg width="47" height="44" viewBox="0 0 47 44" fill="none" xmlns="http://www.w3.org/2000/svg">
<path fill-rule="evenodd" clip-rule="evenodd" d="M23.7835 0.611818C18.3123 0.617393 13.0214 2.4873 8.85632 5.8874C4.69125 9.28749 1.92343 13.9962 1.04748 19.172C0.171533 24.3479 1.24453 29.6536 4.07473 34.1411C6.90494 38.6285 11.3079 42.0053 16.4968 43.6679C17.6491 43.8738 18.0707 43.1891 18.0707 42.6048C18.0707 42.09 18.0493 40.3396 18.0412 38.4863C11.6274 39.8248 10.2737 35.8788 10.2737 35.8788C9.22355 33.3254 7.71411 32.6458 7.71411 32.6458C5.62183 31.2764 7.86989 31.3047 7.86989 31.3047C10.1851 31.4592 11.4045 33.5802 11.4045 33.5802C13.4618 36.9599 16.7976 35.9818 18.1191 35.418C18.3259 33.9895 18.9248 33.0139 19.5829 32.463C14.4502 31.9148 9.07852 30.0254 9.07852 21.5542C9.04978 19.3618 9.90068 17.2425 11.4555 15.6339C11.2165 15.0779 10.4268 12.8308 11.6784 9.78571C11.6784 9.78571 13.6149 9.19368 18.0197 12.0509C21.7998 11.0585 25.7888 11.0585 29.5688 12.0509C33.9683 9.19368 35.9021 9.78571 35.9021 9.78571C37.1564 12.8308 36.3667 15.0779 36.1277 15.6339C37.6839 17.2414 38.5342 19.3617 38.502 21.5542C38.502 30.0486 33.1088 31.9096 27.9735 32.4553C28.8007 33.1426 29.5366 34.4862 29.5366 36.5481C29.5366 39.5031 29.5098 41.884 29.5098 42.6099C29.5098 43.1994 29.9261 43.8969 31.0944 43.6704C36.2873 42.0086 40.6937 38.6302 43.5254 34.1397C46.3571 29.6492 47.4291 24.3396 46.5499 19.1608C45.6706 13.9821 42.8973 9.27217 38.7261 5.87373C34.555 2.47528 29.2583 0.610075 23.7835 0.611818V0.611818Z" fill="#968EFF"/>
</svg>
