<svg width="44" height="35" viewBox="0 0 44 35" fill="none" xmlns="http://www.w3.org/2000/svg">
<path fill-rule="evenodd" clip-rule="evenodd" d="M29.1323 0.656377C25.6533 1.25832 22.9055 3.69384 21.9855 6.99127C21.827 7.55923 21.7945 7.8963 21.7898 9.02006C21.7868 9.76125 21.814 10.5269 21.8503 10.7215L21.9164 11.0754L21.3386 11.0247C17.5824 10.6953 14.5419 9.86963 11.5159 8.35727C8.72133 6.96056 5.80948 4.76761 4.02404 2.71497C3.75726 2.40829 3.50079 2.16947 3.45405 2.18442C3.4074 2.19928 3.22241 2.52941 3.04288 2.9181C1.81778 5.56998 2.04644 8.63586 3.64689 11.017C4.11538 11.7139 4.87847 12.5374 5.49852 13.0151L6.14381 13.5121H5.79396C5.04572 13.5121 3.481 13.1078 2.64091 12.6974C2.45472 12.6065 2.27118 12.532 2.23306 12.532C2.11263 12.532 2.27203 14.0291 2.46871 14.745C3.24322 17.5647 5.42875 19.7944 8.33139 20.7263C8.8131 20.881 9.15273 21.0276 9.08611 21.0521C8.70129 21.1934 7.43697 21.289 6.45495 21.2509L5.35242 21.208L5.40743 21.4178C5.50108 21.7754 6.13068 22.9207 6.5225 23.4466C8.02998 25.4697 10.4909 26.8592 12.8928 27.0435C13.2564 27.0714 13.5538 27.1222 13.5538 27.1563C13.5538 27.2944 11.642 28.4292 10.4727 28.9852C7.81079 30.2506 5.18039 30.7982 2.08286 30.7313L0.503906 30.6973L0.952015 30.9667C1.60465 31.3591 3.58182 32.3152 4.47053 32.668C9.25413 34.5674 14.8389 34.9998 20.1107 33.8791C27.8687 32.2297 34.251 27.0711 37.4744 19.8443C38.8527 16.7541 39.544 13.7195 39.6147 10.4494L39.6465 8.97922L40.264 8.50396C41.0537 7.89614 41.941 7.08618 42.609 6.3632C43.1801 5.74509 44.0163 4.67785 43.9668 4.63032C43.9498 4.61414 43.6917 4.69639 43.3933 4.81318C42.2635 5.2552 39.6422 5.8921 39.2505 5.81982C39.1537 5.80193 39.2237 5.72214 39.4771 5.56148C40.1208 5.15352 41.2707 4.02519 41.7593 3.32206C42.1835 2.71146 42.8042 1.51445 42.8069 1.30152C42.8075 1.25644 42.2844 1.4652 41.6446 1.76535C40.4882 2.30791 38.9796 2.83071 37.7972 3.09868L37.1789 3.23875L36.6618 2.78031C34.6651 1.01011 31.7843 0.197531 29.1323 0.656377Z" fill="#968EFF"/>
</svg>
