<svg width="46" height="35" viewBox="0 0 46 35" fill="none" xmlns="http://www.w3.org/2000/svg">
<path d="M38.5428 3.34533C35.6885 2.04236 32.6277 1.08239 29.4275 0.53258C29.3692 0.521969 29.311 0.548487 29.281 0.601524C28.8874 1.29807 28.4513 2.20677 28.146 2.921C24.7039 2.40833 21.2796 2.40833 17.9081 2.921C17.6027 2.19089 17.1508 1.29807 16.7554 0.601524C16.7254 0.550256 16.6672 0.523738 16.6089 0.53258C13.4105 1.08064 10.3497 2.0406 7.49368 3.34533C7.46896 3.35593 7.44777 3.37363 7.4337 3.39659C1.62808 12.0258 0.0376766 20.4428 0.817875 28.7555C0.821405 28.7962 0.844352 28.8351 0.876125 28.8598C4.70651 31.6584 8.41689 33.3574 12.0584 34.4835C12.1166 34.5012 12.1784 34.48 12.2155 34.4323C13.0769 33.2619 13.8447 32.0279 14.5031 30.7303C14.5419 30.6543 14.5049 30.5641 14.4254 30.534C13.2075 30.0744 12.0478 29.5139 10.9322 28.8775C10.844 28.8263 10.8369 28.7007 10.9181 28.6406C11.1528 28.4656 11.3876 28.2835 11.6118 28.0996C11.6524 28.066 11.7089 28.0589 11.7566 28.0801C19.0854 31.4092 27.0198 31.4092 34.2622 28.0801C34.3099 28.0572 34.3664 28.0643 34.4087 28.0978C34.633 28.2817 34.8677 28.4656 35.1042 28.6406C35.1854 28.7007 35.1801 28.8263 35.0919 28.8775C33.9763 29.5263 32.8166 30.0744 31.5969 30.5323C31.5175 30.5623 31.4821 30.6543 31.521 30.7303C32.1935 32.0261 32.9613 33.2601 33.8068 34.4305C33.8421 34.48 33.9057 34.5012 33.9639 34.4835C37.6231 33.3574 41.3334 31.6584 45.1638 28.8598C45.1974 28.8351 45.2186 28.798 45.2221 28.7573C46.1558 19.1469 43.6581 10.7988 38.601 3.39835C38.5886 3.37363 38.5675 3.35593 38.5428 3.34533ZM15.5975 23.694C13.391 23.694 11.573 21.6786 11.573 19.2035C11.573 16.7284 13.3558 14.713 15.5975 14.713C17.8569 14.713 19.6574 16.7461 19.6221 19.2035C19.6221 21.6786 17.8392 23.694 15.5975 23.694ZM30.4777 23.694C28.2713 23.694 26.4532 21.6786 26.4532 19.2035C26.4532 16.7284 28.236 14.713 30.4777 14.713C32.7372 14.713 34.5376 16.7461 34.5023 19.2035C34.5023 21.6786 32.7372 23.694 30.4777 23.694Z" fill="#968EFF"/>
</svg>
