<svg width="770" height="748" viewBox="0 0 770 748" fill="none" xmlns="http://www.w3.org/2000/svg">
<g filter="url(#filter0_f_202_185)">
<circle cx="369.076" cy="379.076" r="166.666" transform="rotate(80.421 369.076 379.076)" fill="url(#paint0_linear_202_185)" fill-opacity="0.34"/>
</g>
<path d="M637.05 479.716H624.188V480.086H637.05V479.716Z" fill="#EBEBEB"/>
<path d="M418.997 304.526C427.016 304.526 433.517 298.025 433.517 290.006C433.517 281.987 427.016 275.486 418.997 275.486C410.977 275.486 404.477 281.987 404.477 290.006C404.477 298.025 410.977 304.526 418.997 304.526Z" fill="#E0E0E0"/>
<path d="M416.735 304.526C424.754 304.526 431.255 298.025 431.255 290.006C431.255 281.987 424.754 275.486 416.735 275.486C408.716 275.486 402.215 281.987 402.215 290.006C402.215 298.025 408.716 304.526 416.735 304.526Z" fill="#F5F5F5"/>
<path opacity="0.2" d="M416.734 301.166C422.898 301.166 427.895 296.169 427.895 290.006C427.895 283.842 422.898 278.845 416.734 278.845C410.571 278.845 405.574 283.842 405.574 290.006C405.574 296.169 410.571 301.166 416.734 301.166Z" fill="white"/>
<path d="M407.301 289.947C407.305 287.126 408.375 284.412 410.296 282.347C412.218 280.283 414.849 279.021 417.662 278.816C417.381 278.816 417.1 278.816 416.804 278.816C413.912 278.921 411.174 280.144 409.166 282.227C407.157 284.31 406.035 287.09 406.035 289.984C406.035 292.877 407.157 295.658 409.166 297.74C411.174 299.823 413.912 301.046 416.804 301.151C417.09 301.166 417.376 301.166 417.662 301.151C414.835 300.948 412.191 299.677 410.267 297.597C408.343 295.516 407.283 292.781 407.301 289.947Z" fill="#E0E0E0"/>
<path d="M420.857 294.047C420.048 294.745 419.037 295.165 417.971 295.246V297.111H416.313V295.29C415.518 295.254 414.731 295.11 413.975 294.861C413.333 294.665 412.728 294.365 412.184 293.973L413.101 291.945C413.556 292.274 414.054 292.538 414.581 292.729C415.138 292.938 415.721 293.067 416.313 293.114V290.346C415.635 290.192 414.971 289.979 414.33 289.71C413.796 289.498 413.327 289.151 412.968 288.703C412.582 288.189 412.388 287.555 412.42 286.912C412.414 286.469 412.5 286.03 412.674 285.622C412.847 285.214 413.104 284.847 413.427 284.544C414.248 283.819 415.293 283.396 416.387 283.345V281.495H418.045V283.316C419.235 283.369 420.394 283.715 421.42 284.322L420.591 286.365C419.812 285.902 418.945 285.61 418.045 285.506V288.319C418.717 288.464 419.376 288.667 420.014 288.925C420.546 289.147 421.014 289.498 421.375 289.947C421.755 290.453 421.948 291.075 421.923 291.708C421.916 292.15 421.818 292.586 421.634 292.989C421.451 293.391 421.186 293.751 420.857 294.047V294.047ZM415.41 287.46C415.677 287.669 415.985 287.82 416.313 287.904V285.506C415.966 285.567 415.646 285.732 415.396 285.98C415.197 286.181 415.086 286.452 415.085 286.735C415.072 286.873 415.096 287.013 415.153 287.14C415.21 287.267 415.299 287.377 415.41 287.46V287.46ZM418.874 292.626C419.064 292.432 419.17 292.172 419.17 291.901C419.172 291.773 419.145 291.647 419.091 291.532C419.037 291.416 418.958 291.315 418.859 291.234C418.599 291.017 418.297 290.856 417.971 290.761V293.055C418.306 292.998 418.618 292.85 418.874 292.626V292.626Z" fill="#E0E0E0"/>
<path d="M646.358 104.929C631.019 86.7082 612.009 71.9289 590.569 61.5563C569.129 51.1837 545.742 45.4511 521.936 44.7331C498.129 44.0151 474.439 48.3278 452.413 57.3894C430.387 66.4511 410.521 80.0578 394.112 97.3206C393.712 97.7481 393.16 98.0003 392.575 98.0225C391.99 98.0446 391.42 97.835 390.989 97.4391C390.773 97.2383 390.6 96.9969 390.478 96.7288C390.356 96.4607 390.288 96.1712 390.279 95.8768C390.269 95.5825 390.318 95.2892 390.422 95.0137C390.526 94.7382 390.683 94.486 390.885 94.2716C407.723 76.5545 428.109 62.5892 450.712 53.2879C473.315 43.9867 497.626 39.5588 522.057 40.2936C546.488 41.0284 570.489 46.9093 592.492 57.5521C614.495 68.1949 634.005 83.3602 649.748 102.057L646.358 104.929Z" fill="#ACA7EC"/>
<path d="M650.283 105.21H636.458C635.87 105.21 635.305 104.976 634.889 104.56C634.472 104.143 634.238 103.578 634.238 102.99C634.238 102.401 634.472 101.836 634.889 101.42C635.305 101.003 635.87 100.769 636.458 100.769H645.843V91.3853C645.843 90.7964 646.077 90.2317 646.493 89.8153C646.909 89.3989 647.474 89.165 648.063 89.165C648.65 89.1689 649.213 89.4041 649.628 89.8196C650.044 90.2351 650.279 90.7976 650.283 91.3853V105.21Z" fill="#ACA7EC"/>
<path d="M614.525 357.633L612.023 353.963C631.522 340.701 648.035 323.513 660.507 303.499C672.978 283.486 681.132 261.089 684.447 237.742C684.528 237.164 684.832 236.64 685.294 236.284C685.756 235.927 686.339 235.765 686.919 235.832V235.832C687.509 235.91 688.045 236.218 688.408 236.69C688.772 237.161 688.933 237.758 688.858 238.349C685.455 262.311 677.085 285.298 664.285 305.839C651.485 326.379 634.536 344.021 614.525 357.633V357.633Z" fill="#968EFF"/>
<path d="M622.478 361.304L609.023 358.196L612.132 344.727C612.196 344.444 612.316 344.176 612.484 343.939C612.653 343.703 612.866 343.502 613.112 343.348C613.358 343.193 613.632 343.09 613.919 343.042C614.205 342.994 614.498 343.003 614.781 343.069C615.066 343.134 615.336 343.254 615.574 343.423C615.813 343.592 616.015 343.806 616.171 344.054C616.326 344.301 616.431 344.577 616.48 344.865C616.528 345.153 616.519 345.448 616.454 345.733L614.337 354.866L623.484 356.968C624.057 357.101 624.554 357.457 624.865 357.957C625.175 358.456 625.275 359.059 625.142 359.632C625.008 360.205 624.653 360.703 624.154 361.016C623.655 361.329 623.053 361.433 622.478 361.304Z" fill="#968EFF"/>
<path d="M388.273 330.828C365.869 306.267 351.023 275.766 345.512 242.982L349.878 242.242C355.247 274.19 369.72 303.91 391.559 327.838C391.951 328.271 392.159 328.84 392.136 329.424C392.114 330.008 391.865 330.56 391.441 330.962C391.224 331.162 390.971 331.317 390.694 331.419C390.417 331.52 390.124 331.566 389.829 331.554C389.535 331.541 389.246 331.471 388.979 331.346C388.712 331.222 388.472 331.046 388.273 330.828V330.828Z" fill="#968EFF"/>
<path d="M339.022 250.486C338.545 250.139 338.225 249.618 338.13 249.036C338.036 248.453 338.176 247.857 338.519 247.378L346.645 236.203L357.82 244.329C358.056 244.499 358.256 244.714 358.409 244.962C358.561 245.21 358.663 245.486 358.709 245.774C358.754 246.061 358.742 246.355 358.673 246.638C358.605 246.921 358.481 247.187 358.308 247.422V247.422C358.138 247.658 357.923 247.858 357.675 248.011C357.427 248.163 357.151 248.265 356.864 248.311C356.576 248.356 356.282 248.344 355.999 248.276C355.716 248.207 355.45 248.083 355.215 247.911L347.622 242.404L342.175 249.983C342.004 250.227 341.786 250.434 341.534 250.592C341.281 250.75 340.999 250.856 340.705 250.903C340.411 250.95 340.111 250.937 339.821 250.866C339.532 250.794 339.26 250.665 339.022 250.486Z" fill="#968EFF"/>
<path d="M732.576 147.024H720.734L722.215 98.179H731.095L732.576 147.024Z" fill="#263238"/>
<path opacity="0.7" d="M732.576 147.024H720.734L722.215 98.179H731.095L732.576 147.024Z" fill="white"/>
<path d="M731.828 122.231L731.694 117.421H721.644L721.496 122.231H731.828Z" fill="#5A50D8"/>
<path d="M721.789 112.611H731.543L731.395 107.8H721.922L721.789 112.611Z" fill="#5A50D8"/>
<path d="M732.119 131.852L731.971 127.042H721.343L721.195 131.852H732.119Z" fill="#5A50D8"/>
<path d="M732.419 141.473L732.271 136.663H721.051L720.918 141.473H732.419Z" fill="#5A50D8"/>
<path d="M731.239 102.989L731.091 98.179H722.211L722.062 102.989H731.239Z" fill="#5A50D8"/>
<path d="M752.322 147.024H740.48L741.961 98.179H750.841L752.322 147.024Z" fill="#263238"/>
<path opacity="0.7" d="M752.322 147.024H740.48L741.961 98.179H750.841L752.322 147.024Z" fill="white"/>
<path d="M751.569 122.231L751.421 117.421H741.371L741.223 122.231H751.569Z" fill="#5A50D8"/>
<path d="M741.516 112.611H751.27L751.122 107.8H741.664L741.516 112.611Z" fill="#5A50D8"/>
<path d="M751.85 131.852L751.717 127.042H741.075L740.941 131.852H751.85Z" fill="#5A50D8"/>
<path d="M752.145 141.473L751.997 136.663H740.793L740.645 141.473H752.145Z" fill="#5A50D8"/>
<path d="M750.971 102.989L750.837 98.179H741.957L741.809 102.989H750.971Z" fill="#5A50D8"/>
<path d="M584.074 228.432H765.644V151.598L674.851 106.808L584.074 151.598V228.432Z" fill="#5A50D8"/>
<path opacity="0.5" d="M584.074 228.432H765.644V151.598L674.851 106.808L584.074 151.598V228.432Z" fill="white"/>
<path d="M710.882 167.613H638.844V228.417H710.882V167.613Z" fill="#263238"/>
<path d="M651.677 167.613H638.844V228.417H651.677V167.613Z" fill="#263238"/>
<path opacity="0.5" d="M651.677 167.613H638.844V228.417H651.677V167.613Z" fill="white"/>
<path d="M669.67 185.877H658.82V199.347H669.67V185.877Z" fill="#263238"/>
<path opacity="0.6" d="M669.67 185.877H658.82V199.347H669.67V185.877Z" fill="white"/>
<path d="M676.333 185.877H669.672V199.347H676.333V185.877Z" fill="#263238"/>
<path opacity="0.4" d="M676.333 185.877H669.672V199.347H676.333V185.877Z" fill="white"/>
<path d="M672.336 185.877V189.977L672.514 189.829L672.81 190.022L673.076 189.829L673.431 190.022L673.786 189.829L674.009 190.022L674.275 189.874V185.877H672.336Z" fill="#5A50D8"/>
<path opacity="0.7" d="M672.336 185.877V189.977L672.514 189.829L672.81 190.022L673.076 189.829L673.431 190.022L673.786 189.829L674.009 190.022L674.275 189.874V185.877H672.336Z" fill="#5A50D8"/>
<path d="M689.088 185.877H678.238V199.347H689.088V185.877Z" fill="#263238"/>
<path opacity="0.6" d="M689.088 185.877H678.238V199.347H689.088V185.877Z" fill="white"/>
<path d="M695.766 185.877H689.105V199.347H695.766V185.877Z" fill="#263238"/>
<path opacity="0.4" d="M695.766 185.877H689.105V199.347H695.766V185.877Z" fill="white"/>
<path d="M691.766 185.877V189.977L691.928 189.829L692.239 190.022L692.506 189.829L692.846 190.022L693.216 189.829L693.438 190.022L693.705 189.874V185.877H691.766Z" fill="#5A50D8"/>
<path opacity="0.7" d="M691.766 185.877V189.977L691.928 189.829L692.239 190.022L692.506 189.829L692.846 190.022L693.216 189.829L693.438 190.022L693.705 189.874V185.877H691.766Z" fill="#5A50D8"/>
<path d="M764.384 154.291L674.85 110.109L585.316 154.291C584.967 154.463 584.588 154.565 584.199 154.591C583.811 154.616 583.422 154.565 583.053 154.44C582.685 154.315 582.345 154.118 582.052 153.862C581.76 153.605 581.521 153.293 581.349 152.944V152.944C581.177 152.595 581.075 152.216 581.049 151.828C581.024 151.44 581.075 151.05 581.2 150.682C581.325 150.313 581.522 149.973 581.778 149.681C582.035 149.388 582.347 149.149 582.696 148.977L674.85 103.448L766.974 148.977C767.323 149.149 767.635 149.388 767.891 149.681C768.148 149.973 768.345 150.313 768.47 150.682C768.595 151.05 768.646 151.44 768.62 151.828C768.595 152.216 768.493 152.595 768.321 152.944C767.974 153.642 767.366 154.174 766.629 154.426C765.892 154.678 765.085 154.63 764.384 154.291Z" fill="#263238"/>
<g opacity="0.5">
<path opacity="0.5" d="M764.388 154.291L674.854 110.109L585.32 154.291C584.971 154.463 584.591 154.565 584.203 154.591C583.815 154.616 583.426 154.565 583.057 154.44C582.689 154.315 582.349 154.118 582.056 153.862C581.764 153.605 581.525 153.293 581.353 152.944V152.944C581.181 152.595 581.079 152.216 581.053 151.828C581.028 151.44 581.079 151.05 581.204 150.682C581.329 150.313 581.526 149.973 581.782 149.681C582.039 149.388 582.351 149.149 582.7 148.977L674.854 103.448L766.978 148.977C767.327 149.149 767.639 149.388 767.895 149.681C768.152 149.973 768.348 150.313 768.474 150.682C768.599 151.05 768.65 151.44 768.624 151.828C768.599 152.216 768.497 152.595 768.325 152.944C767.978 153.642 767.37 154.174 766.633 154.426C765.896 154.678 765.089 154.63 764.388 154.291Z" fill="white"/>
</g>
<path d="M710.88 167.613H698.047V228.417H710.88V167.613Z" fill="#263238"/>
<path opacity="0.5" d="M710.88 167.613H698.047V228.417H710.88V167.613Z" fill="white"/>
<path d="M698.045 208.45H655.609V228.432H698.045V208.45Z" fill="#263238"/>
<path opacity="0.4" d="M698.045 208.45H655.609V228.432H698.045V208.45Z" fill="white"/>
<path d="M630.46 202.026H623.281V228.417H630.46V202.026Z" fill="#5A50D8"/>
<path d="M655.608 211.144C654.038 211.144 652.532 210.52 651.422 209.41C650.311 208.299 649.688 206.793 649.688 205.223C649.688 203.653 650.311 202.147 651.422 201.037C652.532 199.926 654.038 199.302 655.608 199.302H698.044V211.144H655.608Z" fill="#5A50D8"/>
<path d="M658.822 205.238C658.822 205.873 658.634 206.494 658.281 207.022C657.928 207.55 657.426 207.962 656.84 208.205C656.253 208.448 655.607 208.512 654.984 208.388C654.361 208.264 653.788 207.958 653.339 207.509C652.89 207.06 652.584 206.487 652.46 205.864C652.336 205.241 652.4 204.596 652.643 204.009C652.886 203.422 653.298 202.92 653.826 202.567C654.354 202.214 654.975 202.026 655.61 202.026C656.462 202.026 657.279 202.364 657.882 202.967C658.484 203.569 658.822 204.386 658.822 205.238Z" fill="#263238"/>
<path d="M627.382 202.026H596.402V228.417H627.382V202.026Z" fill="#5A50D8"/>
<path opacity="0.3" d="M627.382 202.026H596.402V228.417H627.382V202.026Z" fill="white"/>
<path opacity="0.8" d="M618.103 213.837H612.878L614.95 207.369L605.699 216.62H610.924L608.852 223.088L618.103 213.837Z" fill="white"/>
<path d="M363.507 317.285C379.873 317.285 393.14 304.018 393.14 287.652C393.14 271.286 379.873 258.02 363.507 258.02C347.142 258.02 333.875 271.286 333.875 287.652C333.875 304.018 347.142 317.285 363.507 317.285Z" fill="#5A50D8"/>
<path d="M358.902 317.285C375.268 317.285 388.535 304.018 388.535 287.652C388.535 271.287 375.268 258.02 358.902 258.02C342.536 258.02 329.27 271.287 329.27 287.652C329.27 304.018 342.536 317.285 358.902 317.285Z" fill="#5A50D8"/>
<path opacity="0.3" d="M358.902 317.285C375.268 317.285 388.535 304.018 388.535 287.652C388.535 271.287 375.268 258.02 358.902 258.02C342.536 258.02 329.27 271.287 329.27 287.652C329.27 304.018 342.536 317.285 358.902 317.285Z" fill="white"/>
<path opacity="0.2" d="M358.904 310.432C371.485 310.432 381.684 300.233 381.684 287.652C381.684 275.072 371.485 264.873 358.904 264.873C346.324 264.873 336.125 275.072 336.125 287.652C336.125 300.233 346.324 310.432 358.904 310.432Z" fill="white"/>
<path opacity="0.1" d="M339.574 287.652C339.576 281.913 341.746 276.387 345.648 272.18C349.551 267.973 354.899 265.394 360.621 264.962C360.059 264.962 359.482 264.873 358.904 264.873C352.863 264.873 347.069 267.273 342.797 271.545C338.525 275.817 336.125 281.611 336.125 287.652C336.125 293.694 338.525 299.488 342.797 303.76C347.069 308.032 352.863 310.432 358.904 310.432C359.482 310.432 360.059 310.432 360.621 310.343C354.898 309.913 349.548 307.336 345.644 303.128C341.741 298.92 339.573 293.392 339.574 287.652V287.652Z" fill="black"/>
<g opacity="0.1">
<path opacity="0.1" d="M369.607 295.867C367.96 297.319 365.878 298.183 363.687 298.324V302.113H360.297V298.428C358.676 298.348 357.072 298.049 355.531 297.539C354.216 297.149 352.979 296.533 351.875 295.719L353.725 291.589C354.637 292.247 355.633 292.779 356.685 293.173C357.829 293.597 359.023 293.871 360.238 293.987V288.333C358.852 288.018 357.496 287.587 356.182 287.045C355.096 286.591 354.139 285.874 353.4 284.958C352.613 283.913 352.22 282.624 352.289 281.317C352.28 280.416 352.456 279.522 352.808 278.692C353.159 277.861 353.678 277.113 354.332 276.492C355.972 275.031 358.059 274.17 360.253 274.05V270.29H363.642V273.976C366.067 274.093 368.425 274.804 370.51 276.048L368.823 280.207C367.235 279.27 365.472 278.67 363.642 278.446V284.203C365.012 284.496 366.354 284.907 367.653 285.432C368.728 285.885 369.674 286.597 370.406 287.504C371.197 288.537 371.596 289.817 371.531 291.116C371.555 291.997 371.396 292.875 371.065 293.692C370.734 294.51 370.238 295.25 369.607 295.867ZM358.462 282.546C359.019 282.968 359.652 283.28 360.327 283.463V278.653C359.627 278.774 358.979 279.099 358.462 279.585C358.082 279.986 357.866 280.514 357.855 281.065C357.831 281.343 357.873 281.622 357.979 281.879C358.084 282.137 358.25 282.365 358.462 282.546V282.546ZM365.537 293.069C365.739 292.881 365.899 292.651 366.007 292.396C366.114 292.141 366.166 291.866 366.158 291.589C366.165 291.324 366.111 291.061 366.001 290.82C365.89 290.579 365.727 290.366 365.522 290.198C364.984 289.773 364.372 289.452 363.716 289.251V293.928C364.413 293.81 365.058 293.485 365.566 292.995L365.537 293.069Z" fill="black"/>
</g>
<path d="M367.338 295.867C365.692 297.322 363.609 298.186 361.417 298.324V302.113H358.027V298.428C356.406 298.347 354.803 298.048 353.261 297.539C351.948 297.145 350.711 296.53 349.605 295.719L351.47 291.589C352.38 292.251 353.376 292.784 354.431 293.173C355.575 293.597 356.769 293.871 357.983 293.987V288.333C356.598 288.016 355.242 287.585 353.927 287.045C352.843 286.587 351.888 285.871 351.145 284.958C350.358 283.913 349.965 282.624 350.035 281.317C350.025 280.416 350.202 279.522 350.553 278.692C350.905 277.861 351.423 277.113 352.077 276.492C353.718 275.033 355.805 274.172 357.998 274.05V270.29H361.417V273.976C363.847 274.09 366.211 274.802 368.3 276.048L366.598 280.207C365.01 279.27 363.247 278.67 361.417 278.446V284.203C362.787 284.496 364.129 284.907 365.428 285.432C366.505 285.888 367.455 286.599 368.196 287.504C368.976 288.542 369.369 289.819 369.306 291.116C369.327 292.001 369.162 292.881 368.823 293.699C368.484 294.517 367.978 295.256 367.338 295.867V295.867ZM356.237 282.442C356.79 282.862 357.418 283.173 358.087 283.36V278.549C357.374 278.677 356.715 279.012 356.192 279.511C355.813 279.912 355.597 280.44 355.585 280.991C355.55 281.281 355.587 281.574 355.693 281.845C355.799 282.116 355.97 282.357 356.192 282.546L356.237 282.442ZM363.312 292.966C363.51 292.775 363.666 292.544 363.771 292.29C363.875 292.035 363.926 291.761 363.918 291.486C363.925 291.222 363.872 290.961 363.764 290.72C363.657 290.479 363.497 290.266 363.297 290.094C362.753 289.669 362.136 289.348 361.476 289.147V293.824C362.138 293.719 362.758 293.432 363.267 292.995L363.312 292.966Z" fill="#5A50D8"/>
<path d="M536.637 63.3791C548.21 51.8069 548.21 33.0447 536.637 21.4724C525.065 9.90024 506.303 9.90023 494.731 21.4724C483.158 33.0446 483.158 51.8069 494.731 63.3791C506.303 74.9513 525.065 74.9513 536.637 63.3791Z" fill="#5A50D8"/>
<path d="M539.885 49.2283C543.645 33.3003 533.78 17.3406 517.852 13.5813C501.924 9.82196 485.965 19.6866 482.205 35.6145C478.446 51.5424 488.311 67.5021 504.239 71.2615C520.166 75.0208 536.126 65.1562 539.885 49.2283Z" fill="#5A50D8"/>
<path opacity="0.3" d="M539.885 49.2283C543.645 33.3003 533.78 17.3406 517.852 13.5813C501.924 9.82196 485.965 19.6866 482.205 35.6145C478.446 51.5424 488.311 67.5021 504.239 71.2615C520.166 75.0208 536.126 65.1562 539.885 49.2283Z" fill="white"/>
<path opacity="0.2" d="M511.061 65.2162C523.641 65.2162 533.84 55.0175 533.84 42.4368C533.84 29.856 523.641 19.6573 511.061 19.6573C498.48 19.6573 488.281 29.856 488.281 42.4368C488.281 55.0175 498.48 65.2162 511.061 65.2162Z" fill="white"/>
<path opacity="0.1" d="M491.745 42.4368C491.747 36.698 493.917 31.1719 497.819 26.9645C501.722 22.7571 507.07 20.179 512.792 19.7462C512.215 19.7462 511.653 19.6573 511.061 19.6573C505.019 19.6573 499.225 22.0573 494.953 26.3293C490.681 30.6013 488.281 36.3953 488.281 42.4368C488.281 48.4782 490.681 54.2723 494.953 58.5443C499.225 62.8162 505.019 65.2162 511.061 65.2162C511.653 65.2162 512.215 65.2162 512.792 65.1274C507.07 64.6946 501.722 62.1164 497.819 57.909C493.917 53.7017 491.747 48.1755 491.745 42.4368V42.4368Z" fill="black"/>
<g opacity="0.1">
<path opacity="0.1" d="M521.763 50.6664C520.123 52.13 518.036 52.9959 515.842 53.1234V56.9274H512.452V53.227C510.828 53.145 509.22 52.8515 507.672 52.3537C506.358 51.9519 505.122 51.3314 504.016 50.5184L505.881 46.3888C506.788 47.0564 507.785 47.5945 508.841 47.9873C509.982 48.4169 511.178 48.6859 512.393 48.7866V43.1324C511.002 42.822 509.64 42.3912 508.323 41.8447C507.242 41.3957 506.29 40.6833 505.555 39.7725C504.762 38.7296 504.364 37.4398 504.43 36.1314C504.419 35.2282 504.596 34.3327 504.95 33.5019C505.304 32.6711 505.828 31.9232 506.487 31.3061C508.125 29.8395 510.213 28.9731 512.408 28.849V25.0895H515.798V28.775C518.258 28.9075 520.647 29.6446 522.754 30.9212L521.067 35.0805C519.476 34.1518 517.714 33.5528 515.886 33.3191V39.0768C517.255 39.3825 518.596 39.7983 519.898 40.3202C520.971 40.7676 521.917 41.4746 522.651 42.3776C523.435 43.4137 523.833 44.691 523.776 45.9891C523.779 46.8652 523.602 47.7326 523.256 48.5373C522.91 49.342 522.401 50.0667 521.763 50.6664ZM510.661 37.2415C511.215 37.6695 511.849 37.9816 512.526 38.1592V33.3487C511.815 33.4797 511.157 33.8139 510.632 34.3108C510.25 34.71 510.033 35.2387 510.025 35.7909C510.006 36.0662 510.053 36.3421 510.164 36.5947C510.275 36.8474 510.446 37.0694 510.661 37.2415V37.2415ZM517.737 47.7801C517.936 47.5896 518.093 47.3594 518.197 47.1044C518.302 46.8495 518.352 46.5754 518.343 46.2999C518.351 46.0384 518.298 45.7787 518.191 45.5403C518.083 45.3019 517.923 45.091 517.722 44.9234C517.187 44.4928 516.574 44.1709 515.916 43.9761V48.683C516.597 48.5625 517.229 48.2491 517.737 47.7801V47.7801Z" fill="black"/>
</g>
<path d="M519.466 50.6662C517.823 52.1249 515.738 52.9901 513.545 53.1233V56.9273H510.156V53.2269C508.531 53.1436 506.924 52.85 505.375 52.3536C504.062 51.9518 502.826 51.3313 501.719 50.5182L503.584 46.3886C504.492 47.0563 505.488 47.5943 506.544 47.9872C507.686 48.4137 508.881 48.6826 510.096 48.7865V43.1323C508.705 42.8219 507.343 42.391 506.026 41.8446C504.947 41.3918 503.996 40.6801 503.258 39.7724C502.471 38.7266 502.073 37.4389 502.133 36.1312C502.125 35.2285 502.303 34.3338 502.657 33.5034C503.011 32.6729 503.533 31.9248 504.191 31.306C505.828 29.8393 507.916 28.9729 510.111 28.8489V25.0894H513.501V28.7749C515.924 28.8992 518.281 29.6103 520.369 30.8471L518.681 35.0063C517.09 34.0777 515.328 33.4787 513.501 33.245V39.0027C514.87 39.3062 516.211 39.722 517.512 40.246C518.586 40.6935 519.532 41.4004 520.265 42.3034C521.056 43.3361 521.454 44.6159 521.39 45.915C521.413 46.7967 521.255 47.6738 520.923 48.4914C520.592 49.3089 520.096 50.0493 519.466 50.6662V50.6662ZM508.35 37.2413C508.904 37.6694 509.538 37.9815 510.215 38.159V33.3486C509.504 33.4796 508.846 33.8138 508.32 34.3107C507.939 34.7099 507.722 35.2386 507.713 35.7908C507.694 36.0661 507.742 36.3419 507.853 36.5946C507.963 36.8473 508.134 37.0693 508.35 37.2413ZM515.425 47.78C515.626 47.5902 515.785 47.3605 515.892 47.1056C515.999 46.8507 516.052 46.5762 516.047 46.2998C516.051 46.0373 515.996 45.7772 515.886 45.5389C515.775 45.3005 515.613 45.0901 515.41 44.9233C514.876 44.4926 514.262 44.1708 513.604 43.976V48.6829C514.285 48.5624 514.917 48.249 515.425 47.78V47.78Z" fill="#5A50D8"/>
<path d="M584.439 257.635H549.566C549.165 257.625 548.766 257.696 548.393 257.845C548.021 257.994 547.682 258.217 547.398 258.501C547.114 258.785 546.891 259.123 546.742 259.496C546.594 259.869 546.522 260.268 546.532 260.669V295.527C546.53 295.926 546.607 296.323 546.759 296.692C546.911 297.062 547.134 297.399 547.416 297.682C547.698 297.965 548.033 298.19 548.402 298.343C548.771 298.497 549.167 298.576 549.566 298.576V298.576V304.496C549.573 304.91 549.7 305.313 549.933 305.655C550.166 305.997 550.495 306.264 550.877 306.421C551.26 306.579 551.681 306.62 552.087 306.541C552.493 306.462 552.867 306.266 553.163 305.976L560.564 298.576H584.439C584.838 298.576 585.234 298.497 585.603 298.343C585.972 298.19 586.308 297.965 586.59 297.682C586.871 297.399 587.095 297.062 587.246 296.692C587.398 296.323 587.475 295.926 587.473 295.527V260.669C587.483 260.268 587.412 259.869 587.263 259.496C587.114 259.123 586.891 258.785 586.607 258.501C586.323 258.217 585.985 257.994 585.612 257.845C585.239 257.696 584.84 257.625 584.439 257.635Z" fill="#5A50D8"/>
<g opacity="0.9">
<path opacity="0.9" d="M576.761 274.671H558.185L557.489 272.096H551.258V273.25H556.601L560.464 287.519H573.253V286.365H561.412L560.731 283.863H573.726L576.761 274.671ZM560.361 282.709L558.496 275.826H575.147L572.838 282.709H560.361Z" fill="white"/>
<path opacity="0.9" d="M561.104 290.228C561.741 290.228 562.258 289.711 562.258 289.073C562.258 288.436 561.741 287.919 561.104 287.919C560.466 287.919 559.949 288.436 559.949 289.073C559.949 289.711 560.466 290.228 561.104 290.228Z" fill="white"/>
<path opacity="0.9" d="M574.407 289.073C574.407 289.302 574.339 289.525 574.212 289.715C574.085 289.904 573.905 290.052 573.694 290.14C573.483 290.227 573.251 290.25 573.027 290.206C572.803 290.161 572.597 290.051 572.436 289.89C572.274 289.728 572.164 289.522 572.12 289.298C572.075 289.074 572.098 288.842 572.186 288.631C572.273 288.42 572.421 288.24 572.611 288.113C572.801 287.986 573.024 287.919 573.252 287.919C573.558 287.919 573.852 288.04 574.068 288.257C574.285 288.473 574.407 288.767 574.407 289.073Z" fill="white"/>
</g>
<path d="M572.95 277.735C576.702 277.735 579.744 274.693 579.744 270.941C579.744 267.189 576.702 264.147 572.95 264.147C569.198 264.147 566.156 267.189 566.156 270.941C566.156 274.693 569.198 277.735 572.95 277.735Z" fill="#5A50D8"/>
<path opacity="0.3" d="M572.95 277.735C576.702 277.735 579.744 274.693 579.744 270.941C579.744 267.189 576.702 264.147 572.95 264.147C569.198 264.147 566.156 267.189 566.156 270.941C566.156 274.693 569.198 277.735 572.95 277.735Z" fill="black"/>
<g opacity="0.9">
<path opacity="0.9" d="M572.738 275.337L567.158 269.55C566.734 269.123 566.496 268.546 566.496 267.944C566.496 267.342 566.734 266.765 567.158 266.338C567.368 266.126 567.619 265.959 567.894 265.844C568.17 265.729 568.465 265.67 568.764 265.67C569.062 265.67 569.358 265.729 569.633 265.844C569.909 265.959 570.159 266.126 570.37 266.338L572.812 268.869L580.213 261.394C580.423 261.183 580.673 261.015 580.949 260.9C581.225 260.786 581.52 260.727 581.819 260.727C582.117 260.727 582.413 260.786 582.688 260.9C582.964 261.015 583.214 261.183 583.425 261.394V261.394C583.848 261.819 584.085 262.394 584.085 262.993C584.085 263.592 583.848 264.167 583.425 264.592L572.738 275.337Z" fill="white"/>
</g>
<path d="M414.041 122.172H283.285V228.432H414.041V122.172Z" fill="#5A50D8"/>
<path opacity="0.5" d="M414.041 122.172H283.285V228.432H414.041V122.172Z" fill="white"/>
<path d="M298.737 110.316H278.77V124.466H298.737V110.316Z" fill="#5A50D8"/>
<path d="M338.432 110.316H318.465V124.466H338.432V110.316Z" fill="#5A50D8"/>
<path d="M378.143 110.316H358.176V124.466H378.143V110.316Z" fill="#5A50D8"/>
<path d="M417.862 110.316H397.895V124.466H417.862V110.316Z" fill="#5A50D8"/>
<g opacity="0.2">
<path opacity="0.2" d="M298.737 110.316H278.77V124.466H298.737V110.316Z" fill="white"/>
<path opacity="0.2" d="M338.432 110.316H318.465V124.466H338.432V110.316Z" fill="white"/>
<path opacity="0.2" d="M378.143 110.316H358.176V124.466H378.143V110.316Z" fill="white"/>
<path opacity="0.2" d="M417.858 110.316H397.891V124.466H417.858V110.316Z" fill="white"/>
</g>
<path d="M299.343 134.25C299.343 137.699 294.74 140.496 288.982 140.496C283.224 140.496 278.621 137.699 278.621 134.25V124.318H298.588L299.343 134.25Z" fill="#5A50D8"/>
<path d="M339.086 134.25C339.086 137.699 334.482 140.496 328.725 140.496C322.967 140.496 318.438 137.699 318.438 134.25V124.318H338.419L339.086 134.25Z" fill="#5A50D8"/>
<path d="M378.828 134.25C378.828 137.699 374.225 140.496 368.541 140.496C362.857 140.496 358.254 137.699 358.254 134.25V124.318H378.236L378.828 134.25Z" fill="#5A50D8"/>
<path d="M417.872 134.25C417.872 137.699 413.861 140.496 408.177 140.496C402.494 140.496 397.816 137.699 397.816 134.25V124.318H417.798L417.872 134.25Z" fill="#5A50D8"/>
<path d="M318.58 124.318V110.316H298.613V124.452V134.25C298.613 137.699 303.217 140.496 308.974 140.496C314.732 140.496 318.669 137.699 318.669 134.25V124.318H318.58Z" fill="#263238"/>
<path opacity="0.8" d="M318.58 110.316H298.613V134.25C298.613 137.699 303.217 140.496 308.974 140.496C314.732 140.496 318.669 137.699 318.669 134.25L318.58 110.316Z" fill="white"/>
<path d="M358.461 124.318V110.316H338.449V124.452V134.25C338.449 137.699 343.052 140.496 348.736 140.496C354.42 140.496 358.431 137.699 358.431 134.25V124.318H358.461Z" fill="#263238"/>
<path opacity="0.8" d="M358.461 110.316H338.449V134.25C338.449 137.699 343.052 140.496 348.736 140.496C354.42 140.496 358.431 137.699 358.431 134.25L358.461 110.316Z" fill="white"/>
<path d="M398.127 124.318V110.316H378.16V124.452V134.25C378.16 137.699 382.763 140.496 388.521 140.496C394.279 140.496 398.216 137.699 398.216 134.25V124.318H398.127Z" fill="#263238"/>
<path opacity="0.8" d="M398.127 110.316H378.16V134.25C378.16 137.699 382.763 140.496 388.521 140.496C394.279 140.496 398.216 137.699 398.216 134.25L398.127 110.316Z" fill="white"/>
<path opacity="0.5" d="M399.908 155.416H340.273V189.252H399.908V155.416Z" fill="white"/>
<path opacity="0.4" d="M378.454 189.223H367.664L375.76 155.757H386.566L378.454 189.223Z" fill="white"/>
<path opacity="0.4" d="M383.695 189.223H381.297L389.408 155.757H391.791L383.695 189.223Z" fill="white"/>
<path opacity="0.4" d="M350.44 189.223H349.227L357.338 155.757H358.551L350.44 189.223Z" fill="white"/>
<path d="M401.089 190.436H339.086V154.232H401.089V190.436ZM341.454 188.068H398.721V156.6H341.454V188.068Z" fill="#5A50D8"/>
<path d="M325.736 143.042H289.887V228.135H325.736V143.042Z" fill="#5A50D8"/>
<path opacity="0.7" d="M324.21 144.582H291.41V228.121H324.21V144.582Z" fill="white"/>
<path opacity="0.1" d="M307.042 155.609H293.898V186.203H307.042V155.609Z" fill="black"/>
<path opacity="0.1" d="M321.898 155.609H308.754V186.203H321.898V155.609Z" fill="black"/>
<path opacity="0.1" d="M321.903 195.454H293.898V226.049H321.903V195.454Z" fill="black"/>
<path opacity="0.1" d="M321.918 154.025H293.898C293.898 152.109 294.659 150.272 296.014 148.917C297.369 147.563 299.206 146.802 301.122 146.802H314.694C316.61 146.802 318.447 147.563 319.802 148.917C321.157 150.272 321.918 152.109 321.918 154.025Z" fill="black"/>
<path d="M296.296 187.58H293.898V193.811H296.296V187.58Z" fill="#5A50D8"/>
<path opacity="0.3" d="M296.296 187.58H293.898V193.811H296.296V187.58Z" fill="white"/>
<path d="M296.28 193.811H296.754V187.58H296.28V193.811Z" fill="#5A50D8"/>
<path d="M295.493 190.022C295.493 190.221 295.434 190.416 295.324 190.581C295.213 190.747 295.056 190.876 294.872 190.952C294.688 191.028 294.486 191.048 294.291 191.009C294.095 190.97 293.916 190.874 293.775 190.734C293.634 190.593 293.539 190.413 293.5 190.218C293.461 190.023 293.481 189.821 293.557 189.637C293.633 189.453 293.762 189.296 293.928 189.185C294.093 189.074 294.288 189.015 294.487 189.015C294.754 189.015 295.01 189.121 295.199 189.31C295.387 189.499 295.493 189.755 295.493 190.022V190.022Z" fill="#263238"/>
<path opacity="0.5" d="M295.303 191.769H294.785V193.027H295.303V191.769Z" fill="white"/>
<path d="M293.601 191.428C294.378 191.428 295.008 190.798 295.008 190.022C295.008 189.245 294.378 188.616 293.601 188.616C292.825 188.616 292.195 189.245 292.195 190.022C292.195 190.798 292.825 191.428 293.601 191.428Z" fill="#263238"/>
<path opacity="0.2" d="M293.601 191.428C294.378 191.428 295.008 190.798 295.008 190.022C295.008 189.245 294.378 188.616 293.601 188.616C292.825 188.616 292.195 189.245 292.195 190.022C292.195 190.798 292.825 191.428 293.601 191.428Z" fill="white"/>
<path d="M697.803 534.747C601.535 547.726 445.465 547.726 349.197 534.747C252.929 521.767 252.94 500.723 349.197 487.743C445.454 474.764 601.535 474.764 697.803 487.743C794.071 500.723 794.06 521.773 697.803 534.747Z" fill="url(#paint1_linear_202_185)"/>
<path d="M552.825 463.982C565.021 464.604 571.119 464.989 583.301 465.951C581.327 422.079 578.776 378.247 575.648 334.455C575.234 328.889 569.846 324.094 563.63 323.724L551.788 323.132C505.623 321.415 459.664 321.918 413.543 324.612C423.855 370.871 433.461 417.249 442.361 463.745C479.291 462.354 515.939 462.398 552.825 463.982Z" fill="url(#paint2_linear_202_185)"/>
<path opacity="0.5" d="M552.825 463.982C565.021 464.604 571.119 464.989 583.301 465.951C581.327 422.079 578.776 378.247 575.648 334.455C575.234 328.889 569.846 324.094 563.63 323.724L551.788 323.132C505.623 321.415 459.664 321.918 413.543 324.612C423.855 370.871 433.461 417.249 442.361 463.745C479.291 462.354 515.939 462.398 552.825 463.982Z" fill="white"/>
<path d="M456.013 463.271C443.816 463.715 437.718 464.026 425.522 464.752C417.292 421.61 408.54 378.582 399.264 335.668C398.065 330.221 402.136 325.396 408.367 324.952C413.074 324.626 415.442 324.463 420.208 324.182C426.44 323.797 432.345 327.986 433.381 333.463C441.453 376.663 448.997 419.933 456.013 463.271Z" fill="url(#paint3_linear_202_185)"/>
<path d="M473.015 487.59L467.243 421.546C467.113 420.117 466.5 418.775 465.504 417.742C464.508 416.708 463.19 416.045 461.766 415.863L459.383 415.552C457.462 415.319 455.678 414.433 454.331 413.043C452.984 411.653 452.155 409.842 451.983 407.914L450.932 395.881C450.829 394.713 450.971 393.536 451.347 392.426C451.724 391.315 452.327 390.295 453.12 389.431C453.912 388.566 454.875 387.876 455.948 387.404C457.021 386.932 458.181 386.689 459.354 386.689H406.069C404.897 386.691 403.739 386.936 402.668 387.409C401.596 387.882 400.635 388.572 399.844 389.436C399.054 390.301 398.451 391.32 398.076 392.429C397.7 393.539 397.559 394.714 397.661 395.881L398.712 407.914C398.885 409.842 399.714 411.653 401.061 413.043C402.408 414.433 404.191 415.319 406.113 415.552L408.496 415.863C409.919 416.045 411.238 416.708 412.234 417.742C413.229 418.775 413.843 420.117 413.973 421.546L419.745 487.59C419.949 489.911 421.015 492.071 422.733 493.643C424.451 495.216 426.696 496.088 429.026 496.086H482.311C479.98 496.088 477.733 495.217 476.012 493.645C474.292 492.072 473.223 489.912 473.015 487.59V487.59Z" fill="url(#paint4_linear_202_185)"/>
<g opacity="0.2">
<path opacity="0.2" d="M473.015 487.59L467.243 421.546C467.113 420.117 466.5 418.775 465.504 417.742C464.508 416.708 463.19 416.045 461.766 415.863L459.383 415.552C457.462 415.319 455.678 414.433 454.331 413.043C452.984 411.653 452.155 409.842 451.983 407.914L450.932 395.881C450.829 394.713 450.971 393.536 451.347 392.426C451.724 391.315 452.327 390.295 453.12 389.431C453.912 388.566 454.875 387.876 455.948 387.404C457.021 386.932 458.181 386.689 459.354 386.689H406.069C404.897 386.691 403.739 386.936 402.668 387.409C401.596 387.882 400.635 388.572 399.844 389.436C399.054 390.301 398.451 391.32 398.076 392.429C397.7 393.539 397.559 394.714 397.661 395.881L398.712 407.914C398.885 409.842 399.714 411.653 401.061 413.043C402.408 414.433 404.191 415.319 406.113 415.552L408.496 415.863C409.919 416.045 411.238 416.708 412.234 417.742C413.229 418.775 413.843 420.117 413.973 421.546L419.745 487.59C419.949 489.911 421.015 492.071 422.733 493.643C424.451 495.216 426.696 496.088 429.026 496.086H482.311C479.98 496.088 477.733 495.217 476.012 493.645C474.292 492.072 473.223 489.912 473.015 487.59V487.59Z" fill="white"/>
</g>
<path d="M619.672 405.028C620.109 400.022 622.407 395.362 626.111 391.967C629.816 388.572 634.659 386.688 639.684 386.689H593.281C588.257 386.692 583.416 388.576 579.712 391.97C576.008 395.365 573.71 400.023 573.27 405.028L568.637 457.366H615.024L619.672 405.028Z" fill="url(#paint5_linear_202_185)"/>
<path opacity="0.2" d="M619.672 405.028C620.109 400.022 622.407 395.362 626.111 391.967C629.816 388.572 634.659 386.688 639.684 386.689H593.281C588.257 386.692 583.416 388.576 579.712 391.97C576.008 395.365 573.71 400.023 573.27 405.028L568.637 457.366H615.024L619.672 405.028Z" fill="white"/>
<path d="M609.327 454.924C577.219 458.671 544.833 459.434 512.584 457.203C511.476 457.15 510.389 456.878 509.387 456.401C508.384 455.925 507.487 455.254 506.746 454.428C506.005 453.601 505.436 452.636 505.071 451.588C504.706 450.54 504.553 449.43 504.621 448.322C505.554 439.841 506.013 435.608 506.945 427.126C507.195 425.004 508.262 423.062 509.92 421.713C511.578 420.365 513.697 419.715 515.826 419.903C545.265 422.592 574.915 421.877 604.19 417.772C606.316 417.468 608.476 418.007 610.21 419.273C611.944 420.54 613.114 422.434 613.471 424.551L616.801 445.613C616.933 446.717 616.843 447.836 616.537 448.905C616.23 449.974 615.714 450.971 615.018 451.838C614.322 452.704 613.46 453.424 612.483 453.954C611.506 454.484 610.433 454.813 609.327 454.924V454.924Z" fill="url(#paint6_linear_202_185)"/>
<path d="M515.243 419.903C507.843 419.237 504.246 418.823 496.949 417.816C494.821 417.508 492.657 418.045 490.92 419.312C489.183 420.579 488.01 422.475 487.653 424.595L484.264 445.658C484.139 446.762 484.235 447.879 484.547 448.945C484.859 450.012 485.38 451.005 486.08 451.868C486.78 452.73 487.645 453.445 488.624 453.969C489.603 454.494 490.677 454.818 491.783 454.923C499.791 456.019 503.787 456.478 511.824 457.203C513.23 442.283 513.867 434.823 515.243 419.903Z" fill="url(#paint7_linear_202_185)"/>
<g opacity="0.4">
<path opacity="0.4" d="M609.327 454.924C577.219 458.671 544.833 459.434 512.584 457.203C511.476 457.15 510.389 456.878 509.387 456.401C508.384 455.925 507.487 455.254 506.746 454.428C506.005 453.601 505.436 452.636 505.071 451.588C504.706 450.54 504.553 449.43 504.621 448.322C505.554 439.841 506.013 435.608 506.945 427.126C507.195 425.004 508.262 423.062 509.92 421.713C511.578 420.365 513.697 419.715 515.826 419.903C545.265 422.592 574.915 421.877 604.19 417.772C606.316 417.468 608.476 418.007 610.21 419.273C611.944 420.54 613.114 422.434 613.471 424.551L616.801 445.613C616.933 446.717 616.843 447.836 616.537 448.905C616.23 449.974 615.714 450.971 615.018 451.838C614.322 452.704 613.46 453.424 612.483 453.954C611.506 454.484 610.433 454.813 609.327 454.924V454.924Z" fill="white"/>
</g>
<path d="M660.267 386.689H639.678C634.656 386.692 629.817 388.577 626.115 391.971C622.414 395.366 620.118 400.024 619.682 405.028L615.093 457.366H504.586L500.012 405.028C499.575 400.024 497.28 395.366 493.578 391.971C489.877 388.577 485.038 386.692 480.015 386.689H459.412C458.239 386.688 457.079 386.932 456.006 387.404C454.933 387.876 453.969 388.566 453.177 389.431C452.385 390.295 451.782 391.315 451.405 392.425C451.028 393.536 450.887 394.712 450.989 395.88L452.04 407.914C452.213 409.842 453.042 411.653 454.389 413.043C455.736 414.433 457.519 415.319 459.441 415.552L461.824 415.862C463.248 416.045 464.566 416.708 465.562 417.741C466.557 418.775 467.171 420.117 467.301 421.546L473.073 487.59C473.28 489.909 474.347 492.067 476.065 493.639C477.782 495.211 480.025 496.084 482.354 496.086H637.369C639.7 496.088 641.947 495.217 643.668 493.644C645.388 492.072 646.457 489.912 646.665 487.59L652.437 421.546C652.562 420.115 653.173 418.77 654.17 417.736C655.167 416.701 656.488 416.04 657.914 415.862L660.282 415.552C662.205 415.321 663.99 414.436 665.337 413.046C666.685 411.655 667.513 409.843 667.683 407.914L668.734 395.88C668.839 394.708 668.698 393.527 668.319 392.412C667.941 391.298 667.333 390.275 666.536 389.409C665.739 388.544 664.769 387.854 663.689 387.386C662.61 386.917 661.444 386.68 660.267 386.689Z" fill="url(#paint8_linear_202_185)"/>
<path opacity="0.6" d="M660.267 386.689H639.678C634.656 386.692 629.817 388.577 626.115 391.971C622.414 395.366 620.118 400.024 619.682 405.028L615.093 457.366H504.586L500.012 405.028C499.575 400.024 497.28 395.366 493.578 391.971C489.877 388.577 485.038 386.692 480.015 386.689H459.412C458.239 386.688 457.079 386.932 456.006 387.404C454.933 387.876 453.969 388.566 453.177 389.431C452.385 390.295 451.782 391.315 451.405 392.425C451.028 393.536 450.887 394.712 450.989 395.88L452.04 407.914C452.213 409.842 453.042 411.653 454.389 413.043C455.736 414.433 457.519 415.319 459.441 415.552L461.824 415.862C463.248 416.045 464.566 416.708 465.562 417.741C466.557 418.775 467.171 420.117 467.301 421.546L473.073 487.59C473.28 489.909 474.347 492.067 476.065 493.639C477.782 495.211 480.025 496.084 482.354 496.086H637.369C639.7 496.088 641.947 495.217 643.668 493.644C645.388 492.072 646.457 489.912 646.665 487.59L652.437 421.546C652.562 420.115 653.173 418.77 654.17 417.736C655.167 416.701 656.488 416.04 657.914 415.862L660.282 415.552C662.205 415.321 663.99 414.436 665.337 413.046C666.685 411.655 667.513 409.843 667.683 407.914L668.734 395.88C668.839 394.708 668.698 393.527 668.319 392.412C667.941 391.298 667.333 390.275 666.536 389.409C665.739 388.544 664.769 387.854 663.689 387.386C662.61 386.917 661.444 386.68 660.267 386.689Z" fill="white"/>
<path d="M593.203 468.866L598.162 491.883L605.888 489.218L604.985 467.446L593.203 468.866Z" fill="#FFC3BD"/>
<path d="M520.752 372.243C528.152 372.318 535.525 371.357 542.658 369.386L549.94 384.676C549.94 384.676 595.514 376.505 601.316 390.596C606.275 402.571 606.482 476.445 606.482 476.445L593.797 477.925C593.797 477.925 579.899 424.151 579.958 406.345C579.962 406.031 579.877 405.722 579.714 405.453C579.55 405.184 579.315 404.967 579.033 404.827C578.752 404.686 578.437 404.628 578.124 404.658C577.811 404.688 577.513 404.806 577.264 404.998C570.263 410.445 551.628 422.227 523.416 420.407C519.05 420.125 513.943 419.178 515.246 404.924C516.491 393.939 518.329 383.029 520.752 372.243V372.243Z" fill="url(#paint9_linear_202_185)"/>
<path opacity="0.1" d="M546.006 412.799C558.513 407.248 575.86 392.077 583.883 386.452C585.746 385.083 587.865 384.102 590.114 383.566C583.158 382.086 574.247 382.086 566.58 382.693L548.389 390.73L519.186 403.755L515.574 414.116C516.832 419.667 520.325 420.244 523.463 420.451C534.576 421.229 545.733 419.78 556.278 416.188C554.828 416.262 533.943 418.142 546.006 412.799Z" fill="black"/>
<path d="M633.141 426.697L648.771 442.49L654.84 437.709L642.791 419.593L633.141 426.697Z" fill="#FFC3BD"/>
<path d="M653.71 435.548L646.665 440.921C646.519 441.039 646.417 441.202 646.374 441.384C646.331 441.566 646.35 441.758 646.428 441.928L649.995 449.625C650.147 449.952 650.421 450.207 650.759 450.334C651.096 450.462 651.471 450.451 651.801 450.305C651.889 450.265 651.974 450.215 652.052 450.157C654.939 447.878 657.41 445.717 661.037 442.949C665.329 439.678 664.634 441.025 669.725 437.236C672.804 434.956 670.717 431.078 669.296 431.892C662.828 435.652 659.808 435.149 655.975 434.779C655.15 434.739 654.34 435.014 653.71 435.548V435.548Z" fill="#443CAD"/>
<path opacity="0.1" d="M525.476 383.388L533.262 385.253C533.262 385.253 547.826 373.93 541.032 377.675C536.074 380.428 533.632 374.714 532.61 371.473C529.517 371.902 526.808 372.095 524.766 372.183L525.476 383.388Z" fill="black"/>
<path d="M528.822 371.355C509.506 374.552 500.981 371.547 500.981 371.547C500.981 371.547 487.215 420.999 517.573 420.791C531.028 420.703 536.608 415.433 545.355 410.297C565.248 398.619 581.678 381.316 589.375 382.441C600.432 384.039 594.17 397.242 639.27 433.905L648.625 425.676C648.625 425.676 609.653 355.68 589.182 355.828C569.467 355.961 537.747 380.739 533.573 380.768C529.399 380.798 528.822 371.355 528.822 371.355Z" fill="url(#paint10_linear_202_185)"/>
<path opacity="0.1" d="M595.527 385.253C598.071 386.207 600.15 388.105 601.329 390.552C602.089 392.679 602.615 394.883 602.898 397.124C604.171 398.959 605.681 401.017 607.457 403.267C606.273 388.435 595.527 385.253 595.527 385.253Z" fill="black"/>
<path d="M605.765 487.146L596.884 487.679C596.697 487.687 596.518 487.759 596.378 487.883C596.238 488.007 596.145 488.175 596.114 488.36L594.767 496.752C594.735 496.93 594.74 497.111 594.779 497.287C594.819 497.462 594.893 497.628 594.998 497.774C595.103 497.921 595.236 498.044 595.39 498.138C595.543 498.232 595.714 498.294 595.892 498.321C595.985 498.336 596.08 498.336 596.173 498.321C599.844 498.04 603.086 497.655 607.659 497.389C613.047 497.063 611.715 497.788 618.02 497.507C621.854 497.33 622.283 492.948 620.655 492.83C613.254 492.342 610.975 490.225 607.955 487.738C607.318 487.288 606.542 487.079 605.765 487.146V487.146Z" fill="#443CAD"/>
<path d="M526.541 305.725C529.043 304.763 533.187 306.421 536.784 312.844C540.38 319.268 555.685 345.763 551.334 349.167C546.982 352.571 538.649 342.921 535.585 335.994C532.521 329.067 522.16 307.427 526.541 305.725Z" fill="#443CAD"/>
<path opacity="0.4" d="M533.262 317.951L533.795 322.199L533.513 331.391C534.342 333.241 535.068 334.825 535.586 335.994C536.917 338.871 538.624 341.558 540.662 343.987C541.314 331.035 536.429 317.951 536.429 317.951H533.262Z" fill="black"/>
<path d="M500.025 372.494C500.025 372.494 526.771 375.677 543.837 370.067C543.837 370.067 538.642 363.525 537.917 350.425C537.251 337.578 542.712 322.155 529.85 306.524C529.6 306.219 529.279 305.978 528.916 305.823C528.552 305.669 528.157 305.605 527.763 305.636C520.999 306.11 489.501 308.597 489.042 314.177C488.51 321.252 502.275 336.349 500.025 372.494Z" fill="#443CAD"/>
<path d="M502.648 290.864C502.648 290.864 506.156 301.092 503.433 305.473C503.433 305.473 513.276 305.977 515.674 302.765C515.674 302.765 514.282 302.01 513.838 298.102C513.394 294.195 509.65 290.154 502.648 290.864Z" fill="#FFC3BD"/>
<path opacity="0.2" d="M513.874 298.102C513.474 294.491 510.218 290.702 504.164 290.79L503.75 291.16L503.32 291.945C503.32 291.945 507.035 301.921 514.495 300.826C514.176 299.947 513.967 299.032 513.874 298.102V298.102Z" fill="black"/>
<path d="M498.95 277.291C500.119 286.69 500.43 290.701 505.477 295.246C513.115 302.099 524.408 298.605 526.081 289.029C527.561 280.414 525.415 266.486 515.942 263.304C513.855 262.593 511.62 262.427 509.451 262.822C507.282 263.217 505.249 264.16 503.547 265.561C501.844 266.962 500.528 268.776 499.724 270.829C498.919 272.882 498.653 275.106 498.95 277.291V277.291Z" fill="#FFC3BD"/>
<path d="M519.793 282.827C520.589 284.537 521.615 286.131 522.842 287.564C522.471 287.87 522.038 288.09 521.572 288.211C521.107 288.331 520.621 288.347 520.148 288.259L519.793 282.827Z" fill="#ED893E"/>
<path d="M511.453 277.928L511.275 277.854C511.206 277.782 511.168 277.687 511.168 277.587C511.168 277.488 511.206 277.393 511.275 277.321C511.704 276.759 512.26 276.307 512.899 276.003C513.537 275.699 514.239 275.552 514.946 275.574C515.033 275.599 515.11 275.653 515.161 275.727C515.212 275.802 515.236 275.893 515.227 275.983C515.218 276.073 515.177 276.158 515.113 276.221C515.048 276.284 514.962 276.323 514.872 276.329C514.297 276.325 513.728 276.456 513.214 276.714C512.699 276.971 512.253 277.346 511.912 277.809C511.858 277.876 511.784 277.923 511.702 277.944C511.619 277.965 511.532 277.96 511.453 277.928Z" fill="#2E353A"/>
<path d="M525.411 276.433L525.234 276.359C524.78 275.997 524.247 275.748 523.678 275.633C523.11 275.517 522.522 275.537 521.963 275.693C521.917 275.712 521.868 275.722 521.819 275.722C521.769 275.722 521.72 275.712 521.675 275.692C521.629 275.673 521.588 275.645 521.554 275.609C521.519 275.574 521.492 275.532 521.474 275.486V275.486C521.456 275.439 521.447 275.389 521.45 275.339C521.452 275.289 521.464 275.241 521.487 275.196C521.509 275.151 521.541 275.112 521.579 275.08C521.618 275.048 521.663 275.025 521.711 275.012C522.387 274.813 523.101 274.778 523.793 274.909C524.485 275.04 525.136 275.334 525.693 275.767C525.733 275.795 525.767 275.831 525.793 275.872C525.819 275.913 525.837 275.959 525.845 276.007C525.853 276.056 525.852 276.105 525.841 276.153C525.83 276.2 525.81 276.245 525.781 276.285C525.741 276.344 525.685 276.39 525.62 276.419C525.554 276.448 525.482 276.458 525.411 276.448V276.433Z" fill="#2E353A"/>
<path d="M514.238 281.895C514.238 282.664 514.741 283.256 515.244 283.227C515.748 283.197 516.118 282.561 516.059 281.747C515.999 280.933 515.57 280.385 515.067 280.414C514.564 280.444 514.194 281.066 514.238 281.895Z" fill="#2E353A"/>
<path d="M522.94 281.347C522.94 282.117 523.428 282.709 523.932 282.679C524.435 282.65 524.79 282.013 524.746 281.199C524.701 280.385 524.257 279.837 523.754 279.867C523.251 279.896 522.881 280.577 522.94 281.347Z" fill="#2E353A"/>
<path d="M523.555 279.956L525.36 279.319C525.36 279.319 524.502 280.814 523.555 279.956Z" fill="#2E353A"/>
<path d="M514.844 280.503L516.664 279.852C516.664 279.852 515.791 281.362 514.844 280.503Z" fill="#2E353A"/>
<path d="M515.188 289.606C514.984 289.371 514.801 289.118 514.641 288.851C514.61 288.816 514.594 288.772 514.594 288.725C514.594 288.679 514.61 288.635 514.641 288.6V288.6C514.677 288.572 514.721 288.557 514.766 288.557C514.812 288.557 514.856 288.572 514.892 288.6C515.292 289.271 515.846 289.838 516.507 290.255C517.168 290.671 517.918 290.926 518.696 290.998C518.736 291.009 518.772 291.033 518.797 291.067C518.822 291.1 518.836 291.141 518.836 291.183C518.836 291.224 518.822 291.265 518.797 291.298C518.772 291.332 518.736 291.356 518.696 291.368C518.024 291.319 517.369 291.139 516.767 290.836C516.165 290.534 515.628 290.116 515.188 289.606V289.606Z" fill="#443CAD"/>
<path opacity="0.4" d="M503.279 338.791C501.799 332.101 496.722 320.571 496.722 320.571L493.036 319.55L491.23 322.036C494.442 330.029 500.111 342.758 500.259 363.776C507.364 363.554 515.224 353.534 515.224 353.534L511.198 344.653C506.713 346.873 504.715 345.541 503.279 338.791Z" fill="black"/>
<path d="M501.636 284.766C501.636 284.766 507.734 281.983 504.182 276.759C504.182 276.759 510.428 277.617 510.946 271.519C510.946 271.519 516.496 274.316 519.62 269.965C519.62 269.965 525.54 273.325 526.902 269.121C528.264 264.917 523.646 263.807 523.646 263.807C523.646 263.807 524.356 259.663 521.958 258.568C521.161 258.281 520.306 258.198 519.469 258.325C518.632 258.451 517.839 258.784 517.163 259.293C517.163 259.293 516.704 254.349 512.722 254.542C511.481 254.657 510.283 255.056 509.221 255.708C508.158 256.36 507.26 257.247 506.594 258.301C505.498 257.617 504.252 257.209 502.963 257.111C501.674 257.013 500.381 257.228 499.194 257.739C495.242 259.53 494.59 264.917 494.59 264.917C494.59 264.917 490.15 265.82 489.425 269.254C488.699 272.688 490.12 273.857 490.12 273.857C490.12 273.857 487.722 277.158 488.492 280.207C489.262 283.256 490.86 283.168 490.86 283.168C490.571 285.554 491.16 287.964 492.518 289.947C494.724 292.596 496.396 291.427 496.396 291.427C496.396 291.427 497.121 297.347 501.177 296.741C505.233 296.134 501.636 284.766 501.636 284.766Z" fill="#443CAD"/>
<path d="M497.174 284.899C497.811 286.618 499.105 288.013 500.77 288.777C502.991 289.784 504.456 287.889 504.145 285.61C503.879 283.567 502.384 280.562 500.016 280.518C499.185 280.534 498.393 280.877 497.814 281.473C497.235 282.069 496.914 282.869 496.922 283.7C496.926 284.113 497.011 284.52 497.174 284.899V284.899Z" fill="#FFC3BD"/>
<path d="M501.645 308.774L504.042 301.758C506.574 302.72 509.299 303.065 511.991 302.765C514.951 302.424 514.847 301.092 514.847 301.092L520.768 306.214L518.237 309.455L513.693 307.368L510.259 311.187L501.645 308.774Z" fill="#443CAD"/>
<path opacity="0.7" d="M501.645 308.774L504.042 301.758C506.574 302.72 509.299 303.065 511.991 302.765C514.951 302.424 514.847 301.092 514.847 301.092L520.768 306.214L518.237 309.455L513.693 307.368L510.259 311.187L501.645 308.774Z" fill="white"/>
<path d="M534.387 336.467H528.673C528.407 336.478 528.142 336.425 527.901 336.313C527.659 336.201 527.447 336.034 527.283 335.824C527.118 335.615 527.005 335.37 526.954 335.108C526.902 334.847 526.913 334.577 526.986 334.321L530.153 319.342C530.292 318.751 530.62 318.221 531.087 317.833C531.555 317.446 532.137 317.222 532.744 317.196H538.487C538.751 317.188 539.014 317.243 539.254 317.356C539.494 317.469 539.704 317.636 539.866 317.845C540.029 318.054 540.141 318.299 540.192 318.559C540.242 318.819 540.231 319.087 540.159 319.342L536.977 334.351C536.833 334.937 536.502 335.46 536.035 335.842C535.568 336.224 534.989 336.443 534.387 336.467V336.467Z" fill="url(#paint11_linear_202_185)"/>
<path opacity="0.3" d="M534.387 336.467H528.673C528.407 336.478 528.142 336.425 527.901 336.313C527.659 336.201 527.447 336.034 527.283 335.824C527.118 335.615 527.005 335.37 526.954 335.108C526.902 334.847 526.913 334.577 526.986 334.321L530.153 319.342C530.292 318.751 530.62 318.221 531.087 317.833C531.555 317.446 532.137 317.222 532.744 317.196H538.487C538.751 317.188 539.014 317.243 539.254 317.356C539.494 317.469 539.704 317.636 539.866 317.845C540.029 318.054 540.141 318.299 540.192 318.559C540.242 318.819 540.231 319.087 540.159 319.342L536.977 334.351C536.833 334.937 536.502 335.46 536.035 335.842C535.568 336.224 534.989 336.443 534.387 336.467V336.467Z" fill="white"/>
<path d="M535.226 336.467H529.497C529.231 336.478 528.967 336.425 528.725 336.313C528.483 336.201 528.272 336.034 528.107 335.824C527.942 335.615 527.83 335.37 527.778 335.108C527.726 334.847 527.737 334.577 527.81 334.321L530.992 319.342C531.131 318.751 531.459 318.221 531.926 317.833C532.394 317.446 532.976 317.222 533.583 317.196H539.326C539.59 317.188 539.853 317.243 540.093 317.356C540.333 317.469 540.543 317.636 540.705 317.845C540.868 318.054 540.98 318.299 541.031 318.559C541.081 318.819 541.07 319.087 540.998 319.342L537.816 334.351C537.672 334.937 537.341 335.46 536.874 335.842C536.407 336.224 535.828 336.443 535.226 336.467V336.467Z" fill="url(#paint12_linear_202_185)"/>
<path opacity="0.7" d="M535.226 336.467H529.497C529.231 336.478 528.967 336.425 528.725 336.313C528.483 336.201 528.272 336.034 528.107 335.824C527.942 335.615 527.83 335.37 527.778 335.108C527.726 334.847 527.737 334.577 527.81 334.321L530.992 319.342C531.131 318.751 531.459 318.221 531.926 317.833C532.394 317.446 532.976 317.222 533.583 317.196H539.326C539.59 317.188 539.853 317.243 540.093 317.356C540.333 317.469 540.543 317.636 540.705 317.845C540.868 318.054 540.98 318.299 541.031 318.559C541.081 318.819 541.07 319.087 540.998 319.342L537.816 334.351C537.672 334.937 537.341 335.46 536.874 335.842C536.407 336.224 535.828 336.443 535.226 336.467V336.467Z" fill="white"/>
<path d="M532.953 321.637H533.515C533.926 321.613 534.318 321.456 534.631 321.189C534.943 320.921 535.16 320.559 535.247 320.156L535.365 319.594C535.423 319.42 535.438 319.235 535.408 319.054C535.378 318.873 535.305 318.702 535.194 318.557C535.083 318.411 534.938 318.294 534.772 318.217C534.606 318.14 534.423 318.104 534.24 318.114H533.678C533.267 318.137 532.875 318.294 532.562 318.562C532.249 318.829 532.033 319.192 531.946 319.594L531.828 320.156C531.769 320.33 531.755 320.516 531.785 320.696C531.814 320.877 531.888 321.048 531.999 321.194C532.11 321.34 532.255 321.456 532.421 321.533C532.587 321.611 532.77 321.646 532.953 321.637V321.637Z" fill="url(#paint13_linear_202_185)"/>
<path d="M534.321 319.061C534.288 319.226 534.199 319.374 534.07 319.482C533.941 319.589 533.779 319.65 533.611 319.653C533.536 319.659 533.462 319.646 533.393 319.616C533.325 319.587 533.264 319.541 533.218 319.482C533.171 319.424 533.139 319.355 533.125 319.282C533.111 319.208 533.115 319.132 533.137 319.061C533.179 318.897 533.271 318.752 533.402 318.645C533.533 318.538 533.694 318.477 533.863 318.469C533.936 318.466 534.009 318.48 534.075 318.511C534.142 318.542 534.2 318.588 534.245 318.646C534.29 318.704 534.321 318.772 534.334 318.844C534.347 318.917 534.343 318.991 534.321 319.061V319.061Z" fill="#443CAD"/>
<path d="M533.968 320.778C533.927 320.942 533.834 321.088 533.703 321.194C533.573 321.301 533.411 321.363 533.243 321.37C533.169 321.373 533.096 321.358 533.029 321.327C532.962 321.296 532.904 321.25 532.858 321.193C532.812 321.135 532.78 321.068 532.764 320.996C532.749 320.924 532.751 320.849 532.769 320.778C532.81 320.615 532.903 320.469 533.034 320.362C533.164 320.255 533.326 320.194 533.494 320.186C533.568 320.184 533.641 320.199 533.708 320.229C533.775 320.26 533.833 320.306 533.879 320.364C533.925 320.421 533.957 320.488 533.973 320.56C533.988 320.632 533.986 320.707 533.968 320.778V320.778Z" fill="#443CAD"/>
<path d="M550.401 342.684L542.364 336.482C542.364 336.482 539.226 329.644 537.05 328.786C536.47 328.614 535.851 328.624 535.277 328.814C534.703 329.005 534.2 329.367 533.838 329.851C532.565 331.42 532.432 336.379 533.72 337.948C535.007 339.517 538.93 340.553 538.93 340.553L546.449 348.383L550.401 342.684Z" fill="#FFC3BD"/>
<path d="M552.354 349.567C548.609 353.09 544.849 348.768 541.016 344.416C542.216 343.841 543.279 343.015 544.132 341.994C544.985 340.972 545.608 339.779 545.959 338.495C545.959 338.495 557.282 344.949 552.354 349.567Z" fill="#443CAD"/>
<path opacity="0.7" d="M541.027 344.416L542.137 345.674C544.609 344.31 546.467 342.055 547.333 339.369C546.533 338.821 545.971 338.51 545.971 338.51C545.618 339.791 544.994 340.981 544.141 342C543.288 343.019 542.226 343.843 541.027 344.416Z" fill="white"/>
<path d="M515.672 342.684L523.709 336.482C523.709 336.482 526.847 329.644 529.023 328.786C529.603 328.614 530.222 328.624 530.796 328.814C531.37 329.005 531.872 329.367 532.235 329.851C533.508 331.42 533.641 336.379 532.353 337.948C531.065 339.517 527.143 340.553 527.143 340.553L519.624 348.383L515.672 342.684Z" fill="#FFC3BD"/>
<path d="M486.873 335.12C485.585 330.014 484.149 317.225 489.093 313.155C494.037 309.085 496.879 320.215 498.832 328.785C500.786 337.355 501.793 348.841 506.159 347.065C510.105 345.093 513.873 342.786 517.423 340.168L522.441 347.243C522.441 347.243 507.121 364.901 500.387 359.691C493.652 354.481 488.516 341.589 486.873 335.12Z" fill="#443CAD"/>
<path opacity="0.7" d="M515.551 341.5L520.702 349.123C521.782 347.998 522.433 347.243 522.433 347.243L517.416 340.168C517.416 340.168 516.676 340.716 515.551 341.5Z" fill="white"/>
<defs>
<filter id="filter0_f_202_185" x="0.383789" y="10.384" width="737.385" height="737.385" filterUnits="userSpaceOnUse" color-interpolation-filters="sRGB">
<feFlood flood-opacity="0" result="BackgroundImageFix"/>
<feBlend mode="normal" in="SourceGraphic" in2="BackgroundImageFix" result="shape"/>
<feGaussianBlur stdDeviation="101" result="effect1_foregroundBlur_202_185"/>
</filter>
<linearGradient id="paint0_linear_202_185" x1="369.076" y1="212.411" x2="369.076" y2="545.742" gradientUnits="userSpaceOnUse">
<stop stop-color="#1302EC"/>
<stop offset="0.901042" stop-color="#870082"/>
</linearGradient>
<linearGradient id="paint1_linear_202_185" x1="256.854" y1="452.172" x2="752.011" y2="1238.34" gradientUnits="userSpaceOnUse">
<stop stop-color="#968EFF"/>
<stop offset="1" stop-color="white" stop-opacity="0"/>
</linearGradient>
<linearGradient id="paint2_linear_202_185" x1="498.422" y1="322.134" x2="498.422" y2="465.951" gradientUnits="userSpaceOnUse">
<stop stop-color="#968EFF"/>
<stop offset="1" stop-color="#5A50D8"/>
</linearGradient>
<linearGradient id="paint3_linear_202_185" x1="427.534" y1="324.158" x2="427.534" y2="464.752" gradientUnits="userSpaceOnUse">
<stop stop-color="#968EFF"/>
<stop offset="1" stop-color="#5A50D8"/>
</linearGradient>
<linearGradient id="paint4_linear_202_185" x1="439.97" y1="386.689" x2="439.97" y2="496.086" gradientUnits="userSpaceOnUse">
<stop stop-color="#968EFF"/>
<stop offset="1" stop-color="#5A50D8"/>
</linearGradient>
<linearGradient id="paint5_linear_202_185" x1="604.16" y1="386.689" x2="604.16" y2="457.366" gradientUnits="userSpaceOnUse">
<stop stop-color="#968EFF"/>
<stop offset="1" stop-color="#5A50D8"/>
</linearGradient>
<linearGradient id="paint6_linear_202_185" x1="560.733" y1="417.689" x2="560.733" y2="458.451" gradientUnits="userSpaceOnUse">
<stop stop-color="#968EFF"/>
<stop offset="1" stop-color="#5A50D8"/>
</linearGradient>
<linearGradient id="paint7_linear_202_185" x1="499.727" y1="417.731" x2="499.727" y2="457.203" gradientUnits="userSpaceOnUse">
<stop stop-color="#968EFF"/>
<stop offset="1" stop-color="#5A50D8"/>
</linearGradient>
<linearGradient id="paint8_linear_202_185" x1="559.862" y1="386.688" x2="559.862" y2="496.086" gradientUnits="userSpaceOnUse">
<stop stop-color="#968EFF"/>
<stop offset="1" stop-color="#5A50D8"/>
</linearGradient>
<linearGradient id="paint9_linear_202_185" x1="560.76" y1="369.386" x2="560.76" y2="477.925" gradientUnits="userSpaceOnUse">
<stop stop-color="#968EFF"/>
<stop offset="1" stop-color="#5A50D8"/>
</linearGradient>
<linearGradient id="paint10_linear_202_185" x1="573.246" y1="355.828" x2="573.246" y2="433.905" gradientUnits="userSpaceOnUse">
<stop stop-color="#968EFF"/>
<stop offset="1" stop-color="#5A50D8"/>
</linearGradient>
<linearGradient id="paint11_linear_202_185" x1="533.572" y1="317.195" x2="533.572" y2="336.469" gradientUnits="userSpaceOnUse">
<stop stop-color="#968EFF"/>
<stop offset="1" stop-color="#5A50D8"/>
</linearGradient>
<linearGradient id="paint12_linear_202_185" x1="534.404" y1="317.195" x2="534.404" y2="336.469" gradientUnits="userSpaceOnUse">
<stop stop-color="#968EFF"/>
<stop offset="1" stop-color="#5A50D8"/>
</linearGradient>
<linearGradient id="paint13_linear_202_185" x1="533.596" y1="318.112" x2="533.596" y2="321.638" gradientUnits="userSpaceOnUse">
<stop stop-color="#968EFF"/>
<stop offset="1" stop-color="#5A50D8"/>
</linearGradient>
</defs>
</svg>
