<svg width="607" height="400" viewBox="0 0 607 400" fill="none" xmlns="http://www.w3.org/2000/svg">
<path d="M331.084 150.012C327.36 150.084 323.68 149.203 320.393 147.451L248.505 105.893C245.528 104.172 243.891 101.828 243.891 99.3346C243.891 96.8414 245.528 94.4836 248.505 92.7627L320.014 51.1235C325.914 47.7225 335.509 47.7225 341.396 51.1235L413.296 92.6273C416.274 94.3617 417.911 96.6923 417.911 99.199C417.911 101.706 416.274 104.036 413.296 105.771L341.788 147.396C338.502 149.169 334.816 150.07 331.084 150.012V150.012ZM330.705 49.8905C327.217 49.8215 323.769 50.6472 320.69 52.2889L249.182 93.9823C246.624 95.4457 245.23 97.3698 245.23 99.4023C245.23 101.435 246.584 103.332 249.182 104.822L321.069 146.38C324.177 147.95 327.609 148.768 331.09 148.768C334.571 148.768 338.004 147.95 341.112 146.38L412.62 104.741C415.178 103.264 416.572 101.353 416.572 99.321C416.572 97.2885 415.218 95.3915 412.62 93.901L340.746 52.2889C337.659 50.6433 334.202 49.8175 330.705 49.8905V49.8905Z" fill="#8E8BC3"/>
<path d="M328.635 322.097C318.458 322.097 308.335 319.726 300.513 314.956L111.484 198.751C103.649 193.941 99.3047 187.41 99.3047 180.391C99.3047 173.372 103.622 166.841 111.484 162.03L299.593 45.6086C315.102 36.1236 340.314 36.1236 355.822 45.6086L544.851 161.814C552.7 166.637 557.031 173.155 557.031 180.174C557.031 187.193 552.714 193.724 544.851 198.534L356.756 314.956C349.002 319.726 338.811 322.097 328.635 322.097ZM327.647 42.1534C318.092 42.1534 308.552 44.3756 301.284 48.8471L113.257 165.269C106.491 169.334 102.85 174.754 102.85 180.391C102.85 186.028 106.545 191.38 113.244 195.513L302.272 311.718C316.82 320.647 340.462 320.647 355.051 311.718L543.078 195.296C549.845 191.231 553.485 185.811 553.485 180.174C553.485 174.537 549.791 169.185 543.078 165.052L353.995 48.8471C346.728 44.3756 337.187 42.1534 327.647 42.1534V42.1534Z" fill="white"/>
<path d="M417.249 84.7954V50.2835L373.673 56.0422L341.072 37.1941C337.861 35.5645 334.312 34.7152 330.712 34.7152C327.113 34.7152 323.564 35.5645 320.353 37.1941L315.278 40.4191L244.555 49.9041V85.0393C244.636 87.1531 246.043 89.2398 248.818 90.8387L320.705 132.397C323.916 134.026 327.465 134.876 331.064 134.876C334.664 134.876 338.213 134.026 341.424 132.397L412.932 90.7574C415.639 89.1585 417.087 87.0853 417.181 84.9851L417.249 84.7954Z" fill="url(#paint0_radial_219_2)"/>
<path d="M412.959 44.0369L341.071 2.47893C337.861 0.849253 334.312 0 330.712 0C327.112 0 323.563 0.849253 320.352 2.47893L248.844 44.1182C243.12 47.4244 243.12 52.7766 248.844 56.0828L320.731 97.6408C323.942 99.2705 327.491 100.12 331.091 100.12C334.69 100.12 338.24 99.2705 341.45 97.6408L412.959 56.0422C418.669 52.7089 418.669 47.3431 412.959 44.0369Z" fill="url(#paint1_radial_219_2)"/>
<path d="M412.959 44.0369L341.071 2.47893C337.861 0.849253 334.312 0 330.712 0C327.112 0 323.563 0.849253 320.352 2.47893L248.844 44.1182C243.12 47.4244 243.12 52.7766 248.844 56.0828L320.731 97.6408C323.942 99.2705 327.491 100.12 331.091 100.12C334.69 100.12 338.24 99.2705 341.45 97.6408L412.959 56.0422C418.669 52.7089 418.669 47.3431 412.959 44.0369Z" fill="url(#paint2_radial_219_2)"/>
<path opacity="0.4" d="M331.018 83.9959C328.496 84.0513 326.002 83.4539 323.778 82.2614L276.142 54.6872C275.194 54.3375 274.376 53.7051 273.798 52.8752C273.22 52.0454 272.91 51.058 272.91 50.0463C272.91 49.0346 273.22 48.0473 273.798 47.2174C274.376 46.3876 275.194 45.7551 276.142 45.4054L323.508 17.8176C325.755 16.675 328.241 16.0795 330.761 16.0795C333.282 16.0795 335.767 16.675 338.015 17.8176L385.651 45.3512C386.599 45.7009 387.417 46.3334 387.995 47.1632C388.573 47.9931 388.883 48.9804 388.883 49.9921C388.883 51.0038 388.573 51.9911 387.995 52.821C387.417 53.6508 386.599 54.2833 385.651 54.633L338.286 82.2208C336.054 83.4222 333.552 84.0332 331.018 83.9959ZM330.775 17.6685C328.523 17.6244 326.296 18.1561 324.306 19.2132L276.941 46.7875C276.228 46.9943 275.602 47.4272 275.156 48.021C274.711 48.6148 274.47 49.3374 274.47 50.0802C274.47 50.8229 274.711 51.5456 275.156 52.1394C275.602 52.7332 276.228 53.1661 276.941 53.3728L324.509 80.9064C326.515 81.9286 328.734 82.4614 330.985 82.4614C333.235 82.4614 335.454 81.9286 337.46 80.9064L384.826 53.3322C385.531 53.1174 386.148 52.6814 386.587 52.0886C387.026 51.4957 387.262 50.7774 387.262 50.0395C387.262 49.3017 387.026 48.5833 386.587 47.9905C386.148 47.3976 385.531 46.9617 384.826 46.7469L337.189 19.2132C335.216 18.165 333.009 17.6336 330.775 17.6685Z" fill="#161341"/>
<path d="M412.959 53.9147L341.451 95.554C338.24 97.1836 334.691 98.033 331.091 98.033C327.492 98.033 323.943 97.1836 320.732 95.554L248.845 53.996C247.843 53.5102 246.954 52.8188 246.235 51.9668C245.517 51.1148 244.986 50.1211 244.676 49.0503C244.149 51.557 245.516 54.1722 248.845 56.0828L320.732 97.6407C323.943 99.2704 327.492 100.12 331.091 100.12C334.691 100.12 338.24 99.2704 341.451 97.6407L412.959 56.0421C416.275 54.118 417.655 51.5028 417.114 49.0096C416.803 50.0733 416.273 51.0596 415.558 51.9047C414.842 52.7498 413.956 53.4346 412.959 53.9147V53.9147Z" fill="white"/>
<path d="M351.1 106.868L347.703 108.833V104.89L351.1 102.925V106.868Z" fill="white"/>
<path d="M358.217 102.749L354.82 104.714V100.784L358.217 98.806V102.749Z" fill="white"/>
<path d="M365.352 98.63L361.941 100.595V96.6652L365.352 94.7004V98.63Z" fill="white"/>
<path d="M359.531 109.971L356.121 111.936V107.993L359.531 106.028V109.971Z" fill="white"/>
<path d="M365.797 106.34L362.387 108.305V104.375L365.797 102.41V106.34Z" fill="white"/>
<path d="M388.178 85.4322L384.781 87.3969V83.4674L388.178 81.4891V85.4322Z" fill="white"/>
<path d="M407.787 74.0909L404.391 76.0556V72.1261L407.787 70.1478V74.0909Z" fill="white"/>
<path d="M372.469 94.5107L369.059 96.4755V92.546L372.469 90.5812V94.5107Z" fill="white"/>
<path d="M87.2065 229.483C83.4831 229.555 79.8028 228.674 76.5155 226.922L4.6283 185.364C1.65104 183.643 0 181.299 0 178.805C0 176.312 1.65104 173.955 4.6283 172.234L76.1366 130.608C79.4497 128.925 83.1125 128.048 86.8276 128.048C90.5428 128.048 94.2055 128.925 97.5187 130.608L169.406 172.166C172.397 173.887 174.034 176.231 174.034 178.724C174.034 181.217 172.397 183.575 169.406 185.296L97.8976 226.922C94.6102 228.674 90.93 229.555 87.2065 229.483V229.483ZM86.8276 129.361C83.3398 129.292 79.8924 130.118 76.8132 131.76L5.30495 173.399C2.74721 174.876 1.33979 176.786 1.33979 178.819C1.33979 180.852 2.69308 182.749 5.30495 184.239L77.1786 225.797C80.2869 227.373 83.7223 228.195 87.2065 228.195C90.6908 228.195 94.1261 227.373 97.2345 225.797L168.743 184.158C171.287 182.681 172.694 180.77 172.694 178.738C172.694 176.705 171.341 174.808 168.743 173.318L96.8556 131.76C93.7678 130.132 90.3162 129.321 86.8276 129.402V129.361Z" fill="#8E8BC3"/>
<path d="M173.357 164.307V129.795L129.808 135.608L97.153 116.76C93.9449 115.129 90.398 114.279 86.8002 114.279C83.2025 114.279 79.6555 115.129 76.4475 116.76L71.4403 119.998L0.730469 129.483V164.578C0.811667 166.692 2.20556 168.778 4.99335 170.377L76.8535 211.867C80.0615 213.498 83.6085 214.348 87.2062 214.348C90.8039 214.348 94.3509 213.498 97.5589 211.867L169.067 170.242C171.842 168.643 173.235 166.556 173.33 164.456L173.357 164.307Z" fill="url(#paint3_radial_219_2)"/>
<path d="M169.066 123.548L97.1516 81.9905C93.9436 80.3599 90.3966 79.51 86.7989 79.51C83.2012 79.51 79.6542 80.3599 76.4462 81.9905L4.93787 123.63C-0.786581 126.936 -0.786581 132.288 4.93787 135.594L76.8521 177.152C80.0602 178.783 83.6071 179.633 87.2049 179.633C90.8026 179.633 94.3496 178.783 97.5576 177.152L169.066 135.527C174.79 132.22 174.79 126.855 169.066 123.548Z" fill="url(#paint4_radial_219_2)"/>
<path d="M169.066 123.548L97.1516 81.9905C93.9436 80.3599 90.3966 79.51 86.7989 79.51C83.2012 79.51 79.6542 80.3599 76.4462 81.9905L4.93787 123.63C-0.786581 126.936 -0.786581 132.288 4.93787 135.594L76.8521 177.152C80.0602 178.783 83.6071 179.633 87.2049 179.633C90.8026 179.633 94.3496 178.783 97.5576 177.152L169.066 135.527C174.79 132.22 174.79 126.855 169.066 123.548Z" fill="url(#paint5_radial_219_2)"/>
<path opacity="0.4" d="M87.1396 163.507C84.6133 163.561 82.1155 162.964 79.8859 161.773L32.2633 134.239C31.3152 133.89 30.497 133.257 29.9191 132.427C29.3411 131.598 29.0313 130.61 29.0312 129.598C29.0313 128.587 29.3411 127.599 29.9191 126.77C30.497 125.94 31.3152 125.307 32.2633 124.958L79.6288 97.3698C81.876 96.2336 84.3582 95.6416 86.8757 95.6416C89.3931 95.6416 91.8754 96.2336 94.1226 97.3698L141.813 124.903C142.76 125.256 143.576 125.891 144.152 126.721C144.729 127.552 145.038 128.54 145.038 129.551C145.038 130.563 144.729 131.55 144.152 132.381C143.576 133.211 142.76 133.846 141.813 134.199L94.4474 161.732C92.2055 162.946 89.6878 163.558 87.1396 163.507ZM86.896 97.18C84.6392 97.1342 82.408 97.6659 80.4137 98.7248L33.0483 126.313C32.3433 126.527 31.7258 126.963 31.2871 127.556C30.8484 128.149 30.6115 128.867 30.6115 129.605C30.6115 130.343 30.8484 131.061 31.2871 131.654C31.7258 132.247 32.3433 132.683 33.0483 132.898L80.6708 160.377C82.6763 161.393 84.8922 161.922 87.1396 161.922C89.387 161.922 91.6029 161.393 93.6084 160.377L140.974 132.79C141.686 132.583 142.312 132.15 142.758 131.556C143.204 130.962 143.445 130.24 143.445 129.497C143.445 128.754 143.204 128.031 142.758 127.438C142.312 126.844 141.686 126.411 140.974 126.204L93.3648 98.7248C91.3748 97.6676 89.1484 97.1359 86.896 97.18V97.18Z" fill="#161341"/>
<path d="M169.067 133.426L97.5587 175.066C94.3506 176.696 90.8037 177.546 87.206 177.546C83.6082 177.546 80.0613 176.696 76.8532 175.066L4.96606 133.508C3.96096 133.026 3.06958 132.336 2.35098 131.483C1.63239 130.631 1.10297 129.635 0.79788 128.562C0.256561 131.069 1.63695 133.684 4.96606 135.594L76.8532 177.152C80.0613 178.783 83.6082 179.633 87.206 179.633C90.8037 179.633 94.3506 178.783 97.5587 177.152L169.067 135.527C172.396 133.603 173.776 130.987 173.235 128.494C172.925 129.563 172.394 130.555 171.676 131.405C170.958 132.255 170.069 132.943 169.067 133.426V133.426Z" fill="white"/>
<path d="M347.892 399.4C344.169 399.473 340.489 398.591 337.201 396.839L265.314 355.281C262.337 353.56 260.699 351.216 260.699 348.709C260.699 346.202 262.337 343.872 265.314 342.151L336.822 300.512C340.137 298.835 343.799 297.961 347.513 297.961C351.227 297.961 354.889 298.835 358.204 300.512L430.064 342.07C433.055 343.791 434.693 346.135 434.693 348.641C434.693 351.148 433.055 353.479 430.064 355.2L358.57 396.839C355.286 398.587 351.611 399.468 347.892 399.4V399.4ZM347.513 299.279C344.025 299.21 340.578 300.035 337.499 301.677L265.991 343.303C263.433 344.78 262.026 346.704 262.026 348.723C262.026 350.742 263.379 352.666 265.991 354.143L337.878 395.687C340.983 397.264 344.417 398.086 347.899 398.086C351.381 398.086 354.815 397.264 357.92 395.687L429.428 354.061C431.986 352.584 433.38 350.66 433.38 348.641C433.38 346.622 432.027 344.712 429.428 343.221L357.541 301.663C354.457 300.025 351.004 299.204 347.513 299.279Z" fill="#8E8BC3"/>
<path d="M434.044 334.17V299.672L390.481 305.485L357.867 286.636C354.659 285.006 351.112 284.156 347.514 284.156C343.916 284.156 340.369 285.006 337.161 286.636L332.073 289.861L261.363 299.346V334.482C261.444 336.582 262.852 338.682 265.626 340.281L337.513 381.839C340.721 383.47 344.268 384.319 347.866 384.319C351.464 384.319 355.011 383.47 358.219 381.839L429.727 340.2C432.501 338.601 433.895 336.528 433.99 334.427L434.044 334.17Z" fill="url(#paint6_radial_219_2)"/>
<path d="M429.754 293.425L357.866 251.867C354.658 250.237 351.111 249.387 347.514 249.387C343.916 249.387 340.369 250.237 337.161 251.867L265.653 293.493C259.928 296.799 259.928 302.165 265.653 305.471L337.54 347.029C340.748 348.66 344.295 349.509 347.893 349.509C351.49 349.509 355.037 348.66 358.245 347.029L429.754 305.363C435.478 302.084 435.478 296.731 429.754 293.425Z" fill="url(#paint7_radial_219_2)"/>
<path d="M429.754 293.425L357.866 251.867C354.658 250.237 351.111 249.387 347.514 249.387C343.916 249.387 340.369 250.237 337.161 251.867L265.653 293.493C259.928 296.799 259.928 302.165 265.653 305.471L337.54 347.029C340.748 348.66 344.295 349.509 347.893 349.509C351.49 349.509 355.037 348.66 358.245 347.029L429.754 305.363C435.478 302.084 435.478 296.731 429.754 293.425Z" fill="url(#paint8_radial_219_2)"/>
<path opacity="0.4" d="M347.823 333.384C345.297 333.431 342.801 332.835 340.57 331.65L292.947 304.116C291.999 303.766 291.181 303.134 290.603 302.304C290.025 301.474 289.715 300.487 289.715 299.475C289.715 298.463 290.025 297.476 290.603 296.646C291.181 295.816 291.999 295.184 292.947 294.834L340.312 267.246C342.56 266.104 345.045 265.508 347.566 265.508C350.087 265.508 352.572 266.104 354.82 267.246L402.442 294.78C403.39 295.13 404.209 295.762 404.787 296.592C405.365 297.422 405.674 298.409 405.674 299.421C405.674 300.433 405.365 301.42 404.787 302.25C404.209 303.08 403.39 303.712 402.442 304.062L355.077 331.65C352.845 332.835 350.349 333.431 347.823 333.384V333.384ZM347.58 266.989C345.325 266.941 343.097 267.478 341.111 268.547L293.745 296.121C293.033 296.328 292.407 296.761 291.961 297.355C291.516 297.949 291.275 298.671 291.275 299.414C291.275 300.157 291.516 300.879 291.961 301.473C292.407 302.067 293.033 302.5 293.745 302.707L341.381 330.24C343.389 331.256 345.607 331.785 347.857 331.785C350.107 331.785 352.325 331.256 354.333 330.24L401.698 302.666C402.403 302.451 403.02 302.015 403.459 301.423C403.898 300.83 404.135 300.111 404.135 299.373C404.135 298.636 403.898 297.917 403.459 297.324C403.02 296.732 402.403 296.296 401.698 296.081L354.062 268.547C352.066 267.496 349.834 266.978 347.58 267.043V266.989Z" fill="#161341"/>
<path d="M429.754 303.303L358.246 344.942C355.038 346.573 351.491 347.423 347.894 347.423C344.296 347.423 340.749 346.573 337.541 344.942L265.654 303.384C264.654 302.895 263.767 302.202 263.049 301.351C262.332 300.499 261.799 299.508 261.485 298.439C260.944 300.945 262.324 303.547 265.654 305.471L337.541 347.029C340.749 348.66 344.296 349.509 347.894 349.509C351.491 349.509 355.038 348.66 358.246 347.029L429.754 305.363C433.084 303.452 434.464 300.837 433.923 298.33C433.621 299.408 433.093 300.409 432.374 301.267C431.656 302.124 430.762 302.818 429.754 303.303V303.303Z" fill="white"/>
<path d="M107.221 186.38L103.824 188.345V184.402L107.221 182.437V186.38Z" fill="white"/>
<path d="M114.342 182.261L110.945 184.225V180.296L114.342 178.318V182.261Z" fill="white"/>
<path d="M121.459 178.141L118.062 180.106V176.177L121.459 174.212V178.141Z" fill="white"/>
<path d="M115.639 189.483L112.242 191.448V187.518L115.639 185.553V189.483Z" fill="white"/>
<path d="M121.905 185.851L118.508 187.83V183.887L121.905 181.922V185.851Z" fill="white"/>
<path d="M144.301 164.944L140.891 166.908V162.979L144.301 161.014V164.944Z" fill="white"/>
<path d="M163.912 153.602L160.516 155.567V151.638L163.912 149.673V153.602Z" fill="white"/>
<path d="M128.576 174.022L125.18 176.001V172.057L128.576 170.093V174.022Z" fill="white"/>
<path d="M606.209 201.407V194.916L577.316 198.778L555.663 186.271C553.533 185.189 551.177 184.626 548.788 184.626C546.399 184.626 544.044 185.189 541.914 186.271L538.544 188.412L491.625 194.673V201.583C491.727 202.413 492.041 203.204 492.536 203.878C493.032 204.552 493.692 205.087 494.453 205.431L542.144 233.006C544.274 234.088 546.629 234.651 549.018 234.651C551.407 234.651 553.763 234.088 555.893 233.006L603.259 205.377C604.019 205.035 604.679 204.502 605.174 203.83C605.669 203.159 605.984 202.371 606.087 201.542V201.542L606.209 201.407Z" fill="url(#paint9_radial_219_2)"/>
<path d="M603.352 190.77L555.662 163.196C553.532 162.114 551.176 161.55 548.788 161.55C546.399 161.55 544.043 162.114 541.913 163.196L494.547 190.824C490.745 193.019 490.745 196.569 494.547 198.765L542.238 226.339C544.368 227.421 546.723 227.985 549.112 227.985C551.501 227.985 553.857 227.421 555.987 226.339L603.352 198.71C607.155 196.515 607.155 192.965 603.352 190.77Z" fill="url(#paint10_radial_219_2)"/>
<path d="M603.353 197.328L555.987 224.957C553.855 226.032 551.5 226.593 549.113 226.593C546.725 226.593 544.37 226.032 542.238 224.957L494.48 197.382C493.814 197.06 493.224 196.602 492.746 196.037C492.268 195.472 491.914 194.814 491.706 194.103C491.354 195.756 492.274 197.491 494.48 198.765L542.17 226.339C544.301 227.421 546.656 227.985 549.045 227.985C551.434 227.985 553.789 227.421 555.92 226.339L603.285 198.71C605.491 197.437 606.411 195.702 606.059 194.049C605.859 194.753 605.515 195.408 605.049 195.973C604.583 196.537 604.006 196.999 603.353 197.328Z" fill="white"/>
<path d="M206.879 249.252C206.93 251.719 206.247 254.146 204.918 256.224C203.588 258.303 201.672 259.939 199.413 260.924C197.153 261.91 194.652 262.202 192.227 261.762C189.801 261.321 187.561 260.17 185.791 258.452C184.021 256.735 182.8 254.53 182.284 252.117C181.767 249.704 181.979 247.191 182.891 244.899C183.804 242.606 185.376 240.637 187.409 239.241C189.441 237.844 191.842 237.084 194.307 237.057C197.589 237.006 200.756 238.262 203.114 240.549C205.471 242.836 206.825 245.966 206.879 249.252V249.252Z" fill="#5B5BA8"/>
<path d="M204.511 108.196C204.533 110.19 203.963 112.145 202.875 113.815C201.786 115.484 200.228 116.793 198.396 117.576C196.565 118.359 194.543 118.58 192.585 118.212C190.628 117.844 188.824 116.903 187.401 115.509C185.978 114.114 185 112.328 184.59 110.377C184.181 108.426 184.358 106.397 185.1 104.547C185.843 102.697 187.116 101.108 188.76 99.9827C190.403 98.8572 192.343 98.2449 194.335 98.2234C195.657 98.2091 196.969 98.4556 198.196 98.9491C199.423 99.4425 200.541 100.173 201.486 101.099C202.431 102.025 203.185 103.129 203.704 104.346C204.223 105.564 204.497 106.872 204.511 108.196Z" fill="#5B5BA8"/>
<path d="M474.031 249.252C474.031 251.656 473.321 254.006 471.991 256.007C470.661 258.008 468.77 259.571 466.555 260.499C464.341 261.428 461.902 261.68 459.544 261.225C457.187 260.769 455.017 259.627 453.306 257.94C451.595 256.253 450.421 254.098 449.929 251.745C449.438 249.392 449.653 246.947 450.545 244.715C451.438 242.484 452.97 240.566 454.948 239.204C456.926 237.841 459.262 237.094 461.662 237.057C463.277 237.032 464.882 237.329 466.381 237.93C467.881 238.532 469.246 239.426 470.397 240.561C471.548 241.696 472.462 243.049 473.086 244.541C473.71 246.033 474.031 247.634 474.031 249.252Z" fill="#5B5BA8"/>
<path d="M476.726 116.015C476.748 118.011 476.177 119.968 475.086 121.639C473.995 123.31 472.433 124.619 470.599 125.4C468.764 126.181 466.739 126.4 464.781 126.027C462.822 125.655 461.018 124.709 459.597 123.309C458.176 121.909 457.202 120.118 456.798 118.163C456.395 116.208 456.58 114.177 457.33 112.328C458.081 110.479 459.363 108.894 461.014 107.775C462.665 106.656 464.61 106.053 466.604 106.042C469.264 106.031 471.82 107.073 473.716 108.941C475.612 110.809 476.694 113.351 476.726 116.015V116.015Z" fill="#5B5BA8"/>
<defs>
<radialGradient id="paint0_radial_219_2" cx="0" cy="0" r="1" gradientUnits="userSpaceOnUse" gradientTransform="translate(330.895 84.8225) scale(70.5475 70.6363)">
<stop stop-color="#8E8BC3"/>
<stop offset="1" stop-color="#5B5BA8"/>
</radialGradient>
<radialGradient id="paint1_radial_219_2" cx="0" cy="0" r="1" gradientUnits="userSpaceOnUse" gradientTransform="translate(212.576 -6.59958) scale(271.945 272.288)">
<stop stop-color="#2AC3EA"/>
<stop offset="0.15" stop-color="#2AB5DE"/>
<stop offset="0.43" stop-color="#2990C0"/>
<stop offset="0.81" stop-color="#28558F"/>
<stop offset="1" stop-color="#273675"/>
</radialGradient>
<radialGradient id="paint2_radial_219_2" cx="0" cy="0" r="1" gradientUnits="userSpaceOnUse" gradientTransform="translate(236.57 9.80951) scale(186.972 187.207)">
<stop stop-color="#8E8BC3"/>
<stop offset="0.26" stop-color="#8784BF"/>
<stop offset="0.66" stop-color="#7271B4"/>
<stop offset="1" stop-color="#5B5BA8"/>
</radialGradient>
<radialGradient id="paint3_radial_219_2" cx="0" cy="0" r="1" gradientUnits="userSpaceOnUse" gradientTransform="translate(87.4168 160.463) rotate(5.46683) scale(70.1558 40.0382)">
<stop stop-color="#8E8BC3"/>
<stop offset="1" stop-color="#5B5BA8"/>
</radialGradient>
<radialGradient id="paint4_radial_219_2" cx="0" cy="0" r="1" gradientUnits="userSpaceOnUse" gradientTransform="translate(-31.3035 72.9119) scale(271.945 272.288)">
<stop stop-color="#2AC3EA"/>
<stop offset="0.15" stop-color="#2AB5DE"/>
<stop offset="0.43" stop-color="#2990C0"/>
<stop offset="0.81" stop-color="#28558F"/>
<stop offset="1" stop-color="#273675"/>
</radialGradient>
<radialGradient id="paint5_radial_219_2" cx="0" cy="0" r="1" gradientUnits="userSpaceOnUse" gradientTransform="translate(-4.49692 91.3568) rotate(9.19191) scale(125.893 48.3521)">
<stop stop-color="#8E8BC3"/>
<stop offset="0.26" stop-color="#8784BF"/>
<stop offset="0.66" stop-color="#7271B4"/>
<stop offset="1" stop-color="#5B5BA8"/>
</radialGradient>
<radialGradient id="paint6_radial_219_2" cx="0" cy="0" r="1" gradientUnits="userSpaceOnUse" gradientTransform="translate(348.194 329.472) rotate(5.46684) scale(70.1558 40.0382)">
<stop stop-color="#8E8BC3"/>
<stop offset="1" stop-color="#5B5BA8"/>
</radialGradient>
<radialGradient id="paint7_radial_219_2" cx="0" cy="0" r="1" gradientUnits="userSpaceOnUse" gradientTransform="translate(229.384 242.789) scale(271.945 272.288)">
<stop stop-color="#2AC3EA"/>
<stop offset="0.15" stop-color="#2AB5DE"/>
<stop offset="0.43" stop-color="#2990C0"/>
<stop offset="0.81" stop-color="#28558F"/>
<stop offset="1" stop-color="#273675"/>
</radialGradient>
<radialGradient id="paint8_radial_219_2" cx="0" cy="0" r="1" gradientUnits="userSpaceOnUse" gradientTransform="translate(257.357 261.357) rotate(9.19191) scale(125.893 48.352)">
<stop stop-color="#8E8BC3"/>
<stop offset="0.26" stop-color="#8784BF"/>
<stop offset="0.66" stop-color="#7271B4"/>
<stop offset="1" stop-color="#5B5BA8"/>
</radialGradient>
<radialGradient id="paint9_radial_219_2" cx="0" cy="0" r="1" gradientUnits="userSpaceOnUse" gradientTransform="translate(548.924 209.632) scale(44.1987 44.2544)">
<stop stop-color="#8E8BC3"/>
<stop offset="1" stop-color="#5B5BA8"/>
</radialGradient>
<radialGradient id="paint10_radial_219_2" cx="0" cy="0" r="1" gradientUnits="userSpaceOnUse" gradientTransform="translate(486.333 168.06) scale(124.057 124.213)">
<stop stop-color="#8E8BC3"/>
<stop offset="1" stop-color="#5B5BA8"/>
</radialGradient>
</defs>
</svg>
