<svg width="185" height="40" viewBox="0 0 185 40" fill="none" xmlns="http://www.w3.org/2000/svg">
<path d="M62.3639 10.0618V16.6615H74.8315V20.7677H62.3639V33.2866H57.9531V5.95557H78.0289V10.0618H62.3639Z" fill="white"/>
<path d="M79.1602 12.4409H83.5307V16.4671C84.5026 13.9336 87.6597 11.8405 92.1108 11.8405V15.4205C86.8086 15.4205 83.6112 18.4402 83.5307 22.8666V33.2923H79.1602V12.4409Z" fill="white"/>
<path d="M92.1133 22.9067C92.1133 16.8274 96.6449 11.8748 103.04 11.8748C106.076 11.8748 108.624 13.0414 110.084 14.494V12.481H114.415V33.2923H110.004L110.044 31.1592C108.67 32.566 106.444 33.8985 103.04 33.8985C96.6449 33.8985 92.1133 28.9859 92.1133 22.9067ZM110.332 22.8666C110.332 18.3601 107.255 15.7408 103.367 15.7408C99.48 15.7408 96.4838 18.9205 96.4838 22.8666C96.4838 26.8127 99.4397 30.0325 103.367 30.0325C107.295 30.0325 110.332 27.4132 110.332 22.8666Z" fill="white"/>
<path d="M122.511 31.1591L122.551 33.2923H118.141V5.95556L122.471 5.22925V14.4883C123.926 13.0414 126.479 11.869 129.516 11.869C135.91 11.869 140.442 16.8216 140.442 22.9009C140.442 28.9802 135.91 33.8928 129.516 33.8928C126.117 33.8928 123.891 32.566 122.511 31.1534V31.1591ZM136.192 22.8666C136.192 18.9205 133.116 15.7407 129.188 15.7407C125.26 15.7407 122.224 18.36 122.224 22.8666C122.224 27.3731 125.3 30.0325 129.188 30.0325C133.075 30.0325 136.192 26.8127 136.192 22.8666Z" fill="white"/>
<path d="M143.27 12.4409H147.64V16.4671C148.612 13.9336 151.769 11.8405 156.22 11.8405V15.4205C150.918 15.4205 147.721 18.4402 147.64 22.8666V33.2923H143.27V12.4409Z" fill="white"/>
<path d="M157.844 7.04218C157.844 5.63531 158.936 4.54871 160.311 4.54871C161.685 4.54871 162.818 5.63531 162.818 7.04218C162.818 8.44905 161.725 9.49562 160.311 9.49562C158.896 9.49562 157.844 8.40902 157.844 7.04218ZM158.327 12.4352H162.697V33.2866H158.327V12.4352Z" fill="white"/>
<path d="M165.652 22.8666C165.652 16.7874 170.305 11.8748 177.108 11.8748C179.696 11.8748 182.732 12.6411 184.595 14.3682V18.8348C184.595 18.8348 182.128 15.695 177.108 15.695C172.979 15.695 169.902 18.9148 169.902 22.8609C169.902 27.1673 172.858 30.0668 177.51 30.0668C182.41 30.0668 184.998 27.8936 184.998 27.8936V31.9198C183.094 33.4067 179.655 33.8928 177.51 33.8928C169.701 33.8928 165.652 28.9402 165.652 22.8609V22.8666Z" fill="white"/>
<path d="M10.1705 7.17585L7.23047 10.0996L9.97121 12.8252L12.9112 9.90146L10.1705 7.17585Z" fill="#968EFF"/>
<path d="M26.307 36.5407C26.307 36.5407 24.8233 38.022 24.8175 38.0277C22.2124 40.6184 17.9799 40.6184 15.3748 38.0277L2.00437 24.7025H1.99287C-0.612208 22.106 -0.612208 17.8969 1.99287 15.3062L3.48231 13.825L6.22541 16.5529L4.71297 18.057C3.63183 19.1322 3.63183 20.8707 4.71297 21.9459C4.71297 21.9459 17.6406 34.8365 18.1409 35.3283C19.2221 36.3978 20.9703 36.3978 22.0514 35.3283L23.5926 33.7956L26.3127 36.5407H26.307Z" fill="#5A50D8"/>
<path d="M35.5101 18.0798C36.5855 19.155 36.5855 20.8993 35.5101 21.9687L34.0149 23.4557L36.758 26.1779L38.2302 24.7138C40.8353 22.1231 40.8353 17.9254 38.2302 15.329V15.3176C36.5222 13.6419 24.8425 1.99234 24.8425 1.99234C22.2374 -0.598358 18.0164 -0.598358 15.4056 1.99234L13.9219 3.46784L16.6592 6.19007L18.1659 4.70314C19.247 3.62797 21.001 3.62797 22.0764 4.70314L35.5101 18.0798Z" fill="#968EFF"/>
<path d="M26.273 16.7588L23.5356 19.4867L22.0749 18.0341C20.9996 16.9647 19.2456 16.9647 18.1644 18.0341L9.96391 26.1894L7.22656 23.4671C7.22656 23.4671 15.4041 15.3405 15.4041 15.3347C18.0092 12.744 22.2302 12.744 24.841 15.3347L26.2787 16.7645L26.273 16.7588Z" fill="#968EFF"/>
<path d="M26.32 9.89028L24.8306 11.3715C22.2255 13.9679 17.9872 13.9679 15.3821 11.3772L8.66529 4.69745C5.99695 2.17538 2.17846 5.96706 4.71454 8.62639C6.0372 9.94175 11.5004 15.3748 12.9323 16.7988L10.1892 19.521C8.0097 17.3535 1.98869 11.3715 1.98869 11.3715V11.3601C-4.02657 4.88618 4.91581 -4.00112 11.4141 1.97522H11.4256L18.1482 8.67786C19.2294 9.74731 20.9776 9.74731 22.0587 8.67786L23.5827 7.16233L26.32 9.89028Z" fill="#5A50D8"/>
<path d="M27.3438 30.0898L30.0581 32.8406L33.0197 29.8953L30.2766 27.1731L27.3438 30.0898Z" fill="#5A50D8"/>
<path d="M24.8195 24.7253C22.2144 27.316 17.9819 27.316 15.3768 24.7253L13.9219 23.2841L16.665 20.5562L18.1429 22.0259C19.224 23.1011 20.9723 23.1011 22.0534 22.0259L30.2712 13.8192L33.0143 16.5414C31.4846 18.0741 24.8195 24.7253 24.8195 24.7253Z" fill="#5A50D8"/>
<path d="M38.2472 38.0505C35.6479 40.6412 31.4211 40.6412 28.8103 38.0505L22.0704 31.3536C20.9951 30.2784 19.2411 30.2784 18.1599 31.3536L16.6475 32.8348L13.9102 30.1183L15.3881 28.6542C17.9932 26.0464 22.2257 26.0407 24.8365 28.6428C25.9752 29.7695 31.5534 35.3226 31.5534 35.3226C32.6403 36.4035 34.4173 36.4035 35.5041 35.3226C36.591 34.2417 36.591 32.4745 35.5041 31.3936C35.5041 31.3936 28.816 24.7425 27.2806 23.2155L30.0237 20.4875C31.5649 22.0202 38.2415 28.6657 38.2415 28.6657C40.8466 31.2564 40.8466 35.4656 38.2415 38.0505H38.2472Z" fill="#968EFF"/>
<path d="M31.5602 4.72028C34.2343 2.19249 38.0528 5.99561 35.511 8.64922L33.9985 10.1533L36.7416 12.8813L38.2426 11.3886C40.8592 8.79792 40.8649 4.58874 38.2541 1.99233C35.6432 -0.604089 31.4107 -0.59837 28.8056 2.00377L27.3047 3.49642L30.0478 6.22437L31.5602 4.72028Z" fill="#5A50D8"/>
<path d="M8.68745 35.3283C6.01336 37.8561 2.19487 34.053 4.7367 31.3994L6.24914 29.8953L3.50604 27.1674L2.0051 28.66C-0.611483 31.2507 -0.617234 35.4599 1.9936 38.0563C4.60443 40.6527 8.83697 40.647 11.442 38.0449L12.943 36.5522L10.1999 33.8242L8.68745 35.3283Z" fill="#968EFF"/>
</svg>
