<svg width="593" height="449" viewBox="0 0 593 449" fill="none" xmlns="http://www.w3.org/2000/svg">
<path d="M505.399 410.441C389.777 461.784 202.332 461.784 86.7108 410.441C-28.9107 359.099 -28.8969 275.85 86.7108 224.507C202.319 173.164 389.777 173.164 505.399 224.507C621.02 275.85 621.007 359.122 505.399 410.441Z" fill="url(#paint0_linear_201_284)"/>
<path d="M499.235 285.115L437.581 249.064V95.0337L499.235 131.085V285.115Z" fill="#968EFF"/>
<path d="M499.238 131.085L566.508 91.7639V245.78L499.238 285.115V131.085Z" fill="url(#paint1_linear_201_284)"/>
<path d="M437.585 95.0338L504.841 55.7124L566.508 91.764L499.238 131.086L437.585 95.0338Z" fill="#968EFF"/>
<path d="M541.329 260.536V234.308L523.901 244.453V270.667L541.329 260.536Z" fill="url(#paint2_linear_201_284)"/>
<path d="M533.719 238.737L532.022 239.729V265.944L533.719 264.952V238.737Z" fill="#968EFF"/>
<path d="M506.289 241.644V227.028L517.825 220.278V234.895L506.289 241.644Z" fill="url(#paint3_linear_201_284)"/>
<path d="M517.825 234.895L514.941 233.218V221.969L517.825 220.278V234.895Z" fill="#968EFF"/>
<path d="M506.289 238.276L514.941 233.218L517.825 234.895L506.289 241.644V238.276Z" fill="#968EFF"/>
<path d="M506.289 269.647V255.03L517.825 248.295V262.911L506.289 269.647Z" fill="url(#paint4_linear_201_284)"/>
<path d="M517.825 262.911L514.941 261.221V249.972L517.825 248.295V262.911Z" fill="#968EFF"/>
<path d="M506.289 266.279L514.941 261.221L517.825 262.912L506.289 269.647V266.279Z" fill="#968EFF"/>
<path d="M506.289 214.228V199.612L517.825 192.876V207.493L506.289 214.228Z" fill="url(#paint5_linear_201_284)"/>
<path d="M517.825 207.493L514.941 205.802V194.553L517.825 192.876V207.493Z" fill="#968EFF"/>
<path d="M506.289 210.86L514.941 205.802L517.825 207.493L506.289 214.228V210.86Z" fill="#968EFF"/>
<path d="M506.289 186.812V172.196L517.825 165.46V180.077L506.289 186.812Z" fill="url(#paint6_linear_201_284)"/>
<path d="M517.825 180.077L514.941 178.386V167.137L517.825 165.46V180.077Z" fill="#968EFF"/>
<path d="M506.289 183.444L514.941 178.386L517.825 180.077L506.289 186.812V183.444Z" fill="#968EFF"/>
<path d="M506.289 159.41V144.78L517.825 138.044V152.661L506.289 159.41Z" fill="url(#paint7_linear_201_284)"/>
<path d="M517.825 152.661L514.941 150.97V139.735L517.825 138.044V152.661Z" fill="#968EFF"/>
<path d="M506.289 156.028L514.941 150.97L517.825 152.661L506.289 159.41V156.028Z" fill="#968EFF"/>
<path d="M547.906 217.316V202.7L559.442 195.95V210.567L547.906 217.316Z" fill="url(#paint8_linear_201_284)"/>
<path d="M559.442 210.567L556.558 208.89V197.641L559.442 195.95V210.567Z" fill="#968EFF"/>
<path d="M547.906 213.949L556.558 208.89L559.442 210.567L547.906 217.316V213.949Z" fill="#968EFF"/>
<path d="M547.906 245.319V230.703L559.442 223.967V238.57L547.906 245.319Z" fill="url(#paint9_linear_201_284)"/>
<path d="M559.442 238.57L556.558 236.893V225.644L559.442 223.967V238.57Z" fill="#968EFF"/>
<path d="M547.906 241.951L556.558 236.893L559.442 238.57L547.906 245.319V241.951Z" fill="#968EFF"/>
<path d="M547.906 189.663V175.046L559.442 168.311V182.927L547.906 189.663Z" fill="url(#paint10_linear_201_284)"/>
<path d="M559.442 182.927L556.558 181.237V169.988L559.442 168.311V182.927Z" fill="#968EFF"/>
<path d="M547.906 186.295L556.558 181.236L559.442 182.927L547.906 189.662V186.295Z" fill="#968EFF"/>
<path d="M547.906 162.023V147.407L559.442 140.657V155.274L547.906 162.023Z" fill="url(#paint11_linear_201_284)"/>
<path d="M559.442 155.274L556.558 153.597V142.348L559.442 140.657V155.274Z" fill="#968EFF"/>
<path d="M547.906 158.655L556.558 153.597L559.442 155.273L547.906 162.023V158.655Z" fill="#968EFF"/>
<path d="M547.906 134.369V119.753L559.442 113.018V127.634L547.906 134.369Z" fill="url(#paint12_linear_201_284)"/>
<path d="M559.442 127.634L556.558 125.943V114.695L559.442 113.018V127.634Z" fill="#968EFF"/>
<path d="M547.906 131.002L556.558 125.943L559.442 127.634L547.906 134.369V131.002Z" fill="#968EFF"/>
<path d="M541.329 122.869L534.609 126.796V225.099L541.329 221.187V122.869Z" fill="url(#paint13_linear_201_284)"/>
<path d="M541.329 122.869L538.486 124.532V219.566L541.329 221.187V122.869Z" fill="#968EFF"/>
<path d="M538.486 219.566L534.609 221.746V225.099L541.329 221.187L538.486 219.566Z" fill="#968EFF"/>
<path d="M530.633 129.059L523.899 132.972V231.29L530.633 227.363V129.059Z" fill="url(#paint14_linear_201_284)"/>
<path d="M530.633 129.059L527.791 130.722V225.742L530.633 227.363V129.059Z" fill="#968EFF"/>
<path d="M527.791 225.742L523.899 227.922V231.29L530.633 227.363L527.791 225.742Z" fill="#968EFF"/>
<path d="M492.106 241.644V227.028L480.584 220.278V234.895L492.106 241.644Z" fill="url(#paint15_linear_201_284)"/>
<path d="M480.581 234.895L483.465 233.218L483.452 221.969L480.581 220.278V234.895Z" fill="url(#paint16_linear_201_284)"/>
<path d="M492.106 238.276L483.468 233.218L480.584 234.895L492.106 241.644V238.276Z" fill="#968EFF"/>
<path d="M474.18 231.206V216.589L462.644 209.854V224.471L474.18 231.206Z" fill="url(#paint17_linear_201_284)"/>
<path d="M462.64 224.471L465.524 222.78V211.531L462.64 209.854V224.471Z" fill="url(#paint18_linear_201_284)"/>
<path d="M474.18 227.838L465.528 222.78L462.644 224.471L474.18 231.206V227.838Z" fill="#968EFF"/>
<path d="M456.254 220.781V206.165L444.718 199.416V214.032L456.254 220.781Z" fill="url(#paint19_linear_201_284)"/>
<path d="M444.714 214.032L447.598 212.355V201.107L444.714 199.416V214.032Z" fill="url(#paint20_linear_201_284)"/>
<path d="M456.254 217.4L447.602 212.355L444.718 214.032L456.254 220.781V217.4Z" fill="#968EFF"/>
<path d="M492.106 269.647V255.03L480.584 248.295V262.911L492.106 269.647Z" fill="url(#paint21_linear_201_284)"/>
<path d="M480.581 262.911L483.465 261.221L483.452 249.972L480.581 248.295V262.911Z" fill="url(#paint22_linear_201_284)"/>
<path d="M492.106 266.279L483.468 261.221L480.584 262.912L492.106 269.647V266.279Z" fill="#968EFF"/>
<path d="M474.18 259.223V244.592L462.644 237.857V252.473L474.18 259.223Z" fill="url(#paint23_linear_201_284)"/>
<path d="M462.64 252.473L465.524 250.783V239.548L462.64 237.857V252.473Z" fill="url(#paint24_linear_201_284)"/>
<path d="M474.18 255.841L465.528 250.783L462.644 252.473L474.18 259.223V255.841Z" fill="#968EFF"/>
<path d="M456.254 248.784V234.168L444.718 227.419V242.035L456.254 248.784Z" fill="url(#paint25_linear_201_284)"/>
<path d="M444.714 242.035L447.598 240.358V229.11L444.714 227.419V242.035Z" fill="url(#paint26_linear_201_284)"/>
<path d="M456.254 245.417L447.602 240.358L444.718 242.035L456.254 248.784V245.417Z" fill="#968EFF"/>
<path d="M492.106 214.228V199.612L480.584 192.876V207.493L492.106 214.228Z" fill="url(#paint27_linear_201_284)"/>
<path d="M480.581 207.493L483.465 205.802L483.452 194.553L480.581 192.876V207.493Z" fill="url(#paint28_linear_201_284)"/>
<path d="M492.106 210.86L483.468 205.802L480.584 207.493L492.106 214.228V210.86Z" fill="#968EFF"/>
<path d="M474.18 203.678V189.062L462.644 182.326V196.943L474.18 203.678Z" fill="url(#paint29_linear_201_284)"/>
<path d="M462.64 196.943L465.524 195.252V184.003L462.64 182.326V196.943Z" fill="url(#paint30_linear_201_284)"/>
<path d="M474.18 200.31L465.528 195.252L462.644 196.943L474.18 203.678V200.31Z" fill="#968EFF"/>
<path d="M456.254 193.128V178.512L444.718 171.776V186.393L456.254 193.128Z" fill="url(#paint31_linear_201_284)"/>
<path d="M444.714 186.393L447.598 184.702V173.453L444.714 171.776V186.393Z" fill="url(#paint32_linear_201_284)"/>
<path d="M456.254 189.76L447.602 184.702L444.718 186.392L456.254 193.128V189.76Z" fill="#968EFF"/>
<path d="M492.106 186.812V172.196L480.584 165.46V180.077L492.106 186.812Z" fill="url(#paint33_linear_201_284)"/>
<path d="M480.581 180.077L483.465 178.386L483.452 167.137L480.581 165.46V180.077Z" fill="url(#paint34_linear_201_284)"/>
<path d="M492.106 183.444L483.468 178.386L480.584 180.077L492.106 186.812V183.444Z" fill="#968EFF"/>
<path d="M474.18 176.15V161.534L462.644 154.785V169.415L474.18 176.15Z" fill="url(#paint35_linear_201_284)"/>
<path d="M462.64 169.415L465.524 167.724V156.475L462.64 154.785V169.415Z" fill="url(#paint36_linear_201_284)"/>
<path d="M474.18 172.783L465.528 167.724L462.644 169.415L474.18 176.15V172.783Z" fill="#968EFF"/>
<path d="M456.254 165.488V150.872L444.718 144.123V158.739L456.254 165.488Z" fill="url(#paint37_linear_201_284)"/>
<path d="M444.714 158.739L447.598 157.062V145.814L444.714 144.123V158.739Z" fill="url(#paint38_linear_201_284)"/>
<path d="M456.254 162.12L447.602 157.062L444.718 158.739L456.254 165.488V162.12Z" fill="#968EFF"/>
<path d="M492.106 159.41V144.78L480.584 138.044V152.661L492.106 159.41Z" fill="url(#paint39_linear_201_284)"/>
<path d="M480.581 152.661L483.465 150.97L483.452 139.735L480.581 138.044V152.661Z" fill="url(#paint40_linear_201_284)"/>
<path d="M492.106 156.028L483.468 150.97L480.584 152.661L492.106 159.41V156.028Z" fill="#968EFF"/>
<path d="M474.18 148.622V134.006L462.644 127.257V141.873L474.18 148.622Z" fill="url(#paint41_linear_201_284)"/>
<path d="M462.64 141.873L465.524 140.196V128.948L462.64 127.257V141.873Z" fill="url(#paint42_linear_201_284)"/>
<path d="M474.18 145.255L465.528 140.196L462.644 141.873L474.18 148.622V145.255Z" fill="#968EFF"/>
<path d="M456.254 137.835V123.218L444.718 116.483V131.099L456.254 137.835Z" fill="url(#paint43_linear_201_284)"/>
<path d="M444.714 131.099L447.598 129.409V118.16L444.714 116.483V131.099Z" fill="url(#paint44_linear_201_284)"/>
<path d="M456.254 134.467L447.602 129.409L444.718 131.099L456.254 137.835V134.467Z" fill="#968EFF"/>
<path d="M555.29 91.7642L504.841 62.2661L448.803 95.034L499.238 124.532L555.29 91.7642Z" fill="#D4D2F2"/>
<path d="M504.836 62.2661V68.8197L454.401 98.3178L448.799 95.034L504.836 62.2661Z" fill="url(#paint45_linear_201_284)"/>
<path d="M504.841 62.2661L555.29 91.7642L549.687 95.034L504.841 68.8197V62.2661Z" fill="#968EFF"/>
<path d="M110.202 285.115L171.856 249.064V95.0337L110.188 131.085L110.202 285.115Z" fill="url(#paint46_linear_201_284)"/>
<path d="M110.19 131.086L42.9337 91.7642V245.78L110.204 285.116L110.19 131.086Z" fill="#968EFF"/>
<path d="M171.856 95.0338L104.586 55.7124L42.9322 91.764L110.188 131.086L171.856 95.0338Z" fill="#968EFF"/>
<path d="M68.1055 260.536V234.308L85.5474 244.453L85.5336 270.667L68.1055 260.536Z" fill="url(#paint47_linear_201_284)"/>
<path d="M75.7194 238.737L77.4028 239.729V265.944L75.7194 264.952V238.737Z" fill="#968EFF"/>
<path d="M103.149 241.644V227.028L91.613 220.278V234.895L103.149 241.644Z" fill="url(#paint48_linear_201_284)"/>
<path d="M91.6126 234.895L94.4966 233.218V221.969L91.6126 220.278V234.895Z" fill="#968EFF"/>
<path d="M103.149 238.276L94.4969 233.218L91.613 234.895L103.149 241.644V238.276Z" fill="url(#paint49_linear_201_284)"/>
<path d="M103.149 269.647V255.03L91.613 248.295V262.911L103.149 269.647Z" fill="url(#paint50_linear_201_284)"/>
<path d="M91.6126 262.911L94.4966 261.221V249.972L91.6126 248.295V262.911Z" fill="#968EFF"/>
<path d="M103.149 266.279L94.4969 261.221L91.613 262.912L103.149 269.647V266.279Z" fill="url(#paint51_linear_201_284)"/>
<path d="M103.149 214.228V199.612L91.613 192.876V207.493L103.149 214.228Z" fill="url(#paint52_linear_201_284)"/>
<path d="M91.6126 207.493L94.4966 205.802V194.553L91.6126 192.876V207.493Z" fill="#968EFF"/>
<path d="M103.149 210.86L94.4969 205.802L91.613 207.493L103.149 214.228V210.86Z" fill="url(#paint53_linear_201_284)"/>
<path d="M103.149 186.812V172.196L91.613 165.46V180.077L103.149 186.812Z" fill="url(#paint54_linear_201_284)"/>
<path d="M91.6126 180.077L94.4966 178.386V167.137L91.6126 165.46V180.077Z" fill="#968EFF"/>
<path d="M103.149 183.444L94.4969 178.386L91.613 180.077L103.149 186.812V183.444Z" fill="url(#paint55_linear_201_284)"/>
<path d="M103.149 159.41V144.78L91.613 138.044V152.661L103.149 159.41Z" fill="url(#paint56_linear_201_284)"/>
<path d="M91.6126 152.661L94.4966 150.97V139.735L91.6126 138.044V152.661Z" fill="#968EFF"/>
<path d="M103.149 156.028L94.4969 150.97L91.613 152.661L103.149 159.41V156.028Z" fill="url(#paint57_linear_201_284)"/>
<path d="M61.52 217.316V202.7L49.9979 195.95V210.567L61.52 217.316Z" fill="url(#paint58_linear_201_284)"/>
<path d="M50.0014 210.567L52.8716 208.89V197.641L50.0014 195.95V210.567Z" fill="#968EFF"/>
<path d="M61.52 213.949L52.8681 208.89L49.9979 210.567L61.52 217.316V213.949Z" fill="url(#paint59_linear_201_284)"/>
<path d="M61.52 245.319V230.703L49.9979 223.967V238.57L61.52 245.319Z" fill="url(#paint60_linear_201_284)"/>
<path d="M50.0014 238.57L52.8716 236.893V225.644L50.0014 223.967V238.57Z" fill="#968EFF"/>
<path d="M61.52 241.951L52.8681 236.893L49.9979 238.57L61.52 245.319V241.951Z" fill="url(#paint61_linear_201_284)"/>
<path d="M61.52 189.663V175.046L49.9979 168.311V182.927L61.52 189.663Z" fill="url(#paint62_linear_201_284)"/>
<path d="M50.0014 182.927L52.8716 181.237V169.988L50.0014 168.311V182.927Z" fill="#968EFF"/>
<path d="M61.52 186.295L52.8681 181.236L49.9979 182.927L61.52 189.662V186.295Z" fill="url(#paint63_linear_201_284)"/>
<path d="M61.52 162.023V147.407L49.9979 140.657V155.274L61.52 162.023Z" fill="url(#paint64_linear_201_284)"/>
<path d="M50.0014 155.274L52.8716 153.597V142.348L50.0014 140.657V155.274Z" fill="#968EFF"/>
<path d="M61.52 158.655L52.8681 153.597L49.9979 155.273L61.52 162.023V158.655Z" fill="url(#paint65_linear_201_284)"/>
<path d="M61.52 134.369V119.753L49.9979 113.018V127.634L61.52 134.369Z" fill="url(#paint66_linear_201_284)"/>
<path d="M50.0014 127.634L52.8716 125.943V114.695L50.0014 113.018V127.634Z" fill="#968EFF"/>
<path d="M61.52 131.002L52.8681 125.943L49.9979 127.634L61.52 134.369V131.002Z" fill="url(#paint67_linear_201_284)"/>
<path d="M68.1065 122.869L74.8403 126.796V225.099L68.1065 221.187V122.869Z" fill="url(#paint68_linear_201_284)"/>
<path d="M68.1051 122.869L70.9614 124.532V219.566L68.1051 221.187V122.869Z" fill="#968EFF"/>
<path d="M70.9628 219.566L74.8403 221.746V225.099L68.1065 221.187L70.9628 219.566Z" fill="url(#paint69_linear_201_284)"/>
<path d="M78.8077 129.059L85.5278 132.972V231.29L78.8077 227.363V129.059Z" fill="url(#paint70_linear_201_284)"/>
<path d="M78.8102 129.059L81.6528 130.722V225.742L78.8102 227.363V129.059Z" fill="#968EFF"/>
<path d="M81.6503 225.742L85.5278 227.922V231.29L78.8077 227.363L81.6503 225.742Z" fill="url(#paint71_linear_201_284)"/>
<path d="M117.324 241.644V227.028L128.86 220.278V234.895L117.324 241.644Z" fill="url(#paint72_linear_201_284)"/>
<path d="M128.86 234.895L125.976 233.218V221.969L128.86 220.278V234.895Z" fill="#968EFF"/>
<path d="M117.324 238.276L125.976 233.218L128.86 234.895L117.324 241.644V238.276Z" fill="#968EFF"/>
<path d="M135.267 231.206V216.589L146.79 209.854V224.471L135.267 231.206Z" fill="url(#paint73_linear_201_284)"/>
<path d="M146.79 224.471L143.919 222.78V211.531L146.79 209.854V224.471Z" fill="#968EFF"/>
<path d="M135.267 227.838L143.919 222.78L146.79 224.471L135.267 231.206V227.838Z" fill="#968EFF"/>
<path d="M153.187 220.781V206.165L164.723 199.416V214.032L153.187 220.781Z" fill="url(#paint74_linear_201_284)"/>
<path d="M164.723 214.032L161.839 212.355V201.107L164.723 199.416V214.032Z" fill="#968EFF"/>
<path d="M153.187 217.4L161.839 212.355L164.723 214.032L153.187 220.781V217.4Z" fill="#968EFF"/>
<path d="M117.324 269.647V255.03L128.86 248.295V262.911L117.324 269.647Z" fill="url(#paint75_linear_201_284)"/>
<path d="M128.86 262.911L125.976 261.221V249.972L128.86 248.295V262.911Z" fill="#968EFF"/>
<path d="M117.324 266.279L125.976 261.221L128.86 262.912L117.324 269.647V266.279Z" fill="#968EFF"/>
<path d="M135.267 259.223V244.592L146.79 237.857V252.473L135.267 259.223Z" fill="url(#paint76_linear_201_284)"/>
<path d="M146.79 252.473L143.919 250.783V239.548L146.79 237.857V252.473Z" fill="#968EFF"/>
<path d="M135.267 255.841L143.919 250.783L146.79 252.473L135.267 259.223V255.841Z" fill="#968EFF"/>
<path d="M153.187 248.784V234.168L164.723 227.419V242.035L153.187 248.784Z" fill="url(#paint77_linear_201_284)"/>
<path d="M164.723 242.035L161.839 240.358V229.11L164.723 227.419V242.035Z" fill="#968EFF"/>
<path d="M153.187 245.417L161.839 240.358L164.723 242.035L153.187 248.784V245.417Z" fill="#968EFF"/>
<path d="M117.324 214.228V199.612L128.86 192.876V207.493L117.324 214.228Z" fill="url(#paint78_linear_201_284)"/>
<path d="M128.86 207.493L125.976 205.802V194.553L128.86 192.876V207.493Z" fill="#968EFF"/>
<path d="M117.324 210.86L125.976 205.802L128.86 207.493L117.324 214.228V210.86Z" fill="#968EFF"/>
<path d="M135.267 203.678V189.062L146.79 182.326V196.943L135.267 203.678Z" fill="url(#paint79_linear_201_284)"/>
<path d="M146.79 196.943L143.919 195.252V184.003L146.79 182.326V196.943Z" fill="#968EFF"/>
<path d="M135.267 200.31L143.919 195.252L146.79 196.943L135.267 203.678V200.31Z" fill="#968EFF"/>
<path d="M153.187 193.128V178.512L164.723 171.776V186.393L153.187 193.128Z" fill="url(#paint80_linear_201_284)"/>
<path d="M164.723 186.393L161.839 184.702V173.453L164.723 171.776V186.393Z" fill="#968EFF"/>
<path d="M153.187 189.76L161.839 184.702L164.723 186.392L153.187 193.128V189.76Z" fill="#968EFF"/>
<path d="M117.324 186.812V172.196L128.86 165.46V180.077L117.324 186.812Z" fill="url(#paint81_linear_201_284)"/>
<path d="M128.86 180.077L125.976 178.386V167.137L128.86 165.46V180.077Z" fill="#968EFF"/>
<path d="M117.324 183.444L125.976 178.386L128.86 180.077L117.324 186.812V183.444Z" fill="#968EFF"/>
<path d="M135.267 176.15V161.534L146.79 154.785V169.415L135.267 176.15Z" fill="url(#paint82_linear_201_284)"/>
<path d="M146.79 169.415L143.919 167.724V156.475L146.79 154.785V169.415Z" fill="#968EFF"/>
<path d="M135.267 172.783L143.919 167.724L146.79 169.415L135.267 176.15V172.783Z" fill="#968EFF"/>
<path d="M153.187 165.488V150.872L164.723 144.123V158.739L153.187 165.488Z" fill="url(#paint83_linear_201_284)"/>
<path d="M164.723 158.739L161.839 157.062V145.814L164.723 144.123V158.739Z" fill="#968EFF"/>
<path d="M153.187 162.12L161.839 157.062L164.723 158.739L153.187 165.488V162.12Z" fill="#968EFF"/>
<path d="M117.324 159.41V144.78L128.86 138.044V152.661L117.324 159.41Z" fill="url(#paint84_linear_201_284)"/>
<path d="M128.86 152.661L125.976 150.97V139.735L128.86 138.044V152.661Z" fill="#968EFF"/>
<path d="M117.324 156.028L125.976 150.97L128.86 152.661L117.324 159.41V156.028Z" fill="#968EFF"/>
<path d="M135.267 148.622V134.006L146.79 127.257V141.873L135.267 148.622Z" fill="url(#paint85_linear_201_284)"/>
<path d="M146.79 141.873L143.919 140.196V128.948L146.79 127.257V141.873Z" fill="#968EFF"/>
<path d="M135.267 145.255L143.919 140.196L146.79 141.873L135.267 148.622V145.255Z" fill="#968EFF"/>
<path d="M153.187 137.835V123.218L164.723 116.483V131.099L153.187 137.835Z" fill="url(#paint86_linear_201_284)"/>
<path d="M164.723 131.099L161.839 129.409V118.16L164.723 116.483V131.099Z" fill="#968EFF"/>
<path d="M153.187 134.467L161.839 129.409L164.723 131.099L153.187 137.835V134.467Z" fill="#968EFF"/>
<path d="M54.1329 91.7642L104.582 62.2661L160.633 95.034L110.184 124.532L54.1329 91.7642Z" fill="#D4D2F2"/>
<path d="M104.582 62.2661V68.8197L155.031 98.3178L160.633 95.034L104.582 62.2661Z" fill="#968EFF"/>
<path d="M104.586 62.2661L54.1374 91.7642L59.7536 95.034L104.586 68.8197V62.2661Z" fill="url(#paint87_linear_201_284)"/>
<path d="M201.655 429.057C208.669 431.977 216.539 431.977 223.553 429.057C229.597 426.136 229.597 421.413 223.553 418.493C216.539 415.573 208.669 415.573 201.655 418.493C195.597 421.413 195.597 426.136 201.655 429.057Z" fill="url(#paint88_linear_201_284)"/>
<path d="M428.133 419.429C421.113 422.35 413.239 422.35 406.22 419.429C400.176 416.509 400.176 411.786 406.22 408.865C413.239 405.944 421.113 405.944 428.133 408.865C434.149 411.786 434.149 416.509 428.133 419.429Z" fill="url(#paint89_linear_201_284)"/>
<path d="M300.063 417.724L165.909 339.291C165.008 338.807 164.255 338.083 163.729 337.198C163.204 336.313 162.926 335.3 162.926 334.267C162.926 333.235 163.204 332.221 163.729 331.336C164.255 330.451 165.008 329.728 165.909 329.244L300.076 250.811C301.002 250.336 302.026 250.088 303.064 250.088C304.102 250.088 305.125 250.336 306.051 250.811L440.205 329.188C441.106 329.672 441.859 330.396 442.385 331.281C442.91 332.166 443.188 333.179 443.188 334.211C443.188 335.244 442.91 336.257 442.385 337.142C441.859 338.027 441.106 338.751 440.205 339.235L306.037 417.668C305.116 418.152 304.095 418.409 303.057 418.419C302.019 418.429 300.993 418.191 300.063 417.724V417.724Z" fill="url(#paint90_linear_201_284)"/>
<path d="M300.063 417.724L165.909 339.291C165.008 338.807 164.255 338.083 163.729 337.198C163.204 336.313 162.926 335.3 162.926 334.267C162.926 333.235 163.204 332.221 163.729 331.336C164.255 330.451 165.008 329.728 165.909 329.244L300.076 250.811C301.002 250.336 302.026 250.088 303.064 250.088C304.102 250.088 305.125 250.336 306.051 250.811L440.205 329.188C441.106 329.672 441.859 330.396 442.385 331.281C442.91 332.166 443.188 333.179 443.188 334.211C443.188 335.244 442.91 336.257 442.385 337.142C441.859 338.027 441.106 338.751 440.205 339.235L306.037 417.668C305.116 418.152 304.095 418.409 303.057 418.419C302.019 418.429 300.993 418.191 300.063 417.724V417.724Z" fill="url(#paint91_linear_201_284)"/>
<path d="M300.063 417.724L165.909 339.291C165.008 338.807 164.255 338.083 163.729 337.198C163.204 336.313 162.926 335.3 162.926 334.267C162.926 333.235 163.204 332.221 163.729 331.336C164.255 330.451 165.008 329.728 165.909 329.244L300.076 250.811C301.002 250.336 302.026 250.088 303.064 250.088C304.102 250.088 305.125 250.336 306.051 250.811L440.205 329.188C441.106 329.672 441.859 330.396 442.385 331.281C442.91 332.166 443.188 333.179 443.188 334.211C443.188 335.244 442.91 336.257 442.385 337.142C441.859 338.027 441.106 338.751 440.205 339.235L306.037 417.668C305.116 418.152 304.095 418.409 303.057 418.419C302.019 418.429 300.993 418.191 300.063 417.724V417.724Z" fill="url(#paint92_linear_201_284)"/>
<path opacity="0.2" d="M300.063 417.724L165.909 339.291C165.008 338.807 164.255 338.083 163.729 337.198C163.204 336.313 162.926 335.3 162.926 334.267C162.926 333.235 163.204 332.221 163.729 331.336C164.255 330.451 165.008 329.728 165.909 329.244L300.076 250.811C301.002 250.336 302.026 250.088 303.064 250.088C304.102 250.088 305.125 250.336 306.051 250.811L440.205 329.188C441.106 329.672 441.859 330.396 442.385 331.281C442.91 332.166 443.188 333.179 443.188 334.211C443.188 335.244 442.91 336.257 442.385 337.142C441.859 338.027 441.106 338.751 440.205 339.235L306.037 417.668C305.116 418.152 304.095 418.409 303.057 418.419C302.019 418.429 300.993 418.191 300.063 417.724V417.724Z" fill="black"/>
<path d="M440.207 332.737L306.04 411.171C305.114 411.646 304.09 411.893 303.052 411.893C302.014 411.893 300.991 411.646 300.065 411.171L165.911 332.737C165.551 332.613 165.238 332.378 165.016 332.065C164.794 331.752 164.675 331.376 164.675 330.991C164.675 330.605 164.794 330.229 165.016 329.916C165.238 329.603 165.551 329.368 165.911 329.244L300.078 250.811C301.004 250.336 302.028 250.088 303.066 250.088C304.104 250.088 305.127 250.336 306.053 250.811L440.207 329.188C440.588 329.297 440.924 329.53 441.163 329.85C441.402 330.171 441.532 330.561 441.532 330.963C441.532 331.364 441.402 331.755 441.163 332.075C440.924 332.395 440.588 332.628 440.207 332.737Z" fill="url(#paint93_linear_201_284)"/>
<path d="M280.633 383.419L185.351 327.707V95.0337L280.633 150.746V383.419Z" fill="#968EFF"/>
<path d="M303.061 399.81V163.853L420.766 95.0337V330.99L303.061 399.81Z" fill="url(#paint94_linear_201_284)"/>
<path d="M303.057 301.492L420.762 232.673V226.119L431.981 232.673L303.057 308.046V301.492Z" fill="url(#paint95_linear_201_284)"/>
<path opacity="0.5" d="M303.057 301.492L420.762 232.673V226.119L431.981 232.673L303.057 308.046V301.492Z" fill="url(#paint96_linear_201_284)"/>
<path d="M431.981 232.673L303.057 308.046V314.6L431.981 239.226V232.673Z" fill="url(#paint97_linear_201_284)"/>
<path d="M303.059 301.492L280.636 288.385L275.033 291.669L303.059 308.046V301.492Z" fill="url(#paint98_linear_201_284)"/>
<path opacity="0.5" d="M303.059 301.492L280.636 288.385L275.033 291.669L303.059 308.046V301.492Z" fill="url(#paint99_linear_201_284)"/>
<path d="M303.059 314.599L275.033 298.223V291.669L303.059 308.046V314.599Z" fill="url(#paint100_linear_201_284)"/>
<path opacity="0.2" d="M303.059 314.599L275.033 298.223V291.669L303.059 308.046V314.599Z" fill="black"/>
<path d="M303.059 163.853L280.636 150.746V288.385L303.059 301.493V163.853Z" fill="#968EFF"/>
<path d="M303.059 314.6L280.636 301.492V386.703L303.059 399.81V314.6Z" fill="#968EFF"/>
<path d="M314.265 281.832V249.064L336.688 235.957V268.724L314.265 281.832Z" fill="url(#paint101_linear_201_284)"/>
<path opacity="0.5" d="M314.265 281.832V249.064L336.688 235.957V268.724L314.265 281.832Z" fill="url(#paint102_linear_201_284)"/>
<path d="M336.688 268.724L331.086 265.455V239.226L336.688 235.957V268.724Z" fill="#968EFF"/>
<path d="M314.265 275.278L331.086 265.455L336.688 268.724L314.265 281.832V275.278Z" fill="#968EFF"/>
<path d="M347.908 262.171V229.403L375.934 213.012V245.78L347.908 262.171Z" fill="url(#paint103_linear_201_284)"/>
<path opacity="0.5" d="M347.908 262.171V229.403L375.934 213.012V245.78L347.908 262.171Z" fill="url(#paint104_linear_201_284)"/>
<path d="M370.332 242.51L370.318 216.296L375.934 213.012V245.78L370.332 242.51Z" fill="#968EFF"/>
<path d="M347.908 255.617V262.171L375.934 245.78L370.332 242.51L347.908 255.617Z" fill="#968EFF"/>
<path d="M266.633 352.286V319.518L238.608 303.141V335.909L266.633 352.286Z" fill="url(#paint105_linear_201_284)"/>
<path d="M244.208 332.625V306.411L238.605 303.141V335.909L244.208 332.625Z" fill="#968EFF"/>
<path d="M266.633 345.733V352.286L238.608 335.909L244.21 332.625L266.633 345.733Z" fill="#968EFF"/>
<path d="M266.633 297.678V264.91L238.608 248.519V281.287L266.633 297.678Z" fill="url(#paint106_linear_201_284)"/>
<path d="M244.208 278.017V251.789L238.605 248.519V281.287L244.208 278.017Z" fill="#968EFF"/>
<path d="M266.633 291.124V297.678L238.608 281.287L244.21 278.017L266.633 291.124Z" fill="#968EFF"/>
<path d="M266.633 243.055V210.287L238.608 193.896V226.664L266.633 243.055Z" fill="url(#paint107_linear_201_284)"/>
<path d="M244.208 223.395V197.18L238.605 193.896V226.664L244.208 223.395Z" fill="#968EFF"/>
<path d="M266.633 236.502V243.055L238.608 226.664L244.21 223.395L266.633 236.502Z" fill="#968EFF"/>
<path d="M266.633 188.433V155.665L238.608 139.274V172.056L266.633 188.433Z" fill="url(#paint108_linear_201_284)"/>
<path d="M244.208 168.772V142.558L238.605 139.274V172.056L244.208 168.772Z" fill="#968EFF"/>
<path d="M266.633 181.879V188.433L238.608 172.056L244.21 168.772L266.633 181.879Z" fill="#968EFF"/>
<path d="M226.774 328.992V296.224L198.734 279.847L198.748 312.615L226.774 328.992Z" fill="url(#paint109_linear_201_284)"/>
<path d="M204.352 309.331V283.117L198.736 279.847L198.75 312.615L204.352 309.331Z" fill="#968EFF"/>
<path d="M226.774 322.453V328.992L198.748 312.615L204.351 309.332L226.774 322.453Z" fill="#968EFF"/>
<path d="M226.774 274.384V241.602L198.734 225.225L198.748 257.993L226.774 274.384Z" fill="url(#paint110_linear_201_284)"/>
<path d="M204.352 254.723V228.495L198.736 225.225L198.75 257.993L204.352 254.723Z" fill="#968EFF"/>
<path d="M226.774 267.83V274.384L198.748 257.993L204.351 254.723L226.774 267.83Z" fill="#968EFF"/>
<path d="M226.774 219.761V186.993L198.734 170.603L198.748 203.384L226.774 219.761Z" fill="url(#paint111_linear_201_284)"/>
<path d="M204.352 200.101V173.886L198.736 170.603L198.75 203.384L204.352 200.101Z" fill="#968EFF"/>
<path d="M226.774 213.208V219.761L198.748 203.384L204.351 200.101L226.774 213.208Z" fill="#968EFF"/>
<path d="M226.774 165.139V132.371L198.734 115.994L198.748 148.762L226.774 165.139Z" fill="url(#paint112_linear_201_284)"/>
<path d="M204.352 145.478V119.264L198.736 115.994L198.75 148.762L204.352 145.478Z" fill="#968EFF"/>
<path d="M226.774 158.585V165.139L198.748 148.762L204.351 145.478L226.774 158.585Z" fill="#968EFF"/>
<path d="M387.132 239.227V206.459L409.555 193.352V226.119L387.132 239.227Z" fill="url(#paint113_linear_201_284)"/>
<path opacity="0.5" d="M387.132 239.227V206.459L409.555 193.352V226.119L387.132 239.227Z" fill="url(#paint114_linear_201_284)"/>
<path d="M403.953 222.85L409.555 226.119V193.352L403.953 196.635V222.85Z" fill="#968EFF"/>
<path d="M387.132 232.673L403.953 222.849L409.555 226.119L387.132 239.226V232.673Z" fill="#968EFF"/>
<path d="M375.934 301.814C375.934 292.563 369.656 288.721 361.914 293.248C354.173 297.775 347.908 308.94 347.908 318.205V373.596L375.934 357.205V301.814Z" fill="#968EFF"/>
<path d="M347.909 318.205C347.909 308.94 354.173 297.761 361.914 293.248C363.885 291.984 366.177 291.328 368.51 291.362C369.791 293.526 370.419 296.023 370.318 298.544V353.935L347.909 367.042V318.205Z" fill="url(#paint115_linear_201_284)"/>
<path d="M347.909 318.205C347.909 308.94 354.173 297.761 361.914 293.248C363.885 291.984 366.177 291.328 368.51 291.362C369.791 293.526 370.419 296.023 370.318 298.544V353.935L347.909 367.042V318.205Z" fill="url(#paint116_linear_201_284)"/>
<path opacity="0.5" d="M347.909 318.205C347.909 308.94 354.173 297.761 361.914 293.248C363.885 291.984 366.177 291.328 368.51 291.362C369.791 293.526 370.419 296.023 370.318 298.544V353.935L347.909 367.042V318.205Z" fill="url(#paint117_linear_201_284)"/>
<path d="M357.863 296.336C358.723 295.515 359.646 294.762 360.622 294.087V308.815L370.282 303.141V306.537L360.622 312.224V354.69L357.863 356.297V313.817L347.9 319.644V318.247C347.9 317.576 347.9 316.85 347.996 316.221L357.863 310.464V296.336Z" fill="url(#paint118_linear_201_284)"/>
<path d="M303.058 163.854V144.193L426.379 72.1035V91.7642L303.058 163.854Z" fill="url(#paint119_linear_201_284)"/>
<path opacity="0.5" d="M303.058 163.854V144.193L426.379 72.1035V91.7642L303.058 163.854Z" fill="url(#paint120_linear_201_284)"/>
<path d="M303.059 163.854V144.193L179.738 72.1035V91.7642L303.059 163.854Z" fill="url(#paint121_linear_201_284)"/>
<path opacity="0.2" d="M303.059 163.854V144.193L179.738 72.1035V91.7642L303.059 163.854Z" fill="black"/>
<path d="M409.555 128.668C409.555 120.955 404.532 117.629 398.35 121.248C392.168 124.867 387.132 134.062 387.132 141.775V193.351L409.555 180.244V128.668Z" fill="#968EFF"/>
<path d="M398.354 121.234C399.688 120.425 401.191 119.946 402.742 119.837C403.596 121.57 404.013 123.49 403.956 125.426V177.003L387.135 186.784V141.761C387.135 134.048 392.158 124.853 398.354 121.234Z" fill="url(#paint122_linear_201_284)"/>
<path opacity="0.5" d="M398.354 121.234C399.688 120.425 401.191 119.946 402.742 119.837C403.596 121.57 404.013 123.49 403.956 125.426V177.003L387.135 186.784V141.761C387.135 134.048 392.158 124.853 398.354 121.234Z" fill="url(#paint123_linear_201_284)"/>
<path d="M409.555 180.244L403.953 176.96L387.132 186.784V193.351L409.555 180.244Z" fill="#968EFF"/>
<path d="M375.934 151.123C375.934 141.859 369.656 138.03 361.914 142.558C354.173 147.085 347.908 158.25 347.908 167.514V216.296L375.934 199.905V151.123Z" fill="#968EFF"/>
<path d="M347.909 167.514C347.909 158.25 354.173 147.071 361.914 142.558C363.885 141.293 366.177 140.638 368.51 140.671C369.791 142.836 370.419 145.332 370.318 147.854V196.621L347.909 209.742V167.514Z" fill="url(#paint124_linear_201_284)"/>
<path opacity="0.5" d="M347.909 167.514C347.909 158.25 354.173 147.071 361.914 142.558C363.885 141.293 366.177 140.638 368.51 140.671C369.791 142.836 370.419 145.332 370.318 147.854V196.621L347.909 209.742V167.514Z" fill="url(#paint125_linear_201_284)"/>
<path d="M370.318 196.621L375.934 199.905L347.908 216.296V209.742L370.318 196.621Z" fill="#968EFF"/>
<path d="M336.688 171.287C336.688 163.574 331.679 160.248 325.483 163.867C319.288 167.486 314.265 176.681 314.265 184.394V235.97L336.688 222.863V171.287Z" fill="#968EFF"/>
<path d="M325.483 163.853C326.817 163.046 328.32 162.567 329.871 162.456C330.726 164.189 331.143 166.109 331.085 168.045V219.622L314.264 229.403V184.38C314.264 176.667 319.287 167.473 325.483 163.853Z" fill="url(#paint126_linear_201_284)"/>
<path opacity="0.5" d="M325.483 163.853C326.817 163.046 328.32 162.567 329.871 162.456C330.726 164.189 331.143 166.109 331.085 168.045V219.622L314.264 229.403V184.38C314.264 176.667 319.287 167.473 325.483 163.853Z" fill="url(#paint127_linear_201_284)"/>
<path d="M331.086 219.566L336.688 222.85L314.265 235.957V229.403L331.086 219.566Z" fill="#968EFF"/>
<path d="M336.688 321.964C336.688 314.25 331.679 310.925 325.483 314.544C319.288 318.163 314.265 327.358 314.265 335.071V393.257L336.688 380.15V321.964Z" fill="#968EFF"/>
<path d="M325.483 314.544C326.817 313.736 328.32 313.258 329.871 313.146C330.724 314.88 331.142 316.8 331.085 318.736V376.908L314.264 386.689V334.987C314.264 327.358 319.287 318.163 325.483 314.544Z" fill="url(#paint128_linear_201_284)"/>
<path opacity="0.5" d="M325.483 314.544C326.817 313.736 328.32 313.258 329.871 313.146C330.724 314.88 331.142 316.8 331.085 318.736V376.908L314.264 386.689V334.987C314.264 327.358 319.287 318.163 325.483 314.544Z" fill="url(#paint129_linear_201_284)"/>
<path d="M336.688 380.149V360.489L314.265 373.596V393.256L336.688 380.149Z" fill="#968EFF"/>
<path d="M336.688 360.489L331.086 357.205L314.278 367.042L314.265 373.596L336.688 360.489Z" fill="#968EFF"/>
<path d="M409.555 279.358C409.555 271.645 404.532 268.319 398.35 271.938C392.168 275.558 387.132 284.752 387.132 292.466V350.651L409.555 337.572V279.358Z" fill="#968EFF"/>
<path d="M398.354 271.897C399.69 271.094 401.192 270.615 402.742 270.5C403.596 272.233 404.013 274.153 403.956 276.089V334.275L387.135 344.056V292.354C387.135 284.739 392.158 275.544 398.354 271.897Z" fill="url(#paint130_linear_201_284)"/>
<path opacity="0.5" d="M398.354 271.897C399.69 271.094 401.192 270.615 402.742 270.5C403.596 272.233 404.013 274.153 403.956 276.089V334.275L387.135 344.056V292.354C387.135 284.739 392.158 275.544 398.354 271.897Z" fill="url(#paint131_linear_201_284)"/>
<path d="M387.132 350.651V330.99L409.555 317.883V337.544L387.132 350.651Z" fill="#968EFF"/>
<path d="M409.555 317.883L403.953 314.6L387.132 324.437V330.991L409.555 317.883Z" fill="#968EFF"/>
<path d="M375.934 357.205V350.651L347.908 367.042V373.596L375.934 357.205Z" fill="#968EFF"/>
<path d="M375.934 350.651L370.318 347.381L347.908 360.489V367.042L375.934 350.651Z" fill="#968EFF"/>
<path d="M303.058 144.193L179.737 72.1033L303.058 0L426.379 72.1033L303.058 144.193Z" fill="url(#paint132_linear_201_284)"/>
<path opacity="0.7" d="M303.058 144.193L179.737 72.1033L303.058 0L426.379 72.1033L303.058 144.193Z" fill="url(#paint133_linear_201_284)"/>
<path d="M303.063 131.085L202.165 72.1033L303.063 13.1072L403.961 72.1033L303.063 131.085Z" fill="url(#paint134_linear_201_284)"/>
<path d="M303.063 13.1072V32.7819L387.14 81.9267L403.961 72.1033L303.063 13.1072Z" fill="url(#paint135_linear_201_284)"/>
<path opacity="0.2" d="M303.063 13.1072V32.7819L387.14 81.9267L403.961 72.1033L303.063 13.1072Z" fill="black"/>
<path d="M303.059 13.1072L202.161 72.1033L218.982 81.9267L303.059 32.7819V13.1072Z" fill="url(#paint136_linear_201_284)"/>
<path opacity="0.5" d="M303.059 13.1072L202.161 72.1033L218.982 81.9267L303.059 32.7819V13.1072Z" fill="url(#paint137_linear_201_284)"/>
<path d="M319.881 29.498L347.907 45.889L308.662 68.8195L280.637 52.4425L319.881 29.498Z" fill="url(#paint138_linear_201_284)"/>
<path d="M347.907 45.8892V65.5499L308.662 88.4804V68.8197L347.907 45.8892Z" fill="#968EFF"/>
<path d="M280.631 52.4426V72.1034L308.657 88.4803V68.8196L280.631 52.4426Z" fill="#968EFF"/>
<path d="M329.084 40.4952C334.176 43.4715 334.176 48.2924 329.084 51.2688C326.23 52.7367 323.074 53.5017 319.873 53.5017C316.672 53.5017 313.516 52.7367 310.662 51.2688C305.584 48.2924 305.584 43.4715 310.662 40.4952C313.516 39.0273 316.672 38.2622 319.873 38.2622C323.074 38.2622 326.23 39.0273 329.084 40.4952Z" fill="#968EFF"/>
<path d="M324.191 43.5694C326.578 44.841 326.578 46.923 324.191 48.1946C322.84 48.8299 321.368 49.159 319.878 49.159C318.389 49.159 316.917 48.8299 315.566 48.1946C313.193 46.923 313.193 44.841 315.566 43.5694C316.917 42.9341 318.389 42.605 319.878 42.605C321.368 42.605 322.84 42.9341 324.191 43.5694V43.5694Z" fill="#968EFF"/>
<path d="M299.993 70.3005L294.39 73.5704V86.6915" stroke="url(#paint139_linear_201_284)" stroke-width="2" stroke-linecap="round" stroke-linejoin="round"/>
<path d="M291.86 65.5498L286.257 68.8196V81.9268" stroke="url(#paint140_linear_201_284)" stroke-width="2" stroke-linecap="round" stroke-linejoin="round"/>
<defs>
<linearGradient id="paint0_linear_201_284" x1="-24.1966" y1="83.7954" x2="1674.83" y2="902.816" gradientUnits="userSpaceOnUse">
<stop stop-color="#968EFF"/>
<stop offset="1" stop-color="white" stop-opacity="0"/>
</linearGradient>
<linearGradient id="paint1_linear_201_284" x1="532.873" y1="91.7639" x2="532.873" y2="285.115" gradientUnits="userSpaceOnUse">
<stop stop-color="#968EFF"/>
<stop offset="1" stop-color="#FBFBFB"/>
</linearGradient>
<linearGradient id="paint2_linear_201_284" x1="532.615" y1="234.308" x2="532.615" y2="270.667" gradientUnits="userSpaceOnUse">
<stop stop-color="#240C4B"/>
<stop offset="1" stop-color="#968EFF"/>
</linearGradient>
<linearGradient id="paint3_linear_201_284" x1="512.057" y1="220.278" x2="512.057" y2="241.644" gradientUnits="userSpaceOnUse">
<stop stop-color="#240C4B"/>
<stop offset="1" stop-color="#968EFF"/>
</linearGradient>
<linearGradient id="paint4_linear_201_284" x1="512.057" y1="248.295" x2="512.057" y2="269.647" gradientUnits="userSpaceOnUse">
<stop stop-color="#240C4B"/>
<stop offset="1" stop-color="#968EFF"/>
</linearGradient>
<linearGradient id="paint5_linear_201_284" x1="512.057" y1="192.876" x2="512.057" y2="214.228" gradientUnits="userSpaceOnUse">
<stop stop-color="#240C4B"/>
<stop offset="1" stop-color="#968EFF"/>
</linearGradient>
<linearGradient id="paint6_linear_201_284" x1="512.057" y1="165.46" x2="512.057" y2="186.812" gradientUnits="userSpaceOnUse">
<stop stop-color="#240C4B"/>
<stop offset="1" stop-color="#968EFF"/>
</linearGradient>
<linearGradient id="paint7_linear_201_284" x1="512.057" y1="138.044" x2="512.057" y2="159.41" gradientUnits="userSpaceOnUse">
<stop stop-color="#240C4B"/>
<stop offset="1" stop-color="#968EFF"/>
</linearGradient>
<linearGradient id="paint8_linear_201_284" x1="553.674" y1="195.95" x2="553.674" y2="217.316" gradientUnits="userSpaceOnUse">
<stop stop-color="#240C4B"/>
<stop offset="1" stop-color="#968EFF"/>
</linearGradient>
<linearGradient id="paint9_linear_201_284" x1="553.674" y1="223.967" x2="553.674" y2="245.319" gradientUnits="userSpaceOnUse">
<stop stop-color="#240C4B"/>
<stop offset="1" stop-color="#968EFF"/>
</linearGradient>
<linearGradient id="paint10_linear_201_284" x1="553.674" y1="168.311" x2="553.674" y2="189.663" gradientUnits="userSpaceOnUse">
<stop stop-color="#240C4B"/>
<stop offset="1" stop-color="#968EFF"/>
</linearGradient>
<linearGradient id="paint11_linear_201_284" x1="553.674" y1="140.657" x2="553.674" y2="162.023" gradientUnits="userSpaceOnUse">
<stop stop-color="#240C4B"/>
<stop offset="1" stop-color="#968EFF"/>
</linearGradient>
<linearGradient id="paint12_linear_201_284" x1="553.674" y1="113.018" x2="553.674" y2="134.369" gradientUnits="userSpaceOnUse">
<stop stop-color="#240C4B"/>
<stop offset="1" stop-color="#968EFF"/>
</linearGradient>
<linearGradient id="paint13_linear_201_284" x1="537.969" y1="122.869" x2="537.969" y2="225.099" gradientUnits="userSpaceOnUse">
<stop stop-color="#240C4B"/>
<stop offset="1" stop-color="#968EFF"/>
</linearGradient>
<linearGradient id="paint14_linear_201_284" x1="527.266" y1="129.059" x2="527.266" y2="231.29" gradientUnits="userSpaceOnUse">
<stop stop-color="#240C4B"/>
<stop offset="1" stop-color="#968EFF"/>
</linearGradient>
<linearGradient id="paint15_linear_201_284" x1="486.345" y1="220.278" x2="486.345" y2="241.644" gradientUnits="userSpaceOnUse">
<stop stop-color="#240C4B"/>
<stop offset="1" stop-color="#968EFF"/>
</linearGradient>
<linearGradient id="paint16_linear_201_284" x1="482.023" y1="220.278" x2="482.023" y2="234.895" gradientUnits="userSpaceOnUse">
<stop stop-color="#968EFF"/>
<stop offset="1" stop-color="#FBFBFB"/>
</linearGradient>
<linearGradient id="paint17_linear_201_284" x1="468.412" y1="209.854" x2="468.412" y2="231.206" gradientUnits="userSpaceOnUse">
<stop stop-color="#240C4B"/>
<stop offset="1" stop-color="#968EFF"/>
</linearGradient>
<linearGradient id="paint18_linear_201_284" x1="464.082" y1="209.854" x2="464.082" y2="224.471" gradientUnits="userSpaceOnUse">
<stop stop-color="#968EFF"/>
<stop offset="1" stop-color="#FBFBFB"/>
</linearGradient>
<linearGradient id="paint19_linear_201_284" x1="450.486" y1="199.416" x2="450.486" y2="220.781" gradientUnits="userSpaceOnUse">
<stop stop-color="#240C4B"/>
<stop offset="1" stop-color="#968EFF"/>
</linearGradient>
<linearGradient id="paint20_linear_201_284" x1="446.156" y1="199.416" x2="446.156" y2="214.032" gradientUnits="userSpaceOnUse">
<stop stop-color="#968EFF"/>
<stop offset="1" stop-color="#FBFBFB"/>
</linearGradient>
<linearGradient id="paint21_linear_201_284" x1="486.345" y1="248.295" x2="486.345" y2="269.647" gradientUnits="userSpaceOnUse">
<stop stop-color="#240C4B"/>
<stop offset="1" stop-color="#968EFF"/>
</linearGradient>
<linearGradient id="paint22_linear_201_284" x1="482.023" y1="248.295" x2="482.023" y2="262.911" gradientUnits="userSpaceOnUse">
<stop stop-color="#968EFF"/>
<stop offset="1" stop-color="#FBFBFB"/>
</linearGradient>
<linearGradient id="paint23_linear_201_284" x1="468.412" y1="237.857" x2="468.412" y2="259.223" gradientUnits="userSpaceOnUse">
<stop stop-color="#240C4B"/>
<stop offset="1" stop-color="#968EFF"/>
</linearGradient>
<linearGradient id="paint24_linear_201_284" x1="464.082" y1="237.857" x2="464.082" y2="252.473" gradientUnits="userSpaceOnUse">
<stop stop-color="#968EFF"/>
<stop offset="1" stop-color="#FBFBFB"/>
</linearGradient>
<linearGradient id="paint25_linear_201_284" x1="450.486" y1="227.419" x2="450.486" y2="248.784" gradientUnits="userSpaceOnUse">
<stop stop-color="#240C4B"/>
<stop offset="1" stop-color="#968EFF"/>
</linearGradient>
<linearGradient id="paint26_linear_201_284" x1="446.156" y1="227.419" x2="446.156" y2="242.035" gradientUnits="userSpaceOnUse">
<stop stop-color="#968EFF"/>
<stop offset="1" stop-color="#FBFBFB"/>
</linearGradient>
<linearGradient id="paint27_linear_201_284" x1="486.345" y1="192.876" x2="486.345" y2="214.228" gradientUnits="userSpaceOnUse">
<stop stop-color="#240C4B"/>
<stop offset="1" stop-color="#968EFF"/>
</linearGradient>
<linearGradient id="paint28_linear_201_284" x1="482.023" y1="192.876" x2="482.023" y2="207.493" gradientUnits="userSpaceOnUse">
<stop stop-color="#968EFF"/>
<stop offset="1" stop-color="#FBFBFB"/>
</linearGradient>
<linearGradient id="paint29_linear_201_284" x1="468.412" y1="182.326" x2="468.412" y2="203.678" gradientUnits="userSpaceOnUse">
<stop stop-color="#240C4B"/>
<stop offset="1" stop-color="#968EFF"/>
</linearGradient>
<linearGradient id="paint30_linear_201_284" x1="464.082" y1="182.326" x2="464.082" y2="196.943" gradientUnits="userSpaceOnUse">
<stop stop-color="#968EFF"/>
<stop offset="1" stop-color="#FBFBFB"/>
</linearGradient>
<linearGradient id="paint31_linear_201_284" x1="450.486" y1="171.776" x2="450.486" y2="193.128" gradientUnits="userSpaceOnUse">
<stop stop-color="#240C4B"/>
<stop offset="1" stop-color="#968EFF"/>
</linearGradient>
<linearGradient id="paint32_linear_201_284" x1="446.156" y1="171.776" x2="446.156" y2="186.393" gradientUnits="userSpaceOnUse">
<stop stop-color="#968EFF"/>
<stop offset="1" stop-color="#FBFBFB"/>
</linearGradient>
<linearGradient id="paint33_linear_201_284" x1="486.345" y1="165.46" x2="486.345" y2="186.812" gradientUnits="userSpaceOnUse">
<stop stop-color="#240C4B"/>
<stop offset="1" stop-color="#968EFF"/>
</linearGradient>
<linearGradient id="paint34_linear_201_284" x1="482.023" y1="165.46" x2="482.023" y2="180.077" gradientUnits="userSpaceOnUse">
<stop stop-color="#968EFF"/>
<stop offset="1" stop-color="#FBFBFB"/>
</linearGradient>
<linearGradient id="paint35_linear_201_284" x1="468.412" y1="154.785" x2="468.412" y2="176.15" gradientUnits="userSpaceOnUse">
<stop stop-color="#240C4B"/>
<stop offset="1" stop-color="#968EFF"/>
</linearGradient>
<linearGradient id="paint36_linear_201_284" x1="464.082" y1="154.785" x2="464.082" y2="169.415" gradientUnits="userSpaceOnUse">
<stop stop-color="#968EFF"/>
<stop offset="1" stop-color="#FBFBFB"/>
</linearGradient>
<linearGradient id="paint37_linear_201_284" x1="450.486" y1="144.123" x2="450.486" y2="165.488" gradientUnits="userSpaceOnUse">
<stop stop-color="#240C4B"/>
<stop offset="1" stop-color="#968EFF"/>
</linearGradient>
<linearGradient id="paint38_linear_201_284" x1="446.156" y1="144.123" x2="446.156" y2="158.739" gradientUnits="userSpaceOnUse">
<stop stop-color="#968EFF"/>
<stop offset="1" stop-color="#FBFBFB"/>
</linearGradient>
<linearGradient id="paint39_linear_201_284" x1="486.345" y1="138.044" x2="486.345" y2="159.41" gradientUnits="userSpaceOnUse">
<stop stop-color="#240C4B"/>
<stop offset="1" stop-color="#968EFF"/>
</linearGradient>
<linearGradient id="paint40_linear_201_284" x1="482.023" y1="138.044" x2="482.023" y2="152.661" gradientUnits="userSpaceOnUse">
<stop stop-color="#968EFF"/>
<stop offset="1" stop-color="#FBFBFB"/>
</linearGradient>
<linearGradient id="paint41_linear_201_284" x1="468.412" y1="127.257" x2="468.412" y2="148.622" gradientUnits="userSpaceOnUse">
<stop stop-color="#240C4B"/>
<stop offset="1" stop-color="#968EFF"/>
</linearGradient>
<linearGradient id="paint42_linear_201_284" x1="464.082" y1="127.257" x2="464.082" y2="141.873" gradientUnits="userSpaceOnUse">
<stop stop-color="#968EFF"/>
<stop offset="1" stop-color="#FBFBFB"/>
</linearGradient>
<linearGradient id="paint43_linear_201_284" x1="450.486" y1="116.483" x2="450.486" y2="137.835" gradientUnits="userSpaceOnUse">
<stop stop-color="#240C4B"/>
<stop offset="1" stop-color="#968EFF"/>
</linearGradient>
<linearGradient id="paint44_linear_201_284" x1="446.156" y1="116.483" x2="446.156" y2="131.099" gradientUnits="userSpaceOnUse">
<stop stop-color="#968EFF"/>
<stop offset="1" stop-color="#FBFBFB"/>
</linearGradient>
<linearGradient id="paint45_linear_201_284" x1="476.818" y1="62.2661" x2="476.818" y2="98.3178" gradientUnits="userSpaceOnUse">
<stop stop-color="#968EFF"/>
<stop offset="1" stop-color="#FBFBFB"/>
</linearGradient>
<linearGradient id="paint46_linear_201_284" x1="141.022" y1="95.0337" x2="141.022" y2="285.115" gradientUnits="userSpaceOnUse">
<stop stop-color="#968EFF"/>
<stop offset="1" stop-color="#FBFBFB"/>
</linearGradient>
<linearGradient id="paint47_linear_201_284" x1="76.8264" y1="234.308" x2="76.8264" y2="270.667" gradientUnits="userSpaceOnUse">
<stop stop-color="#240C4B"/>
<stop offset="1" stop-color="#968EFF"/>
</linearGradient>
<linearGradient id="paint48_linear_201_284" x1="97.3809" y1="220.278" x2="97.3809" y2="241.644" gradientUnits="userSpaceOnUse">
<stop stop-color="#240C4B"/>
<stop offset="1" stop-color="#968EFF"/>
</linearGradient>
<linearGradient id="paint49_linear_201_284" x1="97.3809" y1="233.218" x2="97.3809" y2="241.644" gradientUnits="userSpaceOnUse">
<stop stop-color="#968EFF"/>
<stop offset="1" stop-color="#FBFBFB"/>
</linearGradient>
<linearGradient id="paint50_linear_201_284" x1="97.3809" y1="248.295" x2="97.3809" y2="269.647" gradientUnits="userSpaceOnUse">
<stop stop-color="#240C4B"/>
<stop offset="1" stop-color="#968EFF"/>
</linearGradient>
<linearGradient id="paint51_linear_201_284" x1="97.3809" y1="261.221" x2="97.3809" y2="269.647" gradientUnits="userSpaceOnUse">
<stop stop-color="#968EFF"/>
<stop offset="1" stop-color="#FBFBFB"/>
</linearGradient>
<linearGradient id="paint52_linear_201_284" x1="97.3809" y1="192.876" x2="97.3809" y2="214.228" gradientUnits="userSpaceOnUse">
<stop stop-color="#240C4B"/>
<stop offset="1" stop-color="#968EFF"/>
</linearGradient>
<linearGradient id="paint53_linear_201_284" x1="97.3809" y1="205.802" x2="97.3809" y2="214.228" gradientUnits="userSpaceOnUse">
<stop stop-color="#968EFF"/>
<stop offset="1" stop-color="#FBFBFB"/>
</linearGradient>
<linearGradient id="paint54_linear_201_284" x1="97.3809" y1="165.46" x2="97.3809" y2="186.812" gradientUnits="userSpaceOnUse">
<stop stop-color="#240C4B"/>
<stop offset="1" stop-color="#968EFF"/>
</linearGradient>
<linearGradient id="paint55_linear_201_284" x1="97.3809" y1="178.386" x2="97.3809" y2="186.812" gradientUnits="userSpaceOnUse">
<stop stop-color="#968EFF"/>
<stop offset="1" stop-color="#FBFBFB"/>
</linearGradient>
<linearGradient id="paint56_linear_201_284" x1="97.3809" y1="138.044" x2="97.3809" y2="159.41" gradientUnits="userSpaceOnUse">
<stop stop-color="#240C4B"/>
<stop offset="1" stop-color="#968EFF"/>
</linearGradient>
<linearGradient id="paint57_linear_201_284" x1="97.3809" y1="150.97" x2="97.3809" y2="159.41" gradientUnits="userSpaceOnUse">
<stop stop-color="#968EFF"/>
<stop offset="1" stop-color="#FBFBFB"/>
</linearGradient>
<linearGradient id="paint58_linear_201_284" x1="55.7589" y1="195.95" x2="55.7589" y2="217.316" gradientUnits="userSpaceOnUse">
<stop stop-color="#240C4B"/>
<stop offset="1" stop-color="#968EFF"/>
</linearGradient>
<linearGradient id="paint59_linear_201_284" x1="55.7589" y1="208.89" x2="55.7589" y2="217.316" gradientUnits="userSpaceOnUse">
<stop stop-color="#968EFF"/>
<stop offset="1" stop-color="#FBFBFB"/>
</linearGradient>
<linearGradient id="paint60_linear_201_284" x1="55.7589" y1="223.967" x2="55.7589" y2="245.319" gradientUnits="userSpaceOnUse">
<stop stop-color="#240C4B"/>
<stop offset="1" stop-color="#968EFF"/>
</linearGradient>
<linearGradient id="paint61_linear_201_284" x1="55.7589" y1="236.893" x2="55.7589" y2="245.319" gradientUnits="userSpaceOnUse">
<stop stop-color="#968EFF"/>
<stop offset="1" stop-color="#FBFBFB"/>
</linearGradient>
<linearGradient id="paint62_linear_201_284" x1="55.7589" y1="168.311" x2="55.7589" y2="189.663" gradientUnits="userSpaceOnUse">
<stop stop-color="#240C4B"/>
<stop offset="1" stop-color="#968EFF"/>
</linearGradient>
<linearGradient id="paint63_linear_201_284" x1="55.7589" y1="181.236" x2="55.7589" y2="189.662" gradientUnits="userSpaceOnUse">
<stop stop-color="#968EFF"/>
<stop offset="1" stop-color="#FBFBFB"/>
</linearGradient>
<linearGradient id="paint64_linear_201_284" x1="55.7589" y1="140.657" x2="55.7589" y2="162.023" gradientUnits="userSpaceOnUse">
<stop stop-color="#240C4B"/>
<stop offset="1" stop-color="#968EFF"/>
</linearGradient>
<linearGradient id="paint65_linear_201_284" x1="55.7589" y1="153.597" x2="55.7589" y2="162.023" gradientUnits="userSpaceOnUse">
<stop stop-color="#968EFF"/>
<stop offset="1" stop-color="#FBFBFB"/>
</linearGradient>
<linearGradient id="paint66_linear_201_284" x1="55.7589" y1="113.018" x2="55.7589" y2="134.369" gradientUnits="userSpaceOnUse">
<stop stop-color="#240C4B"/>
<stop offset="1" stop-color="#968EFF"/>
</linearGradient>
<linearGradient id="paint67_linear_201_284" x1="55.7589" y1="125.943" x2="55.7589" y2="134.369" gradientUnits="userSpaceOnUse">
<stop stop-color="#968EFF"/>
<stop offset="1" stop-color="#FBFBFB"/>
</linearGradient>
<linearGradient id="paint68_linear_201_284" x1="71.4734" y1="122.869" x2="71.4734" y2="225.099" gradientUnits="userSpaceOnUse">
<stop stop-color="#240C4B"/>
<stop offset="1" stop-color="#968EFF"/>
</linearGradient>
<linearGradient id="paint69_linear_201_284" x1="71.4734" y1="219.566" x2="71.4734" y2="225.099" gradientUnits="userSpaceOnUse">
<stop stop-color="#968EFF"/>
<stop offset="1" stop-color="#FBFBFB"/>
</linearGradient>
<linearGradient id="paint70_linear_201_284" x1="82.1678" y1="129.059" x2="82.1678" y2="231.29" gradientUnits="userSpaceOnUse">
<stop stop-color="#240C4B"/>
<stop offset="1" stop-color="#968EFF"/>
</linearGradient>
<linearGradient id="paint71_linear_201_284" x1="82.1678" y1="225.742" x2="82.1678" y2="231.29" gradientUnits="userSpaceOnUse">
<stop stop-color="#968EFF"/>
<stop offset="1" stop-color="#FBFBFB"/>
</linearGradient>
<linearGradient id="paint72_linear_201_284" x1="123.092" y1="220.278" x2="123.092" y2="241.644" gradientUnits="userSpaceOnUse">
<stop stop-color="#240C4B"/>
<stop offset="1" stop-color="#968EFF"/>
</linearGradient>
<linearGradient id="paint73_linear_201_284" x1="141.028" y1="209.854" x2="141.028" y2="231.206" gradientUnits="userSpaceOnUse">
<stop stop-color="#240C4B"/>
<stop offset="1" stop-color="#968EFF"/>
</linearGradient>
<linearGradient id="paint74_linear_201_284" x1="158.955" y1="199.416" x2="158.955" y2="220.781" gradientUnits="userSpaceOnUse">
<stop stop-color="#240C4B"/>
<stop offset="1" stop-color="#968EFF"/>
</linearGradient>
<linearGradient id="paint75_linear_201_284" x1="123.092" y1="248.295" x2="123.092" y2="269.647" gradientUnits="userSpaceOnUse">
<stop stop-color="#240C4B"/>
<stop offset="1" stop-color="#968EFF"/>
</linearGradient>
<linearGradient id="paint76_linear_201_284" x1="141.028" y1="237.857" x2="141.028" y2="259.223" gradientUnits="userSpaceOnUse">
<stop stop-color="#240C4B"/>
<stop offset="1" stop-color="#968EFF"/>
</linearGradient>
<linearGradient id="paint77_linear_201_284" x1="158.955" y1="227.419" x2="158.955" y2="248.784" gradientUnits="userSpaceOnUse">
<stop stop-color="#240C4B"/>
<stop offset="1" stop-color="#968EFF"/>
</linearGradient>
<linearGradient id="paint78_linear_201_284" x1="123.092" y1="192.876" x2="123.092" y2="214.228" gradientUnits="userSpaceOnUse">
<stop stop-color="#240C4B"/>
<stop offset="1" stop-color="#968EFF"/>
</linearGradient>
<linearGradient id="paint79_linear_201_284" x1="141.028" y1="182.326" x2="141.028" y2="203.678" gradientUnits="userSpaceOnUse">
<stop stop-color="#240C4B"/>
<stop offset="1" stop-color="#968EFF"/>
</linearGradient>
<linearGradient id="paint80_linear_201_284" x1="158.955" y1="171.776" x2="158.955" y2="193.128" gradientUnits="userSpaceOnUse">
<stop stop-color="#240C4B"/>
<stop offset="1" stop-color="#968EFF"/>
</linearGradient>
<linearGradient id="paint81_linear_201_284" x1="123.092" y1="165.46" x2="123.092" y2="186.812" gradientUnits="userSpaceOnUse">
<stop stop-color="#240C4B"/>
<stop offset="1" stop-color="#968EFF"/>
</linearGradient>
<linearGradient id="paint82_linear_201_284" x1="141.028" y1="154.785" x2="141.028" y2="176.15" gradientUnits="userSpaceOnUse">
<stop stop-color="#240C4B"/>
<stop offset="1" stop-color="#968EFF"/>
</linearGradient>
<linearGradient id="paint83_linear_201_284" x1="158.955" y1="144.123" x2="158.955" y2="165.488" gradientUnits="userSpaceOnUse">
<stop stop-color="#240C4B"/>
<stop offset="1" stop-color="#968EFF"/>
</linearGradient>
<linearGradient id="paint84_linear_201_284" x1="123.092" y1="138.044" x2="123.092" y2="159.41" gradientUnits="userSpaceOnUse">
<stop stop-color="#240C4B"/>
<stop offset="1" stop-color="#968EFF"/>
</linearGradient>
<linearGradient id="paint85_linear_201_284" x1="141.028" y1="127.257" x2="141.028" y2="148.622" gradientUnits="userSpaceOnUse">
<stop stop-color="#240C4B"/>
<stop offset="1" stop-color="#968EFF"/>
</linearGradient>
<linearGradient id="paint86_linear_201_284" x1="158.955" y1="116.483" x2="158.955" y2="137.835" gradientUnits="userSpaceOnUse">
<stop stop-color="#240C4B"/>
<stop offset="1" stop-color="#968EFF"/>
</linearGradient>
<linearGradient id="paint87_linear_201_284" x1="79.3619" y1="62.2661" x2="79.3619" y2="95.034" gradientUnits="userSpaceOnUse">
<stop stop-color="#968EFF"/>
<stop offset="1" stop-color="#FBFBFB"/>
</linearGradient>
<linearGradient id="paint88_linear_201_284" x1="212.599" y1="416.303" x2="212.599" y2="431.247" gradientUnits="userSpaceOnUse">
<stop stop-color="#240C4B"/>
<stop offset="1" stop-color="#968EFF"/>
</linearGradient>
<linearGradient id="paint89_linear_201_284" x1="417.166" y1="406.674" x2="417.166" y2="421.62" gradientUnits="userSpaceOnUse">
<stop stop-color="#240C4B"/>
<stop offset="1" stop-color="#968EFF"/>
</linearGradient>
<linearGradient id="paint90_linear_201_284" x1="303.057" y1="250.088" x2="303.057" y2="418.419" gradientUnits="userSpaceOnUse">
<stop stop-color="#5A50D8"/>
<stop offset="1" stop-color="#5A50D8"/>
</linearGradient>
<linearGradient id="paint91_linear_201_284" x1="303.057" y1="250.088" x2="303.057" y2="418.419" gradientUnits="userSpaceOnUse">
<stop stop-color="#5A50D8"/>
<stop offset="1" stop-color="#5A50D8"/>
</linearGradient>
<linearGradient id="paint92_linear_201_284" x1="303.057" y1="250.088" x2="303.057" y2="418.419" gradientUnits="userSpaceOnUse">
<stop stop-color="#5A50D8"/>
<stop offset="1" stop-color="#5A50D8"/>
</linearGradient>
<linearGradient id="paint93_linear_201_284" x1="303.103" y1="250.088" x2="303.103" y2="411.893" gradientUnits="userSpaceOnUse">
<stop stop-color="#5A50D8"/>
<stop offset="1" stop-color="#5A50D8"/>
</linearGradient>
<linearGradient id="paint94_linear_201_284" x1="361.914" y1="95.0337" x2="361.914" y2="399.81" gradientUnits="userSpaceOnUse">
<stop stop-color="#968EFF"/>
<stop offset="1" stop-color="#FBFBFB"/>
</linearGradient>
<linearGradient id="paint95_linear_201_284" x1="367.519" y1="226.119" x2="367.519" y2="308.046" gradientUnits="userSpaceOnUse">
<stop stop-color="#5A50D8"/>
<stop offset="1" stop-color="#5A50D8"/>
</linearGradient>
<linearGradient id="paint96_linear_201_284" x1="367.519" y1="226.119" x2="367.519" y2="308.046" gradientUnits="userSpaceOnUse">
<stop stop-color="#240C4B"/>
<stop offset="1" stop-color="#968EFF"/>
</linearGradient>
<linearGradient id="paint97_linear_201_284" x1="367.519" y1="232.673" x2="367.519" y2="314.6" gradientUnits="userSpaceOnUse">
<stop stop-color="#5A50D8"/>
<stop offset="1" stop-color="#5A50D8"/>
</linearGradient>
<linearGradient id="paint98_linear_201_284" x1="289.046" y1="288.385" x2="289.046" y2="308.046" gradientUnits="userSpaceOnUse">
<stop stop-color="#5A50D8"/>
<stop offset="1" stop-color="#5A50D8"/>
</linearGradient>
<linearGradient id="paint99_linear_201_284" x1="289.046" y1="288.385" x2="289.046" y2="308.046" gradientUnits="userSpaceOnUse">
<stop stop-color="#240C4B"/>
<stop offset="1" stop-color="#968EFF"/>
</linearGradient>
<linearGradient id="paint100_linear_201_284" x1="289.046" y1="291.669" x2="289.046" y2="314.599" gradientUnits="userSpaceOnUse">
<stop stop-color="#5A50D8"/>
<stop offset="1" stop-color="#5A50D8"/>
</linearGradient>
<linearGradient id="paint101_linear_201_284" x1="325.476" y1="235.957" x2="325.476" y2="281.832" gradientUnits="userSpaceOnUse">
<stop stop-color="#5A50D8"/>
<stop offset="1" stop-color="#5A50D8"/>
</linearGradient>
<linearGradient id="paint102_linear_201_284" x1="325.476" y1="235.957" x2="325.476" y2="281.832" gradientUnits="userSpaceOnUse">
<stop stop-color="#240C4B"/>
<stop offset="1" stop-color="#968EFF"/>
</linearGradient>
<linearGradient id="paint103_linear_201_284" x1="361.921" y1="213.012" x2="361.921" y2="262.171" gradientUnits="userSpaceOnUse">
<stop stop-color="#5A50D8"/>
<stop offset="1" stop-color="#5A50D8"/>
</linearGradient>
<linearGradient id="paint104_linear_201_284" x1="361.921" y1="213.012" x2="361.921" y2="262.171" gradientUnits="userSpaceOnUse">
<stop stop-color="#240C4B"/>
<stop offset="1" stop-color="#968EFF"/>
</linearGradient>
<linearGradient id="paint105_linear_201_284" x1="252.62" y1="303.141" x2="252.62" y2="352.286" gradientUnits="userSpaceOnUse">
<stop stop-color="#5A50D8"/>
<stop offset="1" stop-color="#5A50D8"/>
</linearGradient>
<linearGradient id="paint106_linear_201_284" x1="252.62" y1="248.519" x2="252.62" y2="297.678" gradientUnits="userSpaceOnUse">
<stop stop-color="#5A50D8"/>
<stop offset="1" stop-color="#5A50D8"/>
</linearGradient>
<linearGradient id="paint107_linear_201_284" x1="252.62" y1="193.896" x2="252.62" y2="243.055" gradientUnits="userSpaceOnUse">
<stop stop-color="#5A50D8"/>
<stop offset="1" stop-color="#5A50D8"/>
</linearGradient>
<linearGradient id="paint108_linear_201_284" x1="252.62" y1="139.274" x2="252.62" y2="188.433" gradientUnits="userSpaceOnUse">
<stop stop-color="#5A50D8"/>
<stop offset="1" stop-color="#5A50D8"/>
</linearGradient>
<linearGradient id="paint109_linear_201_284" x1="212.754" y1="279.847" x2="212.754" y2="328.992" gradientUnits="userSpaceOnUse">
<stop stop-color="#5A50D8"/>
<stop offset="1" stop-color="#5A50D8"/>
</linearGradient>
<linearGradient id="paint110_linear_201_284" x1="212.754" y1="225.225" x2="212.754" y2="274.384" gradientUnits="userSpaceOnUse">
<stop stop-color="#5A50D8"/>
<stop offset="1" stop-color="#5A50D8"/>
</linearGradient>
<linearGradient id="paint111_linear_201_284" x1="212.754" y1="170.603" x2="212.754" y2="219.761" gradientUnits="userSpaceOnUse">
<stop stop-color="#5A50D8"/>
<stop offset="1" stop-color="#5A50D8"/>
</linearGradient>
<linearGradient id="paint112_linear_201_284" x1="212.754" y1="115.994" x2="212.754" y2="165.139" gradientUnits="userSpaceOnUse">
<stop stop-color="#5A50D8"/>
<stop offset="1" stop-color="#5A50D8"/>
</linearGradient>
<linearGradient id="paint113_linear_201_284" x1="398.344" y1="193.352" x2="398.344" y2="239.227" gradientUnits="userSpaceOnUse">
<stop stop-color="#5A50D8"/>
<stop offset="1" stop-color="#5A50D8"/>
</linearGradient>
<linearGradient id="paint114_linear_201_284" x1="398.344" y1="193.352" x2="398.344" y2="239.227" gradientUnits="userSpaceOnUse">
<stop stop-color="#240C4B"/>
<stop offset="1" stop-color="#968EFF"/>
</linearGradient>
<linearGradient id="paint115_linear_201_284" x1="359.119" y1="291.36" x2="359.119" y2="367.042" gradientUnits="userSpaceOnUse">
<stop stop-color="#968EFF"/>
<stop offset="1" stop-color="#FBFBFB"/>
</linearGradient>
<linearGradient id="paint116_linear_201_284" x1="359.119" y1="291.36" x2="359.119" y2="367.042" gradientUnits="userSpaceOnUse">
<stop stop-color="#5A50D8"/>
<stop offset="1" stop-color="#5A50D8"/>
</linearGradient>
<linearGradient id="paint117_linear_201_284" x1="359.119" y1="291.36" x2="359.119" y2="367.042" gradientUnits="userSpaceOnUse">
<stop stop-color="#240C4B"/>
<stop offset="1" stop-color="#968EFF"/>
</linearGradient>
<linearGradient id="paint118_linear_201_284" x1="359.091" y1="294.087" x2="359.091" y2="356.297" gradientUnits="userSpaceOnUse">
<stop stop-color="#968EFF"/>
<stop offset="1" stop-color="#FBFBFB"/>
</linearGradient>
<linearGradient id="paint119_linear_201_284" x1="364.719" y1="72.1035" x2="364.719" y2="163.854" gradientUnits="userSpaceOnUse">
<stop stop-color="#5A50D8"/>
<stop offset="1" stop-color="#5A50D8"/>
</linearGradient>
<linearGradient id="paint120_linear_201_284" x1="364.719" y1="72.1035" x2="364.719" y2="163.854" gradientUnits="userSpaceOnUse">
<stop stop-color="#240C4B"/>
<stop offset="1" stop-color="#968EFF"/>
</linearGradient>
<linearGradient id="paint121_linear_201_284" x1="241.398" y1="72.1035" x2="241.398" y2="163.854" gradientUnits="userSpaceOnUse">
<stop stop-color="#5A50D8"/>
<stop offset="1" stop-color="#5A50D8"/>
</linearGradient>
<linearGradient id="paint122_linear_201_284" x1="395.548" y1="119.837" x2="395.548" y2="186.784" gradientUnits="userSpaceOnUse">
<stop stop-color="#5A50D8"/>
<stop offset="1" stop-color="#5A50D8"/>
</linearGradient>
<linearGradient id="paint123_linear_201_284" x1="395.548" y1="119.837" x2="395.548" y2="186.784" gradientUnits="userSpaceOnUse">
<stop stop-color="#240C4B"/>
<stop offset="1" stop-color="#968EFF"/>
</linearGradient>
<linearGradient id="paint124_linear_201_284" x1="359.119" y1="140.67" x2="359.119" y2="209.742" gradientUnits="userSpaceOnUse">
<stop stop-color="#5A50D8"/>
<stop offset="1" stop-color="#5A50D8"/>
</linearGradient>
<linearGradient id="paint125_linear_201_284" x1="359.119" y1="140.67" x2="359.119" y2="209.742" gradientUnits="userSpaceOnUse">
<stop stop-color="#240C4B"/>
<stop offset="1" stop-color="#968EFF"/>
</linearGradient>
<linearGradient id="paint126_linear_201_284" x1="322.677" y1="162.456" x2="322.677" y2="229.403" gradientUnits="userSpaceOnUse">
<stop stop-color="#5A50D8"/>
<stop offset="1" stop-color="#5A50D8"/>
</linearGradient>
<linearGradient id="paint127_linear_201_284" x1="322.677" y1="162.456" x2="322.677" y2="229.403" gradientUnits="userSpaceOnUse">
<stop stop-color="#240C4B"/>
<stop offset="1" stop-color="#968EFF"/>
</linearGradient>
<linearGradient id="paint128_linear_201_284" x1="322.677" y1="313.146" x2="322.677" y2="386.689" gradientUnits="userSpaceOnUse">
<stop stop-color="#5A50D8"/>
<stop offset="1" stop-color="#5A50D8"/>
</linearGradient>
<linearGradient id="paint129_linear_201_284" x1="322.677" y1="313.146" x2="322.677" y2="386.689" gradientUnits="userSpaceOnUse">
<stop stop-color="#240C4B"/>
<stop offset="1" stop-color="#968EFF"/>
</linearGradient>
<linearGradient id="paint130_linear_201_284" x1="395.548" y1="270.5" x2="395.548" y2="344.056" gradientUnits="userSpaceOnUse">
<stop stop-color="#5A50D8"/>
<stop offset="1" stop-color="#5A50D8"/>
</linearGradient>
<linearGradient id="paint131_linear_201_284" x1="395.548" y1="270.5" x2="395.548" y2="344.056" gradientUnits="userSpaceOnUse">
<stop stop-color="#240C4B"/>
<stop offset="1" stop-color="#968EFF"/>
</linearGradient>
<linearGradient id="paint132_linear_201_284" x1="303.058" y1="0" x2="303.058" y2="144.193" gradientUnits="userSpaceOnUse">
<stop stop-color="#5A50D8"/>
<stop offset="1" stop-color="#5A50D8"/>
</linearGradient>
<linearGradient id="paint133_linear_201_284" x1="303.058" y1="0" x2="303.058" y2="144.193" gradientUnits="userSpaceOnUse">
<stop stop-color="#240C4B"/>
<stop offset="1" stop-color="#968EFF"/>
</linearGradient>
<linearGradient id="paint134_linear_201_284" x1="303.063" y1="13.1072" x2="303.063" y2="131.085" gradientUnits="userSpaceOnUse">
<stop stop-color="#5A50D8"/>
<stop offset="1" stop-color="#5A50D8"/>
</linearGradient>
<linearGradient id="paint135_linear_201_284" x1="353.512" y1="13.1072" x2="353.512" y2="81.9267" gradientUnits="userSpaceOnUse">
<stop stop-color="#5A50D8"/>
<stop offset="1" stop-color="#5A50D8"/>
</linearGradient>
<linearGradient id="paint136_linear_201_284" x1="252.61" y1="13.1072" x2="252.61" y2="81.9267" gradientUnits="userSpaceOnUse">
<stop stop-color="#5A50D8"/>
<stop offset="1" stop-color="#5A50D8"/>
</linearGradient>
<linearGradient id="paint137_linear_201_284" x1="252.61" y1="13.1072" x2="252.61" y2="81.9267" gradientUnits="userSpaceOnUse">
<stop stop-color="#240C4B"/>
<stop offset="1" stop-color="#968EFF"/>
</linearGradient>
<linearGradient id="paint138_linear_201_284" x1="314.272" y1="29.498" x2="314.272" y2="68.8195" gradientUnits="userSpaceOnUse">
<stop stop-color="#968EFF"/>
<stop offset="1" stop-color="#FBFBFB"/>
</linearGradient>
<linearGradient id="paint139_linear_201_284" x1="297.191" y1="70.3005" x2="297.191" y2="86.6915" gradientUnits="userSpaceOnUse">
<stop stop-color="#968EFF"/>
<stop offset="1" stop-color="#FBFBFB"/>
</linearGradient>
<linearGradient id="paint140_linear_201_284" x1="289.059" y1="65.5498" x2="289.059" y2="81.9268" gradientUnits="userSpaceOnUse">
<stop stop-color="#968EFF"/>
<stop offset="1" stop-color="#FBFBFB"/>
</linearGradient>
</defs>
</svg>
