<svg width="697" height="729" viewBox="0 0 697 729" fill="none" xmlns="http://www.w3.org/2000/svg">
<path d="M694.212 329.551C686.697 251.635 647.565 173.908 613.801 130.975C470.724 -50.9731 183.554 -50.6248 46.788 177.913C8.20752 242.364 -16.0087 385.673 12.6474 491.664C49.3127 627.327 193.797 680.156 354.475 678.981C504.603 677.82 622.652 612.542 666.848 522.366C694.503 465.881 701.728 407.466 694.212 329.551Z" fill="#240C4B" fill-opacity="0.54"/>
<path d="M46.788 177.913C8.20752 242.363 -16.0087 385.673 12.6474 491.664C18.6814 514.42 28.4007 536.035 41.4196 555.651L201.023 463.559L336.904 385.006L656.285 200.634C642.994 173.067 627.933 148.952 613.801 130.989C470.724 -50.9733 183.554 -50.625 46.788 177.913Z" fill="#240C4B"/>
<g opacity="0.2">
<path opacity="0.2" d="M47.0314 287.372C48.6608 286.31 50.017 284.879 50.9901 283.195C51.9632 281.511 52.5257 279.622 52.632 277.68V266.362C52.632 262.793 50.1219 261.342 47.0314 263.127L10.0759 284.47C8.3783 293.176 6.86932 302.186 5.56348 311.312L47.0314 287.372Z" fill="black"/>
<path opacity="0.2" d="M33.8525 203.696L47.0271 196.079C48.6565 195.017 50.0127 193.586 50.9858 191.902C51.9589 190.218 52.5214 188.328 52.6277 186.386V175.069C52.7139 174.34 52.5855 173.601 52.2582 172.944C51.9309 172.287 51.4189 171.74 50.785 171.369C49.4405 173.526 48.1056 175.707 46.7804 177.913C41.8828 186.2 37.5633 194.814 33.8525 203.696Z" fill="white"/>
<path opacity="0.2" d="M103.295 104.147L114.467 97.6904C116.092 96.6315 117.444 95.2048 118.414 93.526C119.385 91.8471 119.946 89.9633 120.053 88.0271C114.327 93.1441 108.741 98.5174 103.295 104.147Z" fill="white"/>
<path opacity="0.2" d="M52.6264 396.758V385.441C52.6264 381.872 50.1163 380.421 47.0258 382.205L0.595703 409.048C0.905237 416.825 1.42758 424.582 2.16272 432.321L47.0258 406.422C48.6514 405.363 50.0053 403.936 50.9782 402.258C51.951 400.579 52.5156 398.695 52.6264 396.758Z" fill="white"/>
<path opacity="0.2" d="M187.448 227.738V216.421C187.448 212.852 184.938 211.401 181.848 213.185L130.049 243.089C128.421 244.152 127.067 245.583 126.097 247.267C125.126 248.951 124.566 250.841 124.463 252.781V264.099C124.463 267.668 126.959 269.119 130.049 267.334L181.848 237.431C183.477 236.369 184.833 234.938 185.806 233.254C186.779 231.57 187.342 229.68 187.448 227.738Z" fill="white"/>
<path opacity="0.2" d="M13.9619 496.235C15.0646 499.964 16.2254 503.649 17.4877 507.262V500.181C17.4877 497.468 16.0223 495.988 13.9619 496.235Z" fill="white"/>
<path opacity="0.2" d="M14.3244 363.662C15.9519 362.6 17.306 361.168 18.2765 359.484C19.2471 357.8 19.8069 355.911 19.9105 353.97V342.653C19.9105 339.083 17.4149 337.632 14.3244 339.417L1.73023 346.715C1.07248 355.015 0.622683 363.358 0.380859 371.744L14.3244 363.662Z" fill="white"/>
<path opacity="0.2" d="M197.403 169.004L249.187 139.1C250.817 138.038 252.173 136.607 253.146 134.923C254.119 133.239 254.682 131.35 254.788 129.408V118.076C254.788 114.521 252.278 113.07 249.187 114.855L197.403 144.759C195.774 145.821 194.418 147.252 193.445 148.936C192.472 150.62 191.909 152.509 191.803 154.451V165.768C191.803 169.338 194.313 170.789 197.403 169.004Z" fill="white"/>
<path opacity="0.2" d="M232.065 357.278L283.863 327.374C285.49 326.314 286.843 324.885 287.814 323.204C288.784 321.522 289.345 319.635 289.449 317.697V306.365C289.449 302.795 286.954 301.359 283.863 303.144L232.065 333.048C230.438 334.108 229.085 335.537 228.114 337.218C227.144 338.9 226.583 340.787 226.479 342.725V354.057C226.479 357.626 228.974 359.063 232.065 357.278Z" fill="white"/>
<path opacity="0.2" d="M97.3026 137.272L149.087 107.31C150.716 106.248 152.072 104.817 153.045 103.133C154.019 101.449 154.581 99.5598 154.687 97.6178V86.3005C154.687 82.7312 152.177 81.2802 149.087 83.0649L97.3026 113.027C95.6705 114.087 94.3115 115.517 93.3358 117.201C92.3602 118.885 91.7955 120.776 91.6875 122.719V134.036C91.6875 137.606 94.2121 139.057 97.3026 137.272Z" fill="white"/>
<path opacity="0.2" d="M191.803 225.301C191.803 228.87 194.313 230.321 197.403 228.536L249.187 198.632C250.817 197.57 252.173 196.14 253.146 194.456C254.119 192.772 254.682 190.882 254.788 188.94V177.623C254.788 174.053 252.278 172.602 249.187 174.387L197.403 204.291C195.774 205.353 194.418 206.784 193.445 208.468C192.472 210.152 191.909 212.041 191.803 213.983V225.301Z" fill="white"/>
<path opacity="0.2" d="M114.423 371.149L62.668 401.053C61.0386 402.115 59.6824 403.546 58.7093 405.23C57.7362 406.914 57.1737 408.803 57.0674 410.745V422.063C57.0674 425.632 59.5775 427.083 62.668 425.298L114.467 395.394C116.094 394.332 117.448 392.9 118.419 391.216C119.389 389.532 119.949 387.643 120.053 385.702V374.385C120.009 370.815 117.514 369.365 114.423 371.149Z" fill="white"/>
<path opacity="0.2" d="M321.807 0.912598C306.266 2.06231 290.824 4.29737 275.595 7.60144L264.785 13.8405C263.156 14.9024 261.8 16.3333 260.826 18.0173C259.853 19.7012 259.291 21.5908 259.185 23.5328V34.8646C259.185 38.4339 261.695 39.8704 264.785 38.0857L316.584 8.18181C319.168 6.4922 321.03 3.90068 321.807 0.912598Z" fill="white"/>
<path opacity="0.2" d="M154.687 335.833V324.516C154.687 320.947 152.177 319.496 149.087 321.28L97.3026 351.184C95.6705 352.245 94.3115 353.675 93.3358 355.359C92.3602 357.043 91.7955 358.933 91.6875 360.877V372.194C91.6875 375.763 94.1976 377.214 97.2881 375.43L149.072 345.526C150.704 344.465 152.063 343.035 153.039 341.351C154.015 339.667 154.579 337.777 154.687 335.833Z" fill="white"/>
<path opacity="0.2" d="M222.068 416.07V404.753C222.068 401.184 219.573 399.733 216.482 401.517L164.684 431.421C163.054 432.483 161.698 433.914 160.725 435.598C159.752 437.282 159.189 439.172 159.083 441.114V452.431C159.083 456 161.593 457.451 164.684 455.666L216.468 425.763C218.098 424.702 219.455 423.271 220.428 421.587C221.401 419.903 221.963 418.013 222.068 416.07Z" fill="white"/>
<path opacity="0.2" d="M399.553 290.637L451.352 260.733C452.981 259.671 454.337 258.24 455.31 256.556C456.283 254.872 456.846 252.982 456.952 251.04V239.723C456.952 236.154 454.442 234.703 451.352 236.487L399.553 266.391C397.925 267.454 396.571 268.885 395.601 270.569C394.63 272.253 394.07 274.143 393.967 276.084V287.401C393.967 290.97 396.462 292.421 399.553 290.637Z" fill="white"/>
<path opacity="0.2" d="M434.223 300.285L486.021 270.381C487.649 269.319 489.003 267.887 489.973 266.203C490.944 264.519 491.504 262.63 491.607 260.689V249.372C491.607 245.802 489.112 244.351 486.021 246.136L434.223 276.04C432.593 277.102 431.237 278.533 430.264 280.217C429.291 281.901 428.728 283.79 428.622 285.732V297.05C428.622 300.633 431.205 302.084 434.223 300.285Z" fill="white"/>
<path opacity="0.2" d="M393.967 130.815V142.133C393.967 145.702 396.462 147.153 399.553 145.368L451.352 115.464C452.981 114.403 454.337 112.972 455.31 111.288C456.283 109.604 456.846 107.714 456.952 105.772V94.4548C456.952 90.8855 454.442 89.4345 451.352 91.2192L399.553 121.123C397.925 122.186 396.571 123.617 395.601 125.301C394.63 126.985 394.07 128.874 393.967 130.815Z" fill="white"/>
<path opacity="0.2" d="M429.087 23.1555C427.458 24.2174 426.101 25.6483 425.128 27.3323C424.155 29.0163 423.593 30.9058 423.486 32.8478V44.1797C423.486 47.7345 425.996 49.1854 429.087 47.4008L470.221 23.5908C461.622 20.1859 452.882 17.139 444.003 14.4499L429.087 23.1555Z" fill="white"/>
<path opacity="0.2" d="M418.633 80.192L366.849 110.096C365.219 111.158 363.863 112.589 362.89 114.273C361.917 115.957 361.354 117.846 361.248 119.788V131.106C361.248 134.675 363.758 136.126 366.849 134.341L418.633 104.408C420.262 103.346 421.618 101.915 422.591 100.231C423.565 98.5475 424.127 96.6579 424.233 94.7159V83.3986C424.233 79.8583 421.723 78.4073 418.633 80.192Z" fill="white"/>
<path opacity="0.2" d="M491.607 130.308C491.607 126.738 489.112 125.287 486.021 127.072L434.223 156.976C432.593 158.038 431.237 159.469 430.264 161.153C429.291 162.837 428.728 164.726 428.622 166.668V177.985C428.622 181.555 431.132 183.006 434.223 181.221L486.021 151.317C487.649 150.255 489.003 148.823 489.973 147.139C490.944 145.455 491.504 143.566 491.607 141.625V130.308Z" fill="white"/>
<path opacity="0.2" d="M620.788 168.482L569.048 198.371C567.418 199.433 566.062 200.864 565.089 202.548C564.116 204.232 563.554 206.122 563.447 208.064V219.395C563.447 222.965 565.943 224.401 569.033 222.616L620.832 192.713C622.461 191.651 623.818 190.22 624.791 188.536C625.764 186.852 626.326 184.962 626.433 183.02V171.703C626.389 168.134 623.879 166.697 620.788 168.482Z" fill="white"/>
<path opacity="0.2" d="M620.047 139.231L601.707 149.852C600.078 150.914 598.721 152.345 597.748 154.028C596.775 155.712 596.213 157.602 596.106 159.544V170.861C596.106 174.431 598.617 175.882 601.707 174.097L631.887 156.686C627.93 150.466 623.984 144.648 620.047 139.231Z" fill="white"/>
<path opacity="0.2" d="M356.847 219.308V207.991C356.847 204.422 354.337 202.971 351.246 204.755L299.447 234.659C297.822 235.723 296.469 237.155 295.498 238.839C294.528 240.523 293.967 242.411 293.861 244.351V255.669C293.861 259.238 296.371 260.689 299.447 258.904L351.246 229C352.875 227.939 354.232 226.508 355.205 224.824C356.178 223.14 356.74 221.25 356.847 219.308Z" fill="white"/>
<path opacity="0.2" d="M553.41 88.2302L501.611 118.134C499.984 119.197 498.63 120.628 497.659 122.312C496.689 123.996 496.129 125.885 496.025 127.826V139.144C496.025 142.713 498.521 144.164 501.611 142.379L553.41 112.475C555.04 111.414 556.396 109.983 557.369 108.299C558.342 106.615 558.904 104.725 559.011 102.783V91.4658C559.011 87.8965 556.501 86.4456 553.41 88.2302Z" fill="white"/>
<path opacity="0.2" d="M316.584 314.171L264.785 344.075C263.156 345.137 261.8 346.567 260.826 348.251C259.853 349.935 259.291 351.825 259.185 353.767V365.084C259.185 368.654 261.695 370.105 264.785 368.32L316.584 338.416C318.213 337.354 319.569 335.923 320.543 334.239C321.516 332.555 322.078 330.666 322.184 328.724V317.406C322.17 313.837 319.66 312.386 316.584 314.171Z" fill="white"/>
<path opacity="0.2" d="M46.5651 530.869C48.1926 529.806 49.5467 528.375 50.5173 526.691C51.4878 525.007 52.0477 523.117 52.1512 521.176V509.859C52.1512 506.29 49.6556 504.839 46.5651 506.624L22.5811 520.466C25.3036 526.94 28.3496 533.274 31.7075 539.444L46.5651 530.869Z" fill="white"/>
<path opacity="0.2" d="M528.728 198.4V209.717C528.728 213.287 531.238 214.738 534.328 212.953L586.112 183.049C587.742 181.987 589.098 180.556 590.071 178.872C591.044 177.188 591.607 175.299 591.713 173.357V162.04C591.713 158.47 589.203 157.019 586.112 158.804L534.328 188.708C532.699 189.77 531.343 191.201 530.369 192.885C529.396 194.569 528.834 196.458 528.728 198.4Z" fill="white"/>
</g>
<path opacity="0.15" d="M230.245 561.933C229.666 561.602 229.071 561.302 228.46 561.034L228.678 560.903L127.112 505.332V467.941L104.245 481.13V518.521L198.469 570.073C198.672 572.656 200.472 575.224 203.896 577.197C211.15 581.405 222.947 581.405 230.23 577.197C233.887 575.108 235.7 572.322 235.7 569.551C235.7 566.78 233.887 564.023 230.245 561.933Z" fill="black"/>
<path opacity="0.15" d="M200.431 579.925C199.85 579.591 199.249 579.29 198.632 579.025L198.85 578.895L97.2841 523.324V486.006L74.4463 499.064V536.455L168.67 588.007C168.874 590.589 170.658 593.158 174.097 595.131C181.352 599.339 193.148 599.339 200.431 595.131C204.088 593.027 205.902 590.256 205.902 587.484C205.902 584.713 204.088 582.014 200.431 579.925Z" fill="black"/>
<path opacity="0.15" d="M565.519 709.137C554.62 702.579 542.851 697.59 530.559 694.317C514.802 689.805 496.101 686.484 482.756 681.017C465.339 673.921 457.538 663.409 457.022 651.754C456.724 645.159 459.528 637.373 473.593 630.402C477.711 628.341 482.082 626.829 486.593 625.906C492.896 624.747 499.352 624.7 505.671 625.765C534.052 629.963 547.444 640.898 558.361 651.817C569.278 662.735 581.402 668.218 603.001 676.881C612.242 680.563 622.078 684.056 630.865 687.847L631.069 687.941C635.48 689.627 639.775 691.6 643.928 693.847C649.661 697.45 654.814 701.288 657.367 705.769C659.92 710.249 659.732 715.45 655.002 720.98C653.438 722.848 651.436 724.301 649.175 725.209C646.306 726.363 643.316 727.193 640.263 727.685C634.261 728.773 628.157 729.188 622.063 728.922C617.234 728.671 612.435 728.016 607.715 726.964C592.651 723.74 578.333 717.691 565.519 709.137Z" fill="black"/>
<path d="M122.975 462.486L130.432 466.839L115.488 492.651L108.03 488.298C106.115 487.195 104.939 484.83 104.939 481.464C105.136 477.8 106.194 474.234 108.026 471.055C109.859 467.876 112.415 465.174 115.488 463.168C118.419 461.528 121.059 461.34 122.975 462.486Z" fill="#5A50D8"/>
<path d="M112.396 485.817C112.596 482.152 113.656 478.585 115.491 475.407C117.327 472.228 119.885 469.526 122.959 467.521C128.763 464.155 133.522 466.882 133.522 473.615C133.323 477.28 132.262 480.846 130.427 484.025C128.592 487.204 126.034 489.906 122.959 491.911C117.127 495.277 112.396 492.549 112.396 485.817Z" fill="#240C4B"/>
<g opacity="0.3">
<path opacity="0.3" d="M115.489 484.032C115.629 481.44 116.379 478.916 117.677 476.667C118.976 474.419 120.786 472.508 122.962 471.09C127.082 468.71 130.434 470.64 130.434 475.443C130.294 478.036 129.544 480.559 128.246 482.808C126.947 485.057 125.137 486.967 122.962 488.385C118.841 490.721 115.489 488.792 115.489 484.032Z" fill="black"/>
</g>
<g opacity="0.3">
<path opacity="0.3" d="M125.153 472.352C125.012 474.945 124.263 477.469 122.964 479.717C121.666 481.966 119.856 483.877 117.68 485.295C117.081 485.632 116.442 485.895 115.779 486.078C115.588 485.413 115.49 484.725 115.489 484.032C115.629 481.44 116.379 478.916 117.677 476.667C118.976 474.419 120.786 472.508 122.962 471.09C123.565 470.75 124.208 470.487 124.877 470.307C125.056 470.974 125.149 471.661 125.153 472.352Z" fill="black"/>
</g>
<path d="M117.678 488.908L205.214 539.502C205.618 539.733 205.953 540.067 206.188 540.469C206.422 540.872 206.546 541.329 206.548 541.794V571.742H227.674V545.726V538.98C227.676 535.653 226.801 532.385 225.137 529.504C223.474 526.623 221.081 524.231 218.199 522.569L128.241 470.582C127.395 470.189 126.46 470.029 125.531 470.118C124.603 470.207 123.715 470.543 122.96 471.09C120.784 472.508 118.974 474.419 117.675 476.667C116.377 478.916 115.627 481.44 115.487 484.032C115.381 484.968 115.53 485.916 115.918 486.774C116.307 487.632 116.92 488.369 117.693 488.908H117.678Z" fill="#5A50D8"/>
<path d="M227.676 539.981C227.671 538.514 227.49 537.052 227.14 535.628C227.212 536.194 227.444 540.227 219.682 542.81C211.295 545.596 206.551 542.81 206.551 542.81V571.756H227.676V546.728V539.981Z" fill="#240C4B"/>
<g opacity="0.3">
<path opacity="0.3" d="M117.68 488.908L205.216 539.502C205.619 539.733 205.955 540.067 206.19 540.469C206.424 540.872 206.548 541.329 206.55 541.794V571.742H214.385V549.383V546.481C214.381 543.149 213.498 539.876 211.828 536.993C210.157 534.11 207.756 531.717 204.867 530.056L116.636 479.056C115.953 480.631 115.564 482.317 115.489 484.032C115.383 484.968 115.532 485.916 115.92 486.774C116.309 487.632 116.922 488.369 117.695 488.908H117.68Z" fill="black"/>
</g>
<path d="M232.057 559.699V568.332C232.057 570.552 230.606 572.787 227.704 574.47C224.424 576.136 220.798 577.005 217.119 577.005C213.44 577.005 209.814 576.136 206.534 574.47C203.633 572.787 202.182 570.552 202.182 568.347V559.641H206.636C206.656 560.221 206.795 560.791 207.045 561.315C207.295 561.839 207.649 562.307 208.087 562.688L208.45 563.036C208.854 563.381 209.286 563.692 209.741 563.965C212.058 565.145 214.621 565.76 217.221 565.76C219.821 565.76 222.383 565.145 224.7 563.965C225.158 563.695 225.59 563.384 225.992 563.036L226.354 562.688C226.791 562.306 227.146 561.839 227.395 561.315C227.645 560.791 227.784 560.221 227.805 559.641L232.057 559.699Z" fill="#240C4B"/>
<path d="M232.057 559.699C232.057 561.905 230.606 564.139 227.704 565.822C224.422 567.482 220.796 568.347 217.119 568.347C213.442 568.347 209.816 567.482 206.534 565.822C203.633 564.139 202.182 561.905 202.182 559.699C202.182 557.494 203.633 555.274 206.534 553.591V559.743C206.555 560.323 206.694 560.893 206.943 561.417C207.193 561.941 207.548 562.408 207.985 562.79L208.348 563.138C208.752 563.483 209.184 563.793 209.639 564.066C211.956 565.246 214.519 565.861 217.119 565.861C219.719 565.861 222.282 565.246 224.599 564.066C225.057 563.797 225.489 563.486 225.89 563.138L226.253 562.79C226.69 562.408 227.044 561.94 227.294 561.416C227.543 560.892 227.683 560.323 227.704 559.743V553.634C230.606 555.274 232.057 557.494 232.057 559.699Z" fill="#5A50D8"/>
<path d="M92.4786 480.1L99.9364 484.453L85.0062 510.265L77.5339 505.913C75.6186 504.81 74.4434 502.445 74.4434 499.079C74.6428 495.414 75.7031 491.847 77.5383 488.668C79.3735 485.489 81.9319 482.788 85.0062 480.782C87.9226 479.143 90.5778 478.983 92.4786 480.1Z" fill="#5A50D8"/>
<path d="M81.9004 503.417C82.0998 499.752 83.1601 496.185 84.9953 493.006C86.8305 489.828 89.3889 487.126 92.4632 485.121C98.267 481.754 103.026 484.482 103.026 491.215C102.827 494.88 101.766 498.446 99.9312 501.625C98.096 504.804 95.5375 507.506 92.4632 509.511C86.6305 512.892 81.9004 510.164 81.9004 503.417Z" fill="#240C4B"/>
<g opacity="0.3">
<path opacity="0.3" d="M85.0039 501.647C85.1435 499.055 85.8915 496.533 87.1871 494.285C88.4828 492.036 90.2898 490.125 92.4617 488.704C96.5969 486.325 99.9341 488.255 99.9341 493.057C99.7963 495.651 99.0476 498.175 97.749 500.424C96.4505 502.673 94.6388 504.584 92.4617 506C88.3411 508.336 85.0039 506.406 85.0039 501.647Z" fill="black"/>
</g>
<g opacity="0.3">
<path opacity="0.3" d="M94.595 489.967C94.4572 492.56 93.7085 495.084 92.41 497.333C91.1114 499.583 89.2998 501.493 87.1227 502.909C86.5243 503.249 85.8858 503.512 85.222 503.693C85.0424 503.025 84.9497 502.338 84.9463 501.647C85.0859 499.055 85.8339 496.533 87.1295 494.285C88.4252 492.036 90.2322 490.125 92.4041 488.704C93.0087 488.367 93.6518 488.104 94.3194 487.921C94.499 488.588 94.5916 489.276 94.595 489.967Z" fill="black"/>
</g>
<path d="M87.1965 506.493L174.732 557.102C175.132 557.336 175.464 557.671 175.696 558.073C175.927 558.475 176.05 558.93 176.052 559.394V588.341H197.178V563.341V556.594C197.178 553.268 196.302 550 194.639 547.12C192.976 544.239 190.584 541.847 187.703 540.184L97.7449 488.197C96.8965 487.804 95.9588 487.643 95.0281 487.733C94.0974 487.822 93.2072 488.157 92.4489 488.704C90.277 490.125 88.47 492.036 87.1743 494.285C85.8787 496.533 85.1307 499.055 84.9911 501.647C84.8946 502.574 85.0467 503.51 85.4317 504.36C85.8168 505.209 86.4209 505.94 87.182 506.478L87.1965 506.493Z" fill="#5A50D8"/>
<path d="M197.18 556.594C197.175 555.127 196.994 553.666 196.644 552.241C196.731 552.821 196.948 556.841 189.186 559.423C180.799 562.209 176.055 559.423 176.055 559.423V588.37H197.18V563.341V556.594Z" fill="#240C4B"/>
<g opacity="0.3">
<path opacity="0.3" d="M87.1986 506.493L174.734 557.102C175.134 557.336 175.466 557.671 175.698 558.073C175.93 558.475 176.052 558.93 176.054 559.394V588.34H183.889V567.012V564.11C183.892 560.779 183.016 557.507 181.35 554.624C179.684 551.74 177.287 549.347 174.4 547.685L86.1539 496.67C85.4642 498.243 85.0754 499.931 85.0077 501.647C84.9112 502.574 85.0633 503.51 85.4483 504.36C85.8334 505.209 86.4375 505.94 87.1986 506.478V506.493Z" fill="black"/>
</g>
<path d="M201.575 577.313V585.946C201.575 588.166 200.124 590.401 197.222 592.084C193.94 593.751 190.311 594.62 186.63 594.62C182.949 594.62 179.32 593.751 176.038 592.084C173.136 590.401 171.686 588.166 171.686 585.961V577.255H176.14C176.158 577.836 176.296 578.407 176.545 578.931C176.795 579.456 177.151 579.923 177.591 580.302C177.7 580.426 177.816 580.542 177.939 580.651C178.339 581 178.772 581.311 179.23 581.579C181.55 582.759 184.115 583.374 186.717 583.374C189.319 583.374 191.885 582.759 194.204 581.579C194.66 581.307 195.093 580.997 195.495 580.651C195.626 580.534 195.728 580.418 195.844 580.302C196.276 579.917 196.627 579.448 196.876 578.925C197.126 578.402 197.268 577.834 197.295 577.255L201.575 577.313Z" fill="#240C4B"/>
<path d="M201.575 577.313C201.575 579.519 200.124 581.753 197.222 583.436C193.938 585.097 190.31 585.962 186.63 585.962C182.95 585.962 179.322 585.097 176.038 583.436C173.136 581.753 171.686 579.519 171.686 577.313C171.686 575.108 173.136 572.888 176.038 571.205V577.357C176.056 577.938 176.194 578.508 176.444 579.033C176.694 579.557 177.05 580.024 177.489 580.404C177.598 580.527 177.714 580.643 177.838 580.752C178.238 581.102 178.67 581.412 179.129 581.681C181.448 582.861 184.014 583.476 186.616 583.476C189.218 583.476 191.783 582.861 194.103 581.681C194.559 581.409 194.991 581.098 195.394 580.752C195.525 580.636 195.626 580.52 195.742 580.404C196.175 580.018 196.526 579.55 196.775 579.027C197.024 578.504 197.166 577.936 197.193 577.357V571.248C200.109 572.888 201.575 575.108 201.575 577.313Z" fill="#5A50D8"/>
<path d="M334.652 147.762C334.652 102.783 318.851 71.1671 293.329 56.4255C267.807 41.684 232.535 43.8169 193.563 66.321C115.647 111.3 52.5166 220.701 52.5166 310.674C52.5166 355.653 68.3174 387.269 93.8394 401.996C119.361 416.723 154.634 414.605 193.606 392.115C271.493 347.136 334.652 237.735 334.652 147.762Z" fill="#BA68C8"/>
<path opacity="0.95" d="M334.652 147.762C334.652 102.783 318.851 71.1671 293.329 56.4255C267.807 41.684 232.535 43.8169 193.563 66.321C115.647 111.3 52.5166 220.701 52.5166 310.674C52.5166 355.653 68.3174 387.269 93.8394 401.996C119.361 416.723 154.634 414.605 193.606 392.115C271.493 347.136 334.652 237.735 334.652 147.762Z" fill="white"/>
<g opacity="0.2">
<path opacity="0.2" d="M114.426 371.149L79.7344 391.172C83.932 395.38 88.6638 399.019 93.8085 401.996C95.3755 402.91 96.9715 403.752 98.6111 404.521L114.426 395.394C116.054 394.332 117.408 392.9 118.379 391.216C119.349 389.532 119.909 387.643 120.012 385.702V374.385C120.012 370.815 117.517 369.365 114.426 371.149Z" fill="#BA68C8"/>
<path opacity="0.2" d="M191.801 165.768C191.801 169.338 194.311 170.789 197.401 169.004L249.186 139.1C250.815 138.038 252.171 136.607 253.144 134.923C254.117 133.239 254.68 131.35 254.786 129.408V118.076C254.786 114.521 252.276 113.07 249.186 114.855L197.401 144.759C195.772 145.821 194.416 147.252 193.443 148.936C192.47 150.62 191.907 152.509 191.801 154.451V165.768Z" fill="#BA68C8"/>
<path opacity="0.2" d="M249.186 174.387L197.401 204.291C195.772 205.353 194.416 206.784 193.443 208.468C192.47 210.152 191.907 212.041 191.801 213.983V225.301C191.801 228.87 194.311 230.321 197.401 228.536L249.186 198.632C250.815 197.57 252.171 196.14 253.144 194.456C254.117 192.772 254.68 190.882 254.786 188.94V177.623C254.786 174.053 252.276 172.602 249.186 174.387Z" fill="#BA68C8"/>
<path opacity="0.2" d="M154.686 97.6758V95.0351C147.353 101.743 140.37 108.823 133.764 116.248L149.086 107.31C150.707 106.254 152.059 104.832 153.032 103.159C154.004 101.486 154.571 99.6078 154.686 97.6758Z" fill="#BA68C8"/>
<path opacity="0.2" d="M282.927 303.68L232.071 333.047C230.445 334.108 229.092 335.537 228.121 337.218C227.15 338.9 226.59 340.787 226.485 342.725V354.057C226.485 357.626 228.981 359.063 232.071 357.278L248.032 348.05C260.932 334.304 272.608 319.458 282.927 303.68Z" fill="#BA68C8"/>
<path opacity="0.2" d="M299.449 234.659C297.823 235.723 296.471 237.155 295.5 238.839C294.53 240.523 293.969 242.411 293.863 244.351V255.669C293.863 259.238 296.373 260.689 299.449 258.904L310.694 252.419C315.095 242.3 318.969 231.96 322.302 221.441L299.449 234.659Z" fill="#BA68C8"/>
<path opacity="0.2" d="M154.685 335.833V324.516C154.685 320.947 152.175 319.496 149.085 321.28L97.3007 351.184C95.6686 352.245 94.3095 353.675 93.3339 355.359C92.3582 357.043 91.7935 358.933 91.6855 360.877V372.194C91.6855 375.763 94.1957 377.214 97.2862 375.43L149.07 345.526C150.702 344.465 152.061 343.035 153.037 341.351C154.013 339.667 154.577 337.777 154.685 335.833Z" fill="#BA68C8"/>
<path opacity="0.2" d="M181.808 213.229L130.009 243.133C128.381 244.195 127.027 245.627 126.057 247.311C125.086 248.995 124.526 250.884 124.423 252.825V264.142C124.423 267.712 126.918 269.163 130.009 267.378L181.808 237.474C183.451 236.413 184.819 234.977 185.8 233.285C186.781 231.592 187.347 229.692 187.452 227.738V216.421C187.452 212.895 184.898 211.444 181.808 213.229Z" fill="#BA68C8"/>
</g>
<path opacity="0.2" d="M424.625 362.081L146.044 410.078C126.224 413.343 108.436 410.441 93.8104 402.011C68.2883 387.255 52.5166 355.653 52.5166 310.674C52.5166 220.716 115.691 111.3 193.606 66.3065C232.564 43.8169 267.836 41.6405 293.358 56.4256C307.955 64.8555 319.359 78.7991 326.454 97.6033L424.625 362.081Z" fill="#BA68C8"/>
<path opacity="0.2" d="M424.625 362.081L146.044 410.078C126.224 413.343 108.436 410.441 93.8104 402.011C68.2883 387.255 52.5166 355.653 52.5166 310.674C52.5166 220.716 115.691 111.3 193.606 66.3065C232.564 43.8169 267.836 41.6405 293.358 56.4256C307.955 64.8555 319.359 78.7991 326.454 97.6033L424.625 362.081Z" fill="white"/>
<path d="M138.333 254.929L123.098 263.721V300.372L102.059 312.517L126.725 219.656L110.359 229.189L83.8936 328.143V342.363L123.069 319.728V340.912L138.304 332.119V310.877L148.606 304.928V285.631L138.304 291.58L138.333 254.929ZM193.773 180.931C171.908 193.554 154.192 227.361 154.192 256.554C154.192 285.747 171.908 299.095 193.773 286.487C215.639 273.878 233.355 240.057 233.355 210.849C233.355 181.642 215.624 168.38 193.773 181.003V180.931ZM193.773 266.159C180.323 273.922 169.427 265.68 169.427 247.761C169.427 229.842 180.323 209.007 193.773 201.244C207.224 193.481 218.106 201.723 218.106 219.656C218.106 237.59 207.209 258.469 193.773 266.232V266.159ZM292.96 202.231V165.652L277.71 174.445V211.096L256.686 223.24L281.352 130.38L264.971 139.84L238.506 238.823V252.985L277.681 230.35V251.563L292.931 242.77V221.601L303.232 215.652V196.354L292.96 202.231Z" fill="#5A50D8"/>
<path d="M136.229 195.542C136.267 195.514 136.313 195.498 136.36 195.498C136.407 195.498 136.453 195.514 136.49 195.542C136.577 195.542 136.606 195.687 136.606 195.832V197.181C136.608 197.33 136.567 197.475 136.49 197.602C136.435 197.727 136.344 197.833 136.229 197.907L129.976 201.52C129.938 201.548 129.892 201.563 129.845 201.563C129.798 201.563 129.752 201.548 129.714 201.52C129.675 201.483 129.644 201.438 129.624 201.388C129.604 201.338 129.595 201.283 129.598 201.229V188.969C129.605 188.822 129.644 188.678 129.714 188.548C129.77 188.423 129.861 188.317 129.976 188.244L136.113 184.703C136.152 184.671 136.201 184.654 136.251 184.654C136.301 184.654 136.35 184.671 136.389 184.703C136.428 184.743 136.458 184.791 136.475 184.844C136.493 184.897 136.498 184.953 136.49 185.008V186.343C136.491 186.494 136.457 186.643 136.389 186.778C136.325 186.902 136.23 187.007 136.113 187.083L131.514 189.738V192.756L135.866 190.275C135.906 190.245 135.955 190.23 136.004 190.23C136.054 190.23 136.102 190.245 136.142 190.275C136.182 190.312 136.213 190.357 136.233 190.407C136.253 190.457 136.262 190.511 136.258 190.565V191.914C136.254 192.067 136.214 192.216 136.142 192.35C136.086 192.479 135.989 192.586 135.866 192.654L131.514 195.121V198.27L136.229 195.542Z" fill="black"/>
<path d="M142.485 181.047C143.675 180.365 144.575 180.22 145.199 180.597C145.822 180.974 146.113 181.801 146.113 183.107C146.117 184.009 145.954 184.905 145.634 185.748C145.299 186.588 144.807 187.357 144.183 188.011L146.142 191.566C146.155 191.624 146.155 191.683 146.142 191.74C146.141 191.862 146.111 191.981 146.055 192.089C146.001 192.186 145.927 192.27 145.837 192.335L144.618 193.046C144.43 193.148 144.299 193.177 144.197 193.046C144.122 192.985 144.059 192.911 144.009 192.829L142.152 189.477L140.251 190.565V194.99C140.254 195.139 140.213 195.285 140.135 195.411C140.076 195.538 139.986 195.647 139.874 195.73L138.713 196.383C138.676 196.414 138.63 196.431 138.582 196.431C138.534 196.431 138.488 196.414 138.452 196.383C138.408 196.347 138.374 196.299 138.354 196.246C138.334 196.193 138.327 196.135 138.336 196.079V183.833C138.333 183.684 138.373 183.538 138.452 183.412C138.507 183.283 138.597 183.172 138.713 183.093L142.485 181.047ZM140.352 188.302L142.413 187.112C142.922 186.83 143.367 186.444 143.719 185.98C144.059 185.476 144.227 184.875 144.197 184.268C144.197 183.557 144.038 183.18 143.719 183.122C143.252 183.102 142.791 183.24 142.413 183.513L140.352 184.703V188.302Z" fill="black"/>
<path d="M151.962 175.504C153.152 174.822 154.052 174.663 154.661 175.04C155.271 175.417 155.59 176.259 155.59 177.565C155.6 179.376 154.932 181.125 153.718 182.469L155.677 186.009C155.69 186.071 155.69 186.136 155.677 186.198C155.676 186.319 155.646 186.438 155.59 186.546C155.536 186.648 155.456 186.733 155.358 186.793L154.153 187.489C153.965 187.605 153.82 187.62 153.733 187.562C153.654 187.499 153.589 187.42 153.544 187.329L151.672 183.992L149.786 185.081V189.506C149.78 189.653 149.74 189.797 149.67 189.927C149.615 190.052 149.524 190.158 149.409 190.231L148.248 190.899C148.209 190.923 148.164 190.936 148.117 190.936C148.071 190.936 148.026 190.923 147.987 190.899C147.943 190.862 147.909 190.815 147.889 190.762C147.869 190.708 147.862 190.651 147.871 190.594V178.406C147.868 178.253 147.908 178.102 147.987 177.971C148.042 177.846 148.133 177.74 148.248 177.666L151.962 175.504ZM149.83 182.759L151.89 181.569C152.395 181.287 152.835 180.901 153.181 180.438C153.533 179.933 153.706 179.325 153.675 178.711C153.675 178.014 153.515 177.623 153.181 177.579C152.721 177.561 152.268 177.694 151.89 177.956L149.83 179.146V182.759Z" fill="black"/>
<path d="M157.092 177.536C157.122 176.802 157.224 176.073 157.396 175.359C157.568 174.637 157.831 173.94 158.18 173.284C158.521 172.616 158.951 171.996 159.457 171.442C159.983 170.867 160.594 170.378 161.271 169.991C161.82 169.645 162.44 169.427 163.084 169.352C163.541 169.305 163.998 169.435 164.361 169.715C164.737 170.017 165.011 170.427 165.145 170.89C165.336 171.482 165.443 172.097 165.464 172.719C165.464 172.951 165.464 173.212 165.464 173.502C165.464 173.792 165.464 174.097 165.464 174.402C165.464 174.706 165.464 175.011 165.464 175.301C165.464 175.591 165.464 175.867 165.464 176.114C165.434 176.847 165.332 177.576 165.159 178.29C164.981 179.01 164.718 179.707 164.376 180.365C164.034 181.037 163.6 181.658 163.084 182.208C162.564 182.788 161.951 183.278 161.271 183.659C160.724 184.012 160.103 184.236 159.457 184.312C159.003 184.358 158.548 184.234 158.18 183.963C157.804 183.662 157.53 183.251 157.396 182.788C157.212 182.196 157.109 181.58 157.092 180.96C157.092 180.728 157.092 180.467 157.092 180.176C157.092 179.886 157.092 179.581 157.092 179.277C157.092 178.972 157.092 178.667 157.092 178.377C157.092 178.087 157.092 177.782 157.092 177.536ZM163.534 173.908C163.566 173.59 163.523 173.268 163.41 172.968C163.297 172.669 163.116 172.4 162.881 172.182C162.475 171.911 161.938 171.969 161.271 172.356C160.594 172.753 160.041 173.331 159.674 174.024C159.258 174.791 159.034 175.648 159.022 176.52C159.022 177.013 159.022 177.55 159.022 178.145C159.022 178.74 159.022 179.262 159.022 179.727C158.986 180.045 159.027 180.368 159.141 180.668C159.254 180.968 159.437 181.237 159.674 181.453C159.933 181.604 160.233 181.672 160.532 181.646C160.831 181.62 161.114 181.502 161.343 181.308C162.024 180.912 162.582 180.334 162.954 179.64C163.363 178.875 163.586 178.025 163.607 177.158C163.607 176.665 163.607 176.128 163.607 175.533C163.607 174.938 163.563 174.373 163.534 173.908Z" fill="black"/>
<path d="M171.387 164.332C172.577 163.65 173.476 163.491 174.1 163.868C174.724 164.245 175.029 165.087 175.029 166.392C175.032 167.294 174.869 168.189 174.55 169.033C174.218 169.87 173.725 170.634 173.099 171.282L175.058 174.837C175.073 174.899 175.073 174.964 175.058 175.026C175.057 175.147 175.027 175.266 174.971 175.374C174.927 175.477 174.85 175.564 174.753 175.62L173.534 176.317C173.346 176.433 173.215 176.447 173.114 176.317C173.032 176.263 172.967 176.188 172.925 176.099L171.068 172.762L169.167 173.85V178.203C169.166 178.349 169.132 178.493 169.066 178.624C169.001 178.747 168.906 178.852 168.79 178.929L167.629 179.596C167.591 179.624 167.546 179.64 167.499 179.64C167.451 179.64 167.406 179.624 167.368 179.596C167.326 179.561 167.294 179.516 167.274 179.465C167.254 179.415 167.246 179.36 167.252 179.306V167.045C167.258 166.898 167.298 166.754 167.368 166.625C167.423 166.5 167.514 166.394 167.629 166.32L171.387 164.332ZM169.254 171.587L171.315 170.383C171.823 170.106 172.268 169.725 172.62 169.265C172.958 168.755 173.126 168.15 173.099 167.539C173.099 166.828 172.94 166.45 172.62 166.392C172.155 166.387 171.7 166.523 171.315 166.784L169.254 167.974V171.587Z" fill="black"/>
<path d="M188.636 167.655C188.462 167.756 188.346 167.771 188.259 167.655C188.19 167.608 188.127 167.555 188.07 167.495L184.095 161.909V169.73C184.088 169.877 184.049 170.021 183.979 170.15C183.919 170.277 183.823 170.383 183.703 170.455L182.557 171.122C182.517 171.152 182.468 171.168 182.419 171.168C182.369 171.168 182.321 171.152 182.281 171.122C182.241 171.086 182.21 171.041 182.19 170.991C182.17 170.94 182.161 170.886 182.165 170.832V158.572C182.171 158.425 182.211 158.281 182.281 158.151C182.341 158.025 182.437 157.919 182.557 157.846L183.558 157.266C183.717 157.179 183.833 157.164 183.92 157.266L184.109 157.426L188.085 163.012V155.191C188.091 155.039 188.13 154.891 188.201 154.756C188.261 154.629 188.357 154.523 188.476 154.451L189.623 153.784C189.663 153.754 189.711 153.738 189.761 153.738C189.81 153.738 189.858 153.754 189.898 153.784C189.938 153.82 189.969 153.865 189.989 153.916C190.009 153.966 190.018 154.02 190.014 154.074V166.334C190.01 166.482 189.97 166.626 189.898 166.755C189.834 166.883 189.739 166.992 189.623 167.074L188.636 167.655Z" fill="black"/>
<path d="M177.046 173.197C177.069 173.006 177.123 172.82 177.206 172.646C177.287 172.463 177.424 172.311 177.597 172.211L178.7 171.572C178.73 171.551 178.765 171.54 178.802 171.54C178.838 171.54 178.874 171.551 178.903 171.572C178.934 171.599 178.957 171.633 178.972 171.671C178.988 171.709 178.994 171.749 178.99 171.79C178.99 171.79 178.99 171.877 178.99 171.906L178.149 175.229C178.149 175.359 178.047 175.504 177.975 175.678C177.893 175.849 177.761 175.991 177.597 176.085L177.017 176.418C176.991 176.441 176.957 176.453 176.923 176.453C176.888 176.453 176.855 176.441 176.828 176.418C176.828 176.418 176.741 176.317 176.741 176.215L177.046 173.197Z" fill="black"/>
<path d="M191.891 157.455C191.921 156.721 192.023 155.992 192.195 155.278C192.367 154.551 192.63 153.849 192.979 153.189C193.319 152.524 193.748 151.909 194.256 151.361C194.778 150.783 195.391 150.293 196.069 149.91C196.615 149.557 197.237 149.339 197.883 149.271C198.337 149.221 198.794 149.345 199.16 149.62C199.533 149.93 199.806 150.344 199.943 150.809C200.137 151.4 200.245 152.016 200.263 152.637C200.263 152.87 200.263 153.131 200.263 153.421V155.191C200.263 155.481 200.263 155.757 200.263 156.004C200.232 156.737 200.13 157.466 199.958 158.18C199.779 158.9 199.516 159.597 199.174 160.255C198.828 160.924 198.394 161.544 197.883 162.098C197.358 162.674 196.746 163.163 196.069 163.549C195.523 163.902 194.902 164.126 194.256 164.201C193.801 164.249 193.346 164.125 192.979 163.853C192.599 163.549 192.325 163.132 192.195 162.663C192.01 162.076 191.908 161.466 191.891 160.85C191.891 160.603 191.891 160.356 191.891 160.066C191.891 159.776 191.891 159.471 191.891 159.167C191.891 158.862 191.891 158.557 191.891 158.253C191.891 157.948 191.818 157.701 191.891 157.455ZM198.333 153.827C198.363 153.507 198.319 153.183 198.206 152.882C198.093 152.58 197.913 152.308 197.68 152.086C197.422 151.961 197.134 151.911 196.85 151.941C196.565 151.972 196.294 152.083 196.069 152.26C195.395 152.667 194.843 153.248 194.473 153.943C194.059 154.712 193.83 155.566 193.806 156.439C193.806 156.932 193.806 157.469 193.806 158.049C193.806 158.63 193.806 159.167 193.806 159.646C193.776 159.963 193.821 160.283 193.937 160.581C194.052 160.878 194.236 161.144 194.473 161.358C194.727 161.489 195.014 161.542 195.298 161.511C195.582 161.48 195.85 161.366 196.069 161.184C196.722 160.783 197.258 160.218 197.622 159.544C198.031 158.78 198.255 157.93 198.275 157.063C198.275 156.57 198.275 156.033 198.275 155.438C198.275 154.843 198.347 154.292 198.333 153.827Z" fill="black"/>
<path d="M208.559 142.873C208.599 142.843 208.648 142.827 208.697 142.827C208.747 142.827 208.795 142.843 208.835 142.873C208.877 142.908 208.909 142.953 208.929 143.003C208.949 143.054 208.957 143.109 208.951 143.163V144.512C208.945 144.659 208.905 144.803 208.835 144.933C208.775 145.06 208.679 145.165 208.559 145.238L206.006 146.689V157.092C206 157.239 205.96 157.383 205.89 157.513C205.83 157.639 205.734 157.745 205.614 157.817L204.468 158.485C204.428 158.514 204.38 158.53 204.33 158.53C204.28 158.53 204.232 158.514 204.192 158.485C204.15 158.45 204.116 158.406 204.096 158.355C204.076 158.304 204.069 158.249 204.076 158.195V147.806L201.522 149.257C201.482 149.286 201.434 149.302 201.385 149.302C201.335 149.302 201.287 149.286 201.247 149.257C201.207 149.22 201.176 149.175 201.156 149.125C201.136 149.075 201.127 149.021 201.131 148.967V147.617C201.135 147.465 201.174 147.316 201.247 147.182C201.307 147.055 201.403 146.949 201.522 146.877L208.559 142.873Z" fill="black"/>
<path d="M219.714 136.43C219.752 136.402 219.798 136.387 219.845 136.387C219.892 136.387 219.938 136.402 219.976 136.43C220.018 136.465 220.051 136.51 220.072 136.56C220.092 136.611 220.099 136.666 220.092 136.721V138.07C220.094 138.219 220.054 138.365 219.976 138.491C219.916 138.617 219.827 138.727 219.714 138.81L215.173 141.422V145.107L219.424 142.655C219.463 142.623 219.512 142.606 219.562 142.606C219.612 142.606 219.661 142.623 219.7 142.655C219.741 142.694 219.772 142.741 219.793 142.794C219.813 142.847 219.821 142.903 219.816 142.96V144.295C219.812 144.447 219.772 144.596 219.7 144.73C219.64 144.856 219.544 144.962 219.424 145.035L215.173 147.487V151.839C215.167 151.987 215.127 152.131 215.057 152.26C215.002 152.385 214.911 152.491 214.796 152.565L213.635 153.232C213.597 153.261 213.551 153.276 213.504 153.276C213.457 153.276 213.411 153.261 213.374 153.232C213.33 153.199 213.296 153.154 213.276 153.103C213.255 153.052 213.249 152.997 213.258 152.942V140.682C213.255 140.529 213.295 140.378 213.374 140.246C213.429 140.121 213.52 140.016 213.635 139.942L219.714 136.43Z" fill="black"/>
<path d="M221.295 140.479C221.325 139.745 221.427 139.016 221.6 138.302C221.773 137.578 222.031 136.877 222.369 136.213C222.722 135.551 223.15 134.933 223.646 134.37C224.176 133.795 224.793 133.305 225.474 132.919C226.018 132.571 226.632 132.348 227.273 132.266C227.733 132.226 228.192 132.355 228.564 132.629C228.928 132.947 229.199 133.359 229.348 133.819C229.536 134.41 229.639 135.026 229.652 135.647C229.652 135.879 229.652 136.14 229.652 136.43V138.23C229.652 138.52 229.652 138.795 229.652 139.042C229.622 139.776 229.52 140.505 229.348 141.219C229.174 141.938 228.916 142.635 228.579 143.293C228.232 143.962 227.798 144.582 227.287 145.136C226.76 145.709 226.148 146.198 225.474 146.587C224.921 146.94 224.296 147.163 223.646 147.24C223.192 147.283 222.738 147.159 222.369 146.892C221.998 146.582 221.73 146.167 221.6 145.702C221.415 145.114 221.312 144.504 221.295 143.888C221.295 143.642 221.295 143.38 221.295 143.09V141.291C221.266 140.986 221.281 140.682 221.295 140.479ZM227.737 136.851C227.767 136.529 227.723 136.205 227.607 135.903C227.491 135.601 227.307 135.33 227.07 135.11C226.816 134.979 226.529 134.925 226.246 134.956C225.962 134.987 225.693 135.101 225.474 135.284C224.793 135.683 224.24 136.266 223.878 136.967C223.462 137.735 223.233 138.59 223.21 139.463C223.21 139.956 223.21 140.493 223.21 141.073C223.21 141.654 223.21 142.191 223.21 142.67C223.18 142.987 223.225 143.307 223.341 143.605C223.457 143.902 223.641 144.168 223.878 144.382C224.131 144.513 224.418 144.566 224.702 144.535C224.986 144.504 225.254 144.39 225.474 144.207C226.146 143.805 226.698 143.229 227.07 142.539C227.484 141.776 227.713 140.926 227.737 140.058C227.737 139.564 227.737 139.028 227.737 138.433C227.737 137.838 227.752 137.316 227.737 136.851Z" fill="black"/>
<path d="M239.228 125.171C239.267 125.139 239.316 125.122 239.366 125.122C239.416 125.122 239.465 125.139 239.504 125.171C239.543 125.211 239.573 125.259 239.59 125.312C239.608 125.364 239.613 125.421 239.606 125.476V133.253C239.613 134.014 239.53 134.774 239.359 135.516C239.188 136.237 238.93 136.933 238.59 137.591C238.243 138.243 237.814 138.848 237.313 139.39C236.79 139.957 236.189 140.445 235.528 140.841C234.987 141.184 234.378 141.406 233.744 141.494C233.295 141.559 232.838 141.45 232.467 141.19C232.096 140.876 231.833 140.455 231.712 139.985C231.529 139.344 231.446 138.679 231.466 138.012V130.235C231.465 130.089 231.5 129.944 231.567 129.814C231.632 129.687 231.726 129.577 231.843 129.495L233.004 128.828C233.041 128.799 233.087 128.784 233.134 128.784C233.181 128.784 233.227 128.799 233.265 128.828C233.306 128.866 233.338 128.914 233.358 128.967C233.378 129.019 233.386 129.076 233.381 129.132V136.808C233.369 137.225 233.423 137.641 233.541 138.041C233.611 138.3 233.764 138.529 233.976 138.694C234.181 138.815 234.424 138.856 234.658 138.81C234.966 138.752 235.261 138.639 235.528 138.476C235.846 138.291 236.138 138.067 236.399 137.809C236.675 137.54 236.91 137.232 237.095 136.895C237.291 136.527 237.442 136.137 237.545 135.734C237.656 135.258 237.709 134.771 237.705 134.283V126.593C237.711 126.446 237.751 126.302 237.821 126.172C237.877 126.043 237.974 125.936 238.097 125.868L239.228 125.171Z" fill="black"/>
<path d="M248.231 133.253C248.173 133.286 248.108 133.303 248.042 133.303C247.976 133.303 247.911 133.286 247.854 133.253L247.665 133.093L243.689 127.623V135.429C243.685 135.582 243.645 135.731 243.573 135.865C243.517 135.994 243.421 136.101 243.298 136.169L242.151 136.837C242.111 136.864 242.063 136.879 242.013 136.879C241.964 136.879 241.916 136.864 241.876 136.837C241.836 136.8 241.805 136.755 241.785 136.705C241.765 136.655 241.756 136.601 241.76 136.547V124.286C241.766 124.139 241.806 123.995 241.876 123.865C241.94 123.742 242.035 123.637 242.151 123.561L243.152 122.98C243.312 122.879 243.428 122.879 243.515 122.98C243.584 123.027 243.647 123.08 243.704 123.14L247.679 128.726V120.804C247.683 120.652 247.723 120.503 247.795 120.369C247.855 120.242 247.951 120.136 248.071 120.064L249.217 119.396C249.257 119.367 249.306 119.351 249.355 119.351C249.405 119.351 249.453 119.367 249.493 119.396C249.533 119.433 249.564 119.478 249.584 119.528C249.604 119.579 249.613 119.633 249.609 119.687V131.976C249.603 132.123 249.563 132.267 249.493 132.397C249.433 132.523 249.337 132.629 249.217 132.702L248.231 133.253Z" fill="black"/>
<path d="M255.658 115.638C256.219 115.298 256.839 115.067 257.486 114.957C257.939 114.896 258.399 115.004 258.777 115.261C259.161 115.564 259.44 115.981 259.575 116.451C259.783 117.089 259.896 117.754 259.909 118.424C259.909 119.338 259.909 120.282 259.909 121.239C259.88 122.032 259.768 122.82 259.575 123.59C259.408 124.323 259.145 125.03 258.792 125.694C258.448 126.343 258.019 126.943 257.515 127.478C256.995 128.047 256.394 128.536 255.73 128.929L252.146 130.989C252.11 131.02 252.064 131.037 252.016 131.037C251.968 131.037 251.922 131.02 251.885 130.989C251.841 130.953 251.808 130.906 251.787 130.852C251.767 130.799 251.761 130.741 251.769 130.685V118.41C251.766 118.261 251.807 118.115 251.885 117.989C251.94 117.86 252.031 117.749 252.146 117.67L255.658 115.638ZM257.994 119.527C257.987 119.182 257.928 118.839 257.82 118.511C257.742 118.256 257.59 118.029 257.384 117.858C257.28 117.779 257.16 117.722 257.033 117.69C256.906 117.657 256.774 117.651 256.644 117.67C256.268 117.728 255.908 117.861 255.585 118.062L253.684 119.164V127.696L255.658 126.55C256.035 126.337 256.377 126.068 256.673 125.752C256.96 125.451 257.2 125.108 257.384 124.736C257.579 124.369 257.725 123.979 257.82 123.575C257.921 123.171 257.98 122.758 257.994 122.342C258.095 121.384 258.095 120.456 258.052 119.527H257.994Z" fill="black"/>
<path d="M432.573 377.404C433.719 377.665 435.257 377.07 436.925 375.605C440.311 372.375 442.582 368.152 443.411 363.547C443.716 361.356 443.411 359.746 442.526 358.933L435.663 352.361C434.71 351.592 433.548 351.125 432.328 351.022C431.107 350.918 429.884 351.183 428.815 351.78C423.011 354.769 418.397 363.388 419.064 369.888C419.369 372.804 431.905 377.244 432.573 377.404Z" fill="#968EFF"/>
<path d="M443.05 362.88C443.255 361.955 443.152 360.989 442.758 360.128C442.364 359.266 441.7 358.557 440.866 358.107C440.033 357.658 439.075 357.492 438.139 357.636C437.203 357.78 436.339 358.225 435.679 358.904C433.607 360.344 431.903 362.251 430.706 364.472C429.508 366.693 428.851 369.165 428.787 371.687C428.577 372.615 428.677 373.586 429.071 374.451C429.465 375.317 430.132 376.03 430.969 376.481C431.807 376.932 432.769 377.096 433.709 376.948C434.648 376.8 435.514 376.349 436.172 375.663C438.248 374.227 439.953 372.32 441.148 370.098C442.344 367.876 442.995 365.403 443.05 362.88Z" fill="#240C4B"/>
<path d="M479.03 397.354C479.529 397.551 480.071 397.615 480.602 397.542C481.133 397.468 481.636 397.258 482.063 396.934C483.263 396.097 484.249 394.99 484.942 393.702C485.635 392.414 486.016 390.981 486.053 389.519C486.089 388.985 485.987 388.45 485.756 387.967C485.524 387.484 485.172 387.069 484.733 386.762L441.03 361.835C440.382 361.498 439.66 361.329 438.93 361.344C438.2 361.36 437.485 361.558 436.852 361.922C435.239 362.802 433.916 364.132 433.046 365.75C432.175 367.367 431.793 369.203 431.947 371.034C431.995 371.762 432.224 372.466 432.614 373.082C433.005 373.698 433.544 374.207 434.182 374.56L479.03 397.354Z" fill="#968EFF"/>
<path d="M486.051 389.519C486.087 388.985 485.985 388.45 485.754 387.967C485.522 387.484 485.17 387.069 484.731 386.762C484.247 386.532 483.709 386.44 483.177 386.496C482.644 386.552 482.137 386.755 481.713 387.082C480.47 387.916 479.45 389.04 478.739 390.357C478.029 391.674 477.65 393.145 477.636 394.641C477.599 395.184 477.715 395.726 477.972 396.206C478.228 396.686 478.615 397.084 479.086 397.354C479.585 397.551 480.127 397.615 480.658 397.542C481.189 397.468 481.692 397.258 482.119 396.934C483.308 396.091 484.283 394.981 484.966 393.693C485.649 392.406 486.02 390.976 486.051 389.519Z" fill="#240C4B"/>
<path d="M613.91 286.736C628.078 289.503 633.612 290.472 640.391 302.204C647.17 313.936 658.681 357.545 661.836 366.593C664.99 375.642 665.931 378.935 664.603 389.007C663.247 399.521 657.049 418.199 654.448 428.437C653.23 433.169 652.428 437.79 651.542 442.632C650.318 447.588 648.746 452.452 646.838 457.187C646.021 459.496 644.597 461.541 642.715 463.109C641.553 464.132 639.948 464.243 638.841 465.184C637.734 466.125 637.43 467.785 635.881 468.56C634.331 469.334 632.173 468.892 630.651 469.777C629.15 470.877 627.588 471.894 625.974 472.821C624.488 473.253 623.13 474.042 622.018 475.118C621.021 476.197 620.081 478.632 618.282 478.438C616.483 478.244 615.958 476.307 615.875 474.647C615.938 471.389 617.044 468.238 619.029 465.654C620.794 462.777 622.725 460.006 624.812 457.353C626.845 454.893 628.3 452.009 629.074 448.914C629.71 446.838 629.516 444.209 626.832 445.399C623.706 446.838 620.385 449.827 616.622 449.163C614.021 448.72 613.855 446.672 615.377 444.957C617.879 442.129 620.172 439.124 622.239 435.964C624.342 432.726 626.085 429.323 628.271 426.168C629.452 424.529 630.737 422.967 632.117 421.492C635.936 417.341 635.77 411.669 636.213 406.384C636.821 399.051 637.347 380.235 637.347 380.235L620.191 337.982L613.91 286.736Z" fill="#FFA8A7"/>
<path d="M636.243 406.384C636.409 397.668 636.769 388.951 637.101 380.235C631.567 366.787 625.645 351.983 620.222 337.982C626.199 351.983 632.009 366.049 637.654 380.18C637.211 388.924 636.824 397.668 636.243 406.384Z" fill="white"/>
<path d="M518.242 614.882C523.112 613.166 526.737 613 526.682 615.407C526.022 618.374 524.97 621.24 523.555 623.93L519.681 629.27L517.827 634.528C517.827 634.528 515.558 637.295 515.42 637.571C515.281 637.848 514.534 627.748 514.534 627.748C514.534 627.748 511.795 616.127 518.242 614.882Z" fill="#5A50D8"/>
<path d="M570.539 409.455C570.539 409.455 559.47 422.598 552.912 447.225C546.862 470.113 542.241 493.355 539.077 516.817C537.5 527.304 534.954 540.531 531.191 561.09C528.286 576.917 519.154 625.452 519.154 625.452C519.154 625.452 524.412 634.196 530.776 636.852C539.907 640.67 548.707 638.927 549.869 630.764C549.869 630.764 555.901 621.135 565.06 596.287C569.463 584.88 572.978 573.149 575.575 561.2C576.481 553.701 576.749 546.138 576.377 538.594L613.124 474.702C617.185 467.702 622.051 461.202 627.623 455.333C631.065 451.81 633.766 447.632 635.565 443.047C641.652 426.445 632.797 404.115 632.797 404.115L570.539 409.455Z" fill="#5A50D8"/>
<path d="M539.221 516.789C533.299 553.176 526.52 589.424 519.298 625.562C525.662 589.258 532.469 553.038 539.221 516.789Z" fill="white"/>
<path d="M524.88 653.537L522.915 653.15C523.053 652.403 537.774 576.641 548.068 544.82C558.361 512.998 585.34 449.799 585.617 449.162L587.471 449.965C587.194 450.573 560.27 513.745 550.004 545.456C539.739 577.166 525.046 652.79 524.88 653.537Z" fill="black"/>
<path d="M618.91 430.734H558.56C556.352 436.092 554.503 441.593 553.026 447.198C547.447 468.27 543.15 489.662 540.159 511.255C541.626 521.133 543.286 531.288 544.808 538.261C548.875 556.69 551.421 569.695 554.631 577.305C557.729 583.737 561.387 589.885 565.561 595.678C569.858 584.502 573.29 573.013 575.827 561.311C576.733 553.812 577.001 546.249 576.629 538.704L612.601 476.307L615.174 466.484C624.112 451.625 623.088 440.474 618.91 430.734Z" fill="black"/>
<path d="M468.768 639.425C467.689 638.927 466.361 643.161 466.25 644.683C466.139 646.205 469.017 652.403 476.571 656.969C484.125 661.534 497.103 664.08 501.973 665.602C506.843 667.124 510.744 671.136 517.164 674.263C522.864 677.03 531.47 678.496 535.233 676.808C535.959 676.375 536.583 675.79 537.06 675.093C537.538 674.395 537.859 673.602 538 672.768C539.024 669.642 538.941 668.922 538.553 668.812L468.768 639.425Z" fill="#968EFF"/>
<path d="M541.24 661.894C540.744 665.089 539.685 668.172 538.113 670.998C537.013 671.826 535.758 672.426 534.423 672.764C533.088 673.101 531.699 673.169 530.338 672.962C524.478 672.542 518.835 670.575 513.984 667.262C510.279 664.852 506.281 662.927 502.086 661.534C496.314 660.143 490.646 658.349 485.124 656.166C481.004 654.426 477.171 652.075 473.751 649.193C470.984 646.592 468.411 643.659 468.687 640.007C469.308 637.707 470.626 635.656 472.459 634.135C474.292 632.614 476.551 631.698 478.926 631.512C483.471 631.281 488.016 631.968 492.29 633.532C496.442 634.937 500.74 635.865 505.102 636.299C508.09 636.548 511.605 639.066 513.929 636.437C516.696 633.393 517.775 626.199 519.629 622.602C519.933 622.021 520.348 621.384 520.985 621.246C521.621 621.108 522.673 621.882 523.254 622.657C525.963 626.038 529.433 628.731 533.381 630.516C544.062 635.801 549.015 633.006 549.015 633.006L550.011 630.792C550.011 630.792 552.142 631.982 549.43 636.963C547.143 641.058 545.217 645.345 543.675 649.774C542.329 653.688 541.51 657.764 541.24 661.894Z" fill="#240C4B"/>
<path d="M468.764 640.006C472.112 627.61 486.168 630.93 495.244 634.057C498.46 635.19 501.792 635.96 505.178 636.354C501.756 636.2 498.37 635.596 495.106 634.555C486.141 631.788 472.665 628.246 468.764 640.089V640.006Z" fill="white"/>
<path d="M494.281 634.085C489.715 634.5 488.47 641.888 488.47 641.888C492.56 644.085 497.012 645.528 501.613 646.149C504.813 646.703 508.104 646.043 510.842 644.298C513.58 642.552 515.568 639.848 516.417 636.714C518.354 630.543 516.583 621.91 516.223 619.115C516.014 618.155 516.185 617.151 516.701 616.315C517.217 615.478 518.038 614.875 518.99 614.632C518.207 614.705 517.447 614.939 516.758 615.319C516.069 615.698 515.466 616.216 514.985 616.839C514.505 617.462 514.158 618.177 513.967 618.94C513.775 619.703 513.743 620.497 513.871 621.273C514.01 624.594 513.871 631.152 512.46 633.338C511.049 635.524 503.993 636.492 494.281 634.085Z" fill="#240C4B"/>
<path d="M608.674 409.455C615.321 417.31 619.209 427.127 619.742 437.402C620.199 447.384 617.068 457.199 610.915 465.073C608.619 498.72 601.978 563.497 601.978 563.497C610.86 572.629 613.046 578.55 618.303 594.931C621.43 604.892 633.162 636.907 636.068 645.817C620.517 647.727 612.05 663.194 612.05 663.194C612.05 663.194 584.656 622.74 571.485 598.943C561.717 581.345 557.207 574.925 554.301 564.521C550.704 551.544 549.736 544.847 546.526 523.015C543.316 501.183 540.245 473.402 538.667 451.874C537.09 430.346 535.9 407.601 535.9 407.601L608.674 409.455Z" fill="#5A50D8"/>
<path d="M612.156 663.111C596.19 639.591 580.528 615.795 566.804 590.891C562.29 583.629 558.411 575.991 555.21 568.063C552.649 559.916 550.688 551.593 549.344 543.159C542.282 498.203 537.81 452.877 535.951 407.407L538.275 441.442C540.378 475.505 544.612 509.401 550.035 543.049C552 554.117 554.048 565.545 559.084 575.728C575.235 605.781 592.95 634.967 612.156 663.167V663.111Z" fill="white"/>
<path d="M573.449 573.984C565.397 553.453 555.74 441.691 556.238 403.063H554.218C554.052 415.985 555.02 437.043 556.681 460.148C550.123 456.827 545.889 450.74 545.889 420.136H543.869C543.869 450.906 547.881 458.349 556.847 462.472C560.222 508.239 566.255 561.173 571.567 574.759C579.453 594.848 620.6 662.724 620.987 663.305L622.73 662.254C622.315 661.645 581.28 593.935 573.449 573.984Z" fill="black"/>
<path d="M609.878 659.68C607.416 663.167 604.621 665.629 611.622 670.278C617.156 673.848 617.349 676.725 619.037 680.544C620.136 684.267 620.586 688.151 620.365 692.027C620.365 692.027 629.663 677.998 626.951 668.95C624.239 659.902 609.878 659.68 609.878 659.68Z" fill="#240C4B"/>
<path d="M639.676 651.656C642.295 654.419 645.376 656.703 648.78 658.407C651.132 659.874 653.567 661.174 654.314 663.942C654.314 664.246 652.931 665.906 652.958 666.211C653.078 667.53 653.032 668.859 652.82 670.167C652.294 674.733 649.804 678.109 649.25 682.647C649.069 684.459 648.746 686.254 648.282 688.015C647.884 690.159 647.708 692.338 647.756 694.518C647.618 696.786 647.452 699.056 647.341 701.325C647.217 702.289 647.217 703.265 647.341 704.23C647.535 705.198 632.095 712.974 625.869 715.962C625.5 716.14 625.121 716.298 624.734 716.433C620.936 717.466 616.89 717.072 613.362 715.326C600.965 710.816 601.74 706.333 601.74 706.333C601.803 704.476 602.39 702.675 603.433 701.138C604.476 699.601 605.932 698.389 607.634 697.644C608.389 697.205 609.186 696.844 610.014 696.565C613.098 695.42 616.461 695.256 619.643 696.095C620.271 694.253 620.561 692.312 620.501 690.367C620.754 687.459 620.801 684.537 620.639 681.623C620.09 678.33 618.814 675.202 616.904 672.464C614.275 668.839 611.369 664.163 609.626 661.617C607.883 659.072 607.413 652.929 617.734 645.541C627.64 638.485 634.889 640.006 636.301 642.912C637.086 645.947 638.219 648.881 639.676 651.656Z" fill="#240C4B"/>
<path d="M601.579 706.361C601.579 697.81 612.481 693.521 619.593 696.039C612.315 694.684 602.631 698.059 601.579 706.361Z" fill="white"/>
<path opacity="0.1" d="M613.038 700.522C613.865 698.412 615.428 696.672 617.438 695.624C618.167 695.708 618.888 695.847 619.596 696.039C618.351 697.229 613.896 699 613.038 700.522Z" fill="black"/>
<path d="M655.76 666.626C658.527 667.788 656.23 672.16 652.993 678.939C650.067 683.949 648.899 689.792 649.672 695.541C650.337 701.546 648.925 704.479 646.324 706.61C643.723 708.74 624.409 717.18 624.409 717.18C629.002 711.379 631.663 704.287 632.019 696.897C633.07 683.671 634.343 675.176 640.929 669.393C642.976 667.736 645.405 666.615 647.994 666.132C650.584 665.649 653.252 665.818 655.76 666.626Z" fill="black"/>
<path d="M601.579 706.333C601.883 708.934 609.271 714.191 617.987 714.081C626.704 713.97 627.451 712.116 628.807 701.905C630.163 691.695 631.103 677.5 635.531 671.468C639.958 665.436 645.769 661.783 654.264 663.997C655.232 664.467 657.861 667.096 656.892 669.531C656.892 669.531 656.892 667.594 653.406 666.57C650.417 665.712 646.848 665.795 641.867 670.112C636.029 675.12 634.728 686.936 634.064 697.063C633.4 707.191 630.245 716.903 621.861 717.816C618.242 718.306 614.56 718.001 611.071 716.92C607.582 715.84 604.371 714.012 601.662 711.563C601.137 709.863 601.109 708.048 601.579 706.333Z" fill="#968EFF"/>
<path d="M551.618 223.204C550.489 221.614 549.793 219.757 549.599 217.817C549.405 215.876 549.719 213.918 550.511 212.136C551.923 208.539 554.856 204.748 563.406 200.321C573.589 195.063 601.536 191.3 615.371 209.59C617.363 212.357 589.859 263.963 591.215 274.672C584.076 267.173 560.528 240.803 560.528 240.803C554.994 238.423 551.563 236.403 550.373 231.146C549.943 228.434 550.378 225.655 551.618 223.204Z" fill="#263238"/>
<path d="M560.523 240.664C552.222 238.479 546.936 231.201 551.613 223.121C548.071 231.423 552.803 237.455 560.523 240.664Z" fill="white"/>
<path d="M551.616 223.204C548.129 219.386 548.987 213.243 551.616 209.148C554.668 205.174 558.743 202.104 563.404 200.265C561.278 201.489 559.226 202.838 557.261 204.305C551.478 208.318 547.161 216.757 551.727 223.204H551.616Z" fill="white"/>
<path d="M555.818 237.897C555.818 237.897 548.264 250.211 549.122 251.235C550.858 252.616 552.71 253.848 554.656 254.915L555.818 237.897Z" fill="#FFA8A7"/>
<path d="M555.82 237.897C553.938 241.854 551.669 245.59 549.816 249.519C549.566 250.156 549.041 250.903 549.4 251.345C549.875 251.893 550.436 252.361 551.061 252.729C550.314 252.314 549.068 251.982 548.902 250.986C550.425 246.252 552.767 241.822 555.82 237.897Z" fill="white"/>
<path d="M565.174 215.374C560.111 217.781 555.739 221.655 554.106 232.751C553.691 235.656 555.96 239.613 554.936 243.459C550.537 260.062 555.766 273.897 558.976 276.802C561.135 278.85 572.479 279.763 578.346 278.103C585.789 276.027 601.976 268.722 609.696 257.073C618.772 243.238 620.765 224.975 610.776 217.587C596.691 207.183 570.57 212.828 565.174 215.374Z" fill="#FFA8A7"/>
<path d="M554.158 232.751C554.158 236.514 556.372 240.194 555.099 244.04C552.747 254.749 552.581 267.477 559.028 276.802C551.945 267.782 551.945 254.666 554.656 243.93C555.929 240.277 553.826 236.542 554.158 232.861V232.751Z" fill="white"/>
<path d="M603.889 264.904L606.823 285.297C611.388 286.266 611.803 291.661 609.59 295.729L610.669 301.485L579.456 307.074L575.97 278.546L603.889 264.904Z" fill="#FFA8A7"/>
<path d="M559.637 277.217C562.404 278.684 568.076 279.763 575.99 278.656L575.52 274.616C573.009 275.558 570.428 276.299 567.8 276.83C565.113 277.362 562.362 277.493 559.637 277.217Z" fill="#FFA8A7"/>
<path d="M557.699 221.295C557.488 223.689 558.115 226.082 559.473 228.066C560.83 230.049 562.834 231.499 565.142 232.17C563.91 234.82 563.45 237.764 563.814 240.664C563.918 242.378 564.51 244.025 565.52 245.413C566.53 246.8 567.916 247.87 569.514 248.495C571.7 249.242 572.282 248.274 573.139 246.531C574.246 244.068 575.657 240.305 580.942 240.996C587.002 241.827 588.607 250.958 585.065 256.935C584.385 258.198 583.407 259.277 582.216 260.077C581.026 260.878 579.657 261.376 578.231 261.528C577.445 261.516 576.672 261.337 575.961 261.004C575.25 260.67 574.618 260.188 574.108 259.591C574.108 259.591 574.495 267.56 584.761 272.292C591.182 275.707 598.62 276.69 605.708 275.059C610.48 269.758 614.977 264.217 619.183 258.457C630.251 242.297 632.603 212.717 613.649 207.404C612.736 207.155 595.497 204.637 587.085 206.574C561.158 212.108 557.754 220.05 557.699 221.295Z" fill="#263238"/>
<path d="M604.49 205.329C602.198 206.98 600.624 209.445 600.091 212.219C599.853 213.602 599.984 215.023 600.47 216.339C600.956 217.655 601.779 218.82 602.858 219.718C608.392 224.062 617.025 218.998 618.049 212.579C619.211 204.997 610.08 201.178 604.49 205.329Z" fill="#968EFF"/>
<path d="M609.004 207.736C603.331 211.223 599.79 219.441 602.806 225.363C603.636 226.967 604.798 228.406 605.573 230.094C607.759 235.49 604.577 241.439 603.885 247.222C603.412 251.813 604.206 256.445 606.182 260.615C608.063 263.686 612.214 264.461 613.874 267.671C615.009 269.885 614.234 272.596 614.676 275.059C615.645 280.344 621.898 282.89 627.294 283C629.575 283.202 631.873 282.9 634.025 282.116C636.176 281.332 638.13 280.085 639.746 278.462C640.984 276.541 642.333 274.693 643.786 272.928C646.996 269.912 652.087 270.161 655.629 267.394C656.939 266.238 657.965 264.795 658.627 263.178C659.29 261.56 659.57 259.812 659.447 258.069C659.121 254.576 658.184 251.167 656.68 247.997C654.384 242.463 656.21 238.893 657.372 233.276C657.917 230.242 657.414 227.114 655.946 224.403C654.478 221.693 652.131 219.563 649.292 218.362C645.391 216.812 640.631 217.061 637.477 214.267C635.981 212.495 634.577 210.648 633.271 208.733C627.35 202.23 615.673 203.669 609.004 207.736Z" fill="#263238"/>
<path d="M631.283 301.982C630.039 298.6 628.069 295.532 625.512 292.993C622.954 290.455 619.871 288.508 616.479 287.289C613.712 286.459 606.822 285.297 606.822 285.297C608.4 288.894 605.743 291.274 601.067 292.353C595.062 293.764 585.903 293.903 579.678 289.78L577.132 288.202C570.338 289.872 563.633 291.886 557.043 294.235C555.687 294.871 548.188 297.389 536.401 323.87C531.365 335.187 532.859 346.671 542.129 354.833C542.654 362 538.033 378.132 538.033 378.132C535.684 391.595 535.144 405.312 536.428 418.918C536.428 418.918 541.963 433.584 585.848 433.418C619.8 433.418 636.873 416.815 636.873 416.815C636.458 408.514 623.397 379.377 624.698 369.582C626.718 355.304 639.806 329.708 631.283 301.982Z" fill="#968EFF"/>
<path opacity="0.3" d="M635.87 416.99L636.202 416.686C636.035 414.886 635.692 413.106 635.178 411.373C634.542 409.021 633.656 406.226 632.688 403.21C632.383 402.269 632.051 401.301 631.719 400.443C630.585 397.067 629.367 393.47 628.26 389.984C627.901 388.905 627.569 387.825 627.264 386.774C626.96 385.722 626.545 384.45 626.24 383.343C625.936 382.236 625.798 381.766 625.604 380.991C625.604 380.742 625.466 380.465 625.41 380.216C625.355 379.967 625.161 379.192 625.051 378.722C624.829 377.809 624.636 376.951 624.497 376.121L624.331 375.208C624.318 374.996 624.318 374.783 624.331 374.571C624.251 374.169 624.195 373.763 624.165 373.354V372.524C624.139 372.026 624.139 371.527 624.165 371.029C624.135 370.55 624.135 370.07 624.165 369.591C624.913 365.295 625.939 361.052 627.237 356.89C628.122 353.68 629.118 350.249 630.004 346.596C632.632 351.494 635.178 356.392 637.724 361.317C639.911 365.211 641.762 369.284 643.258 373.492C646.302 383.066 645.555 393.443 644.392 403.432C643.177 414.826 640.652 426.042 636.866 436.858C637.676 430.227 637.339 423.507 635.87 416.99Z" fill="black"/>
<path d="M531.916 380.932C535.863 379.611 538.779 375.041 544.438 363.259C551.519 348.605 555.334 345.296 560.529 330.294C564.882 319.31 559.078 299.055 556.437 294.833C547.601 297.981 541.434 300.898 535.471 313.289C530.117 324.432 519.395 346.922 514.505 356.817C514.505 356.817 486.052 362.954 478.406 363.462C475.439 363.724 472.458 363.167 469.787 361.852C468.19 361.032 466.417 360.614 464.622 360.633C463.917 360.608 463.214 360.711 462.547 360.938C461.298 361.542 460.191 362.402 459.297 363.462C457.391 365.035 455.389 366.489 453.304 367.815C450.997 369.542 448.284 370.717 445.948 372.473C443.946 373.924 441.74 375.186 440.478 377.42C440.243 377.781 440.085 378.186 440.014 378.61C439.975 378.979 440.018 379.352 440.138 379.703C440.258 380.053 440.454 380.374 440.71 380.641C441.23 381.179 441.88 381.574 442.596 381.788C443.611 381.962 444.591 382.301 445.498 382.789C446.441 383.485 446.514 384.864 447.37 385.691C448.705 386.953 450.896 386.764 452.419 387.809C453.594 388.622 454.247 390.102 455.51 390.711C456.198 391.015 456.935 391.192 457.686 391.233C459.021 391.364 460.341 391.77 461.676 391.77C463.272 391.77 463.969 391.016 465.289 390.319C469.845 387.78 472.312 384.733 480.364 384.196C485.747 383.848 527.97 382.252 531.916 380.932Z" fill="#FFA8A7"/>
<path d="M557.294 293.237C547.675 295.529 541.987 299.041 535.661 310.648C529.857 321.4 513.897 355.758 513.897 355.758L497.936 360.241C496.664 362.102 495.788 364.205 495.364 366.42C494.94 368.634 494.976 370.911 495.47 373.111C496.993 380.569 500.301 383.921 500.301 383.921C500.301 383.921 508.441 383.688 522.312 383.21C536.183 382.731 537.184 379.524 540.231 373.488C543.278 367.452 561.995 331.034 561.995 331.034C561.995 331.034 569.569 304.104 557.294 293.237Z" fill="#FFA8A7"/>
<path d="M576.532 289.015C570.061 290.204 563.677 291.916 557.322 293.512C552.532 294.458 548.048 296.566 544.263 299.65C538.112 305.178 534.847 312.999 531.205 320.253C525.401 332.064 519.96 344.02 514.374 355.917V356.062H514.214L498.254 360.502C490.506 361.678 482.294 364.275 474.43 363.549C471.716 363.303 469.438 361.547 466.856 361.039C465.574 360.771 464.25 360.771 462.967 361.039C461.755 361.523 460.683 362.301 459.848 363.303C455.829 366.901 451.026 369.353 446.543 372.211C444.439 373.793 441.943 375.113 440.594 377.435C441.914 375.055 444.395 373.72 446.398 372.11C450.823 369.208 455.611 366.611 459.456 363.041C460.33 361.983 461.458 361.164 462.735 360.662C464.075 360.379 465.458 360.379 466.798 360.662C469.453 361.155 471.644 362.882 474.357 363.129C482.221 363.781 490.317 361.184 497.978 359.951L513.852 355.439L513.634 355.627C519.099 343.662 524.744 331.783 530.567 319.992C534.296 312.737 537.633 304.859 543.872 299.316C547.749 296.093 552.427 293.982 557.409 293.208C562.966 291.655 570.264 290.088 576.474 289L576.532 289.015Z" fill="white"/>
</svg>
